<?xml version="1.0" encoding="UTF-8" standalone="no"?>
<svg width="1003px" height="1080px" viewBox="0 0 1003 1080" version="1.1" xmlns="http://www.w3.org/2000/svg" xmlns:xlink="http://www.w3.org/1999/xlink" xmlns:sketch="http://www.bohemiancoding.com/sketch/ns">
    <!-- Generator: Sketch 3.4 (15588) - http://www.bohemiancoding.com/sketch -->
    <title>botanika_planrotated</title>
    <desc>Created with Sketch.</desc>
    <defs></defs>
    <g id="Page-1" stroke="none" stroke-width="1" fill="none" fill-rule="evenodd" sketch:type="MSPage">
        <g id="botanika_plan" sketch:type="MSLayerGroup" transform="translate(501.500000, 539.500000) rotate(-270.000000) translate(-501.500000, -539.500000) translate(-38.500000, 38.000000)">
            <path d="M255.929842,99.1502435 L302.939642,31.4151239 C306.127732,34.4704104 310.105077,38.5152603 312.503901,40.5808803 C314.902749,42.6465068 315.040742,43.0205714 317.286031,43.7689699 C319.531326,44.5173716 322.761452,45.0317395 325.654782,44.9645039 C328.548089,44.8972672 331.746998,43.5710578 334.422036,43.3704574 C337.097054,43.1698587 338.539851,43.6361624 341.595247,43.7689699 C344.650623,43.901776 349.558451,44.2339769 352.753582,44.1674823 C355.948713,44.1009867 358.354516,42.9524053 360.723798,43.3704607 C363.093103,43.7885128 364.465441,45.9461053 366.302965,46.5585503 C368.14049,47.1709953 369.158206,46.8584294 371.483597,46.9570628 C373.809005,47.0556951 377.862295,47.9468124 380.250851,47.1506229 C382.63942,46.3544321 382.136902,43.4643753 384.634478,42.5734272 C387.13205,41.6824957 391.160056,41.7698293 394.198737,42.1749148 C397.237444,42.5800002 399.973766,44.2329481 402.567488,44.9644952 C405.161194,45.6960424 407.047617,45.3986609 409.740699,46.5585417 C412.433777,47.7184192 416.176521,50.0261313 418.522574,51.8359746 C420.868635,53.6458079 421.742708,55.7894302 423.688585,57.3183412 C425.634464,58.8472788 426.913258,58.0886918 430.064757,60.9049299 C433.216266,63.7211814 438.972411,71.8561715 442.4186,74.0558108 C445.864789,76.2554501 446.465965,73.4591071 448.794772,72.8602768 C451.123606,72.261443 453.351199,70.9381968 456.366486,70.4692087 C459.381762,70.0002206 462.777019,68.8231163 466.727783,70.0706963 C470.678547,71.3182795 475.980338,74.4722013 479.081625,77.6424095 C482.18294,80.8126276 482.742053,85.9351955 484.660793,88.402209 C486.579536,90.8692191 488.503192,90.5860105 490.23996,91.9887977 C491.976723,93.3915982 493.737923,94.8783993 495.02209,96.7709272 C496.306253,98.6634617 496.94741,101.352177 497.81167,103.1471 C498.675931,104.942022 498.450049,106.198681 500.202738,107.530727 C501.955428,108.862772 505.899975,109.714621 507.774452,110.718816 C509.648929,111.723015 509.333676,113.019032 511.36104,113.508397 C513.388418,113.997762 516.885477,112.739807 519.331256,113.508397 C521.777058,114.276986 523.177908,116.560161 525.308926,117.892024 C527.439937,119.223883 530.084011,120.212244 532.083634,121.478612 C534.083232,122.744994 535.166795,124.448878 537.264266,125.463737 C539.361754,126.478586 542.655614,126.565361 544.437477,127.456292 C546.21934,128.347224 545.857597,130.202437 547.625567,130.644382 C549.393539,131.08633 552.095494,129.711218 554.001739,129.847361 C555.907981,129.983501 557.189829,130.910088 558.783869,131.441407 C560.377915,131.972726 561.43388,131.109577 563.565998,133.035453 C565.698123,134.961328 569.277224,140.340623 571.137711,142.599712 C572.998201,144.858808 573.003389,145.552289 574.7243,146.584837 C576.445225,147.617374 576.750475,148.175919 581.100473,148.577392 C585.45047,148.978869 593.84348,144.963853 600.627526,148.975905 C607.411572,152.987979 615.138871,165.75468 618.162034,170.495504 C621.185183,175.236327 618.228437,174.015133 618.162034,176.473174 C618.09563,178.931202 617.203587,182.790727 617.763521,185.240428 C618.323455,187.690121 620.021228,188.627001 621.35011,190.42106 C622.679005,192.215148 624.457535,193.649252 625.733737,196.000227 C627.009935,198.351196 627.165432,201.5993 628.921827,204.368979 C630.678222,207.138647 633.308876,210.597906 636.095037,212.339194 C638.881192,214.080493 641.866444,213.865819 644.862291,214.33175 C647.858118,214.797684 651.636999,214.929563 654.028048,215.128771 C656.419116,215.327981 657.698943,215.046902 659.208679,215.527284 C660.718446,216.007663 660.10526,217.573557 662.795268,217.918352 C665.48529,218.263147 671.359416,217.045109 674.750608,217.519839 C678.141801,217.99457 680.256403,219.509062 682.720824,220.707929 C685.185242,221.906796 687.662428,223.06362 689.495532,224.693054 C691.32861,226.322477 691.020768,227.280552 693.480657,230.272221 C695.940536,233.263881 701.14731,239.801854 704.240456,242.626064 C707.333619,245.450281 709.799885,243.344458 711.812169,247.009691 C713.824454,250.674937 713.692758,258.923725 715.398758,262.950155 C717.104772,266.976586 719.647635,268.195155 721.774931,270.521869 C723.90224,272.848572 725.79189,275.212879 728.151103,276.898041 C730.510313,278.583216 733.469942,278.641376 735.722817,280.48463 C737.975708,282.327897 739.939725,284.524751 741.301984,287.657841 C742.66422,290.79092 743.02893,295.561495 743.693052,298.816176 C744.357178,302.070856 744.822092,304.461273 745.287099,307.184927 C745.752106,309.908568 745.883892,312.36084 746.482633,315.155143 C747.081373,317.949445 747.505537,321.391215 748.873701,323.922397 C750.241865,326.453589 752.525588,327.972886 754.452868,329.900067 C756.380132,331.827241 758.341291,334.365009 760.430538,335.479234 C762.519782,336.593456 763.883872,335.877747 766.408208,336.276256 C768.932545,336.674769 773.109743,338.081457 775.573965,337.870303 C778.038197,337.659146 777.655153,335.823475 780.356094,335.080722 C783.057045,334.33797 787.877995,333.41944 791.514429,333.486676 C795.150864,333.553912 798.530858,334.40891 801.875726,335.479231 C805.220595,336.549552 809.158499,338.52081 811.439985,339.862858 C813.721492,341.204906 813.529877,339.591411 815.42511,343.449447 C817.320333,347.307497 820.328199,358.818011 822.59832,362.577998 C824.868435,366.337984 826.437562,363.700647 828.177488,364.570553 C829.917397,365.440463 830.635051,366.231001 832.959618,367.758643 C835.284191,369.286285 839.65949,372.336769 842.125374,373.736313 C844.591274,375.135874 845.42034,375.589951 847.704541,376.127381 C849.988736,376.664811 852.885173,376.65879 855.674757,376.924403 C858.464338,377.190015 862.283312,377.249287 864.442011,377.721424 C866.600713,378.193563 866.364739,378.450007 868.427136,379.71398 C870.489522,380.977956 874.467146,383.563224 876.795887,385.293147 C879.124627,387.023054 880.581528,388.481054 882.375055,390.075277 C884.168588,391.669506 886.615789,392.182302 887.555686,394.857406 C888.49561,397.532517 887.355829,401.954685 887.555686,404.820201 C887.755544,407.685723 888.217864,409.859702 888.75122,411.993412 C889.284576,414.127111 890.276825,415.771176 890.743776,417.572579 C891.210727,419.373985 891.341497,421.091776 891.540798,422.753211 C891.7401,424.414679 891.39836,425.777377 891.93931,427.53534 C892.480259,429.293311 893.498534,431.610753 894.728891,433.114508 C895.959247,434.618257 897.55644,435.558366 899.112517,436.302598 C900.668591,437.046832 901.747343,437.364029 903.894647,437.498132 C906.041958,437.632234 909.005827,437.099619 911.864863,437.099619 C914.723902,437.099619 917.974691,437.431727 921.030619,437.498132 C924.086553,437.564535 927.398384,437.298274 930.196375,437.498132 C932.994383,437.697989 935.612646,438.020189 937.768088,438.693666 C939.923551,439.367142 940.950346,440.617228 942.94872,441.483246 C944.947111,442.349265 947.04859,442.470032 949.723429,443.874314 C952.39826,445.278597 957.016104,447.546771 958.889185,449.851984 C960.762273,452.157201 959.549326,454.752681 960.084719,456.626693 C960.620112,458.500704 960.713464,459.44202 962.077275,461.010319 C963.441086,462.578619 966.040799,464.584048 968.054945,465.792449 C970.06908,467.000856 971.571084,466.986039 974.032615,468.183517 C976.494162,469.380995 980.117354,471.892727 982.799869,472.965646 C985.48239,474.038562 987.954115,473.44575 989.973079,474.559693 C991.99203,475.673635 992.762567,477.548388 994.356706,479.341822 C995.950846,481.135263 997.608699,483.324355 999.537338,485.319492 C1001.46599,487.314643 1003.25638,488.905815 1005.91351,491.297162 C1008.57065,493.68851 1012.46132,497.587965 1015.47777,499.665914 C1018.49425,501.743859 1021.25612,502.388996 1023.84652,503.651038 C1026.43689,504.913067 1028.29099,506.106288 1031.01973,507.237627 C1033.74846,508.368979 1036.59843,509.097193 1040.18549,510.425717 C1043.77254,511.754243 1049.37181,513.455625 1052.53933,515.207846 C1055.70686,516.960074 1057.12134,519.125712 1058.9155,520.787014 C1060.70968,522.448296 1062.19732,523.035828 1063.29913,525.170641 C1064.40094,527.30545 1064.56107,530.018999 1065.29169,533.140856 C1066.02231,536.26273 1067.41325,541.13749 1067.68275,543.900656 C1067.95226,546.663841 1067.28461,547.418922 1066.88573,549.479823 C1066.48685,551.540728 1065.82356,554.32652 1065.29169,556.254532 C1064.75981,558.182537 1064.22933,559.175623 1063.69764,561.036661 C1063.16595,562.897709 1062.7692,565.349174 1062.10359,567.412834 C1061.43799,569.476516 1059.92118,571.442587 1059.71252,573.390504 C1059.50387,575.33842 1060.50955,576.844203 1060.90806,578.571136 L1064.09615,581.360716 C1002.19401,706.493219 910.501889,892.933693 878.389741,956.757892 C878.138854,957.256518 878.041516,957.859609 877.647915,958.231447 L871.615049,963.931109 C869.560349,965.87236 869.110714,967.765167 867.231422,969.510277 C865.35213,971.255373 862.589792,972.492582 860.456714,974.292406 C858.323662,976.092237 854.946732,981.500343 851.113506,983.299054 L839.73412,988.638795 L809.048731,973.495368 L769.994691,1002.7308 L770.597044,997.475235 L764.814039,995.812009 C762.78379,995.228085 760.746037,992.907403 758.836369,992.22542 C756.926701,991.543423 755.855636,991.76032 753.655737,991.826907 C751.455822,991.893496 748.685422,992.023987 745.685521,992.623929 C742.685617,993.223873 738.578706,994.616485 735.722727,995.413509 C732.866745,996.210531 730.94392,996.874008 728.549516,997.406065 C726.155115,997.938125 723.996413,998.946304 721.376305,998.601599 C718.756205,998.256897 715.666176,996.410573 713.40609,995.413509 C711.145974,994.416442 709.89859,994.027288 707.826922,992.623929 C705.755274,991.220574 703.244276,988.904617 701.052214,987.044761 C698.860171,985.184919 696.471961,983.194952 694.676041,981.465594 C692.880102,979.736242 691.248262,978.253887 690.292414,976.683464 C689.33656,975.113035 690.765201,971.048635 689.09688,972.299837 L684.120717,976.031844 L682.322182,953.569789 L686.705809,947.193616 C688.160193,945.078164 688.631591,943.807043 690.292398,940.418908 C691.953218,937.030773 695.33921,929.86052 696.66857,926.869525 C697.997931,923.878513 696.528077,925.487932 698.262617,922.485898 C699.997156,919.483864 703.900038,914.863242 707.029871,908.936515 C710.15971,903.009787 714.261966,894.411079 716.992665,887.01838 C719.723344,879.62568 722.03755,870.3598 723.368838,864.701743 C724.700142,859.043685 724.298297,856.933304 724.962884,853.144905 C725.627471,849.356506 726.755029,846.245914 727.353952,841.98657 C727.952876,837.727226 727.951118,832.294306 728.549486,827.640148 C729.147855,822.98599 728.642099,816.717518 730.940554,814.090765 C733.239012,811.463998 734.905375,819.173798 736.918224,818.07589 C738.931064,816.977967 736.263546,813.913978 735.324178,811.699717 C734.384809,809.485446 732.601002,807.050377 731.339053,804.925009 C730.077114,802.799647 728.49761,800.911838 727.752465,798.947339 C727.007306,796.982843 727.287551,795.361215 726.955443,793.368171 C726.623335,791.37515 726.569618,789.083738 725.759909,786.991998 C724.9502,784.900253 723.501834,783.339347 722.17332,781.014328 C720.844794,778.689293 719.677323,775.403691 717.789693,773.044113 C715.902067,770.684534 713.472561,769.191911 711.014985,767.066443 C708.557422,764.940988 704.941378,762.52703 703.044769,760.291734 C701.148157,758.056439 700.988587,755.846531 699.85668,753.915562 C698.724769,751.984593 697.876533,750.475288 696.270091,748.73493 C694.663636,746.994555 691.786174,745.455336 690.292421,743.554298 C688.798675,741.653243 688.63401,739.63939 687.50284,737.576628 C686.371671,735.513869 685.354788,733.037515 683.517716,731.200455 C681.680657,729.363396 678.934871,728.211574 676.743008,726.816828 C674.551148,725.422086 672.824478,724.425853 670.366835,722.831704 C667.909179,721.237564 664.123818,718.713956 661.998084,717.252536 C659.87235,715.79111 660.095823,715.204505 657.614457,714.064447 C655.133091,712.924388 649.630716,713.162217 647.25316,710.477858 C644.875613,707.793486 646.261373,703.519318 645.260604,700.116561 C644.259835,696.713804 642.865924,692.504838 641.27548,690.153766 C639.685045,687.802708 637.710923,688.183253 636.094848,686.567178 C634.478759,684.951089 633.058642,682.004338 631.711221,680.589508 C630.363803,679.174668 629.586042,679.128454 628.124632,678.19844 C626.663206,677.268425 624.670833,676.072985 622.944,675.01035 C621.217147,673.947715 619.830553,672.822474 617.763368,671.82226 C615.696167,670.822046 613.340762,669.636422 610.590158,669.03268 C607.839567,668.428938 604.683136,668.701127 601.424401,668.235658 C598.165647,667.770189 594.38521,666.973906 591.063104,666.243103 C587.741002,665.512297 584.43501,664.319172 581.498845,663.852035 C578.562661,663.384898 576.067953,663.854443 573.52863,663.453522 C570.98929,663.052604 568.414559,662.05878 566.355419,661.460967 C564.296272,660.863153 563.235306,660.398608 561.174787,659.86692 C559.114251,659.335232 556.397842,657.991054 554.001576,658.272874 C551.605321,658.554693 550.261595,660.785078 547.625404,661.460963 C544.98919,662.136849 543.308172,661.859476 538.459647,662.257985 C533.611123,662.656497 523.714724,663.453519 518.534092,663.852031 C513.35346,664.250544 510.538687,663.976132 507.375756,664.649053 C504.212856,665.321975 502.195125,666.840913 499.804043,667.837143 C497.412975,668.833376 495.421147,669.563716 493.029335,670.626723 C490.637526,671.68973 492.570439,673.942435 485.457622,674.213312 C478.344791,674.484203 458.584724,672.019046 451.185478,672.220756 C443.786398,672.422466 450.258149,672.020528 441.621219,675.408846 C432.984263,678.79718 407.317174,689.609684 399.379026,692.544851 C391.440745,695.480019 396.790322,692.876959 394.198394,692.943364 C391.60645,693.009767 387.357192,692.943364 383.837097,692.943364 C380.317003,692.943364 376.222051,692.608847 373.077298,692.943364 C369.932548,693.27788 367.4323,694.404417 365.107082,694.935919 C362.781861,695.467421 362.26638,694.996858 359.129412,696.131453 C355.992445,697.266049 350.43068,699.78354 346.377034,701.710621 C342.323388,703.637702 338.350791,706.15619 334.820196,707.688291 C331.289634,709.220379 328.399195,710.207626 325.255937,710.87638 C322.112669,711.545135 319.346324,711.274707 316.090181,711.673402 C312.834018,712.072097 308.921523,712.934876 305.728884,713.267448 C302.536255,713.600021 299.706585,713.866744 296.96163,713.665961 C294.216688,713.465177 291.781065,712.603233 289.389917,712.071914 C286.998756,711.540596 284.764204,710.679302 282.615209,710.477868 C280.466229,710.276436 279.2292,710.809976 276.637538,710.87638 C274.04587,710.942784 269.930255,710.942784 267.07328,710.87638 C264.216277,710.809977 261.582373,710.343672 259.501566,710.477868 C257.42075,710.612064 256.654288,710.939542 254.719437,711.673402 C252.784577,712.407262 251.618864,714.342864 249.738655,715.551457 C248.910978,716.083517 238.943464,722.667245 237.981967,723.628742 C236.316332,725.294378 235.979502,727.548734 233.598341,728.809374 C231.217182,730.070014 227.624193,730.270059 224.432584,730.80193 C221.240972,731.333804 217.79133,731.53255 214.46979,731.997464 C211.148246,732.462378 207.662582,733.524364 204.506995,733.59151 C201.351412,733.658654 198.398728,732.861262 195.739741,732.395976 C193.080744,731.93069 190.924182,730.93659 188.56653,730.80193 C186.208896,730.667271 184.386475,731.465962 181.791822,731.598951 C179.197193,731.731943 176.214981,731.73185 173.024568,731.598951 C169.834163,731.466052 165.158631,730.374244 162.663271,730.80193 C160.167922,731.229615 160.512903,733.23773 159.076683,733.990019 C157.640449,734.742309 156.426392,735.682974 154.294553,735.185553 C152.162708,734.688133 149.735967,732.206026 147.121342,731.200429 C144.506708,730.194841 141.149953,729.940344 138.752591,729.207873 C136.355226,728.475402 134.835656,727.747467 132.774921,726.816805 C130.714203,725.886143 128.527075,724.559747 126.398748,723.628716 C124.270422,722.697681 122.426684,721.838608 120.022576,721.237648 C117.618448,720.636684 115.439731,720.573432 112.05236,720.042114 C108.664956,719.510795 102.890292,718.448532 99.6985174,718.049558 C96.5067226,717.650584 95.1821007,717.783853 92.9238092,717.651046 L41.5159263,668.634111 L69.7334706,633.215841 L15.8213226,636.829778 L0.927658072,626.74094 L1.2864399,594.460677 L9.10396056,566.898941 L1.45963828,566.736962 L1.53734028,552.856302 L12.2175855,553.065328 L13.813762,541.237693 L20.7735985,525.314642 L139.195163,87.6597615 L162.977572,0.809682389 L220.420814,72.1091262 L232.928482,70.0630393 L255.929605,99.1507626 L255.929842,99.1502435 Z" id="main_ground" stroke-opacity="0.501961" stroke="#FFFFFF" stroke-width="0.418043" stroke-dasharray="2.090216" fill-opacity="0.501961" fill="#EFEEEE" sketch:type="MSShapeGroup"></path>
            <g id="service_houses" transform="translate(158.000000, 43.000000)" stroke="#FFFFFF" fill="#C2C1C1" sketch:type="MSShapeGroup">
                <path d="M0.085719983,6.57403639 L4.20001215,6.57403639 L4.20001215,0.4270227 L23.0561046,0.3359706 L23.0561046,22.6387506 L4.20001215,22.6387506 L4.20001215,19.5669053 L0.108981469,19.8025109 L0.085719983,6.57403639 Z" id="Shape" stroke-width="0.278696"></path>
                <path d="M0.085719983,6.57403639 L4.20001215,6.57403639 L4.20001215,19.9796305 L0.085719983,19.5669053 L0.085719983,6.57403639 Z" id="Shape" stroke-width="0.278696"></path>
                <path d="M764.490699,594.900204 L772.266681,579.743685 L781.501491,584.585397 L773.934862,599.748562 L764.490699,594.900204 Z" id="Shape" stroke-width="0.557391"></path>
            </g>
            <g id="roads" transform="translate(0.000000, 9.000000)" sketch:type="MSShapeGroup">
                <path d="M160.262995,121.321299 C169.316797,87.8918856 207.159811,84.8296771 225.554662,109.307605 C328.679141,238.850153 448.018537,349.229557 581.787697,442.558293 C590.163559,448.198405 583.780993,460.932241 573.952697,456.661333 C405.901756,407.695906 241.413146,418.647413 72.5846076,493.134013 C65.9059693,496.597149 60.4506193,493.224125 62.1192985,486.325043 L160.264823,121.322429 L160.262995,121.321299 Z M1008.17737,686.086905 L891.643976,627.687949 C891.242685,627.486794 891.168504,628.448669 890.927618,628.824395 C878.336209,648.468686 860.23781,660.02034 831.683938,658.414899 C849.408292,709.39477 854.950607,755.643588 846.650843,794.47897 C844.03343,804.994657 844.330623,812.088779 848.887435,814.182545 L862.523051,821.894924 L842.985265,860.630947 L804.260208,840.854098 L823.046383,801.776464 C854.203515,665.151791 766.939348,565.331439 597.680472,497.890411 L572.392545,590.523628 L15.8216283,627.831728 L0.927963794,617.742889 L1.28674562,585.462627 L9.10426628,557.90089 L1.459944,557.738911 L1.537646,543.858251 L12.2178912,544.067277 L13.8140678,532.239643 L20.7739042,516.316591 L139.195468,78.6617108 L232.928621,61.0650617 C391.090772,266.045272 644.590453,486.15874 831.802211,527.883199 C888.872604,538.012977 907.165104,581.21248 896.886186,615.292883 C896.763289,615.700377 896.124263,616.322084 896.504993,616.512034 L1013.3903,674.840209 L1008.17484,686.089297 L1008.17737,686.086905 Z M45.1851033,543.246762 C222.40838,452.171733 399.38442,436.502132 575.367527,491.66176 L558.433896,560.058503 C557.270314,567.757755 550.938414,572.054417 541.516383,573.233908 L65.6329127,607.844007 L45.1848374,543.24653 L45.1851033,543.246762 Z" id="Shape" stroke="#FFFFFF" stroke-width="0.557391" fill="#DEDEDD"></path>
                <path d="M890.84511,612.859748 C895.424133,597.094044 892.97964,579.944547 884.136364,566.091535 C872.296135,547.543757 851.729493,538.001065 830.66984,534.263044 L830.530644,534.238316 L830.392743,534.207569 C795.098092,526.341897 760.53817,513.063975 727.907623,497.619246 C690.231992,479.786626 653.958031,458.48944 619.198394,435.523708 C581.013004,410.2945 544.257863,382.746388 508.83195,353.782848 C471.747825,323.463661 435.984288,291.459346 401.527049,258.189108 C340.36197,199.13152 282.361782,135.387739 230.227144,68.1663657 L144.390269,84.2805603 L26.9061426,518.472802 L18.0404594,522.569515 L13.8139139,532.239282 L12.2177374,544.066916 L1.53749214,543.85789 L1.45979014,557.73855 L9.10411242,557.900529 L12.8821432,564.680421 L7.75946564,586.399139 L7.44902882,614.329669 L27.1046185,627.075003 L546.633282,587.946858 C552.617631,587.464442 566.990703,584.25207 571.333224,570.136469 L593.336263,489.181183 L600.078538,491.867685 C689.991158,527.693363 793.325987,586.921093 825.611932,684.626643 C838.423561,723.39789 838.392723,763.631952 829.365339,803.217351 L829.203267,803.927873 L812.843465,837.958762 L840.129586,851.893688 L853.949401,824.494117 L845.894513,819.938156 C836.073414,815.152404 838.195626,801.6423 840.331462,793.020629 C849.565475,749.665873 839.873494,701.715976 825.558957,660.543479 L822.379477,651.398359 L832.046286,651.94181 C855.391845,653.254406 872.494022,645.227681 885.123347,625.858706 C886.581809,623.2437 890.143308,615.747271 890.845307,612.860354 L890.84511,612.859748 Z M571.78991,462.78329 C400.948256,413.088117 238.130485,427.219137 75.3665484,498.990457 C70.1930278,501.600738 63.76352,502.047501 59.2049335,497.913836 C55.4838601,494.539491 54.6750583,489.513715 55.8151369,484.800273 L55.8344929,484.720441 L154.004275,119.628103 C158.364741,103.527899 169.71608,90.8438757 186.435505,87.5351953 C203.409245,84.1763365 220.40392,91.720734 230.679847,105.339569 C332.428576,233.139832 451.59052,343.813993 585.457378,437.214838 C592.476764,441.97909 594.356524,451.209878 589.316159,458.136551 C585.175748,463.826277 578.152108,465.353659 571.789992,462.784229 L571.78991,462.78329 Z M564.789698,561.346857 C561.415088,574.395121 553.167396,578.307238 542.318106,579.665409 L542.151034,579.68634 L60.9938524,614.679922 L37.3484194,539.981975 L42.2182447,537.479401 C213.90994,449.246925 392.705693,427.615073 577.302195,485.474363 L583.121787,487.298459 L564.788978,561.346745 L564.789698,561.346857 Z" id="Shape" stroke="#FFFFFF" stroke-width="0.557391" fill="#C2C1C1"></path>
                <path d="M617.280071,487.254373 C609.944528,484.507301 604.325983,478.184387 606.270111,469.847205 L606.272797,469.835814 C607.252823,465.6854 609.18657,462.562213 611.487258,459.050626 L611.867061,458.470874 L612.414121,458.045318 C618.716588,453.141664 622.32903,453.555752 629.590303,456.112495 L630.083463,456.286143 L630.518369,456.576205 C665.54485,479.933328 702.077677,501.157174 740.880826,517.62398 C755.543703,523.846527 770.449198,529.344744 785.601696,534.250426 C799.491528,538.747303 813.522225,542.731397 827.599644,546.592139 C833.003486,548.074125 838.411781,549.539808 843.817485,551.015111 L844.07078,551.0842 L844.313332,551.184592 C850.341945,553.678552 856.287182,556.616315 861.6125,560.411293 C865.475734,563.16429 868.726992,566.215499 871.959707,569.666241 C872.421843,570.159587 872.880832,570.655898 873.338615,571.153318 L873.495871,571.324095 L873.633122,571.511358 C881.381922,582.079183 883.515067,595.301444 879.727765,607.813564 C876.080397,619.863014 867.321849,630.093913 855.788273,635.232309 C841.960018,641.392981 827.044787,639.142498 814.104024,631.907445 C809.301889,629.222794 807.904838,626.630012 804.876491,622.4143 C762.236859,563.057968 684.01945,515.565325 617.280254,487.254436 L617.280071,487.254373 Z" id="Shape" stroke="#FFFFFF" stroke-width="0.557391"></path>
                <path d="M614.973861,461.334432 C619.78314,457.592623 621.714275,457.75738 628.206788,460.043413 C724.087309,523.980929 781.212532,538.249192 842.720552,555.035677 C858.477816,561.554376 864.272485,567.456944 870.272585,573.975743 C892.831773,604.742148 858.283516,651.8326 816.138124,628.269712 C811.939924,625.922634 810.876443,623.622698 808.261619,619.982741 C766.65812,562.068953 689.953039,513.541839 618.821743,483.380997 C613.90802,481.5657 608.795876,477.369897 610.329373,470.793576 C611.183259,467.177611 612.929838,464.454422 614.973894,461.334525 L614.973861,461.334432 Z" id="Shape" stroke="#FFFFFF" stroke-width="0.557391" fill="#DEDEDD"></path>
                <path d="M255.929842,90.1502435 L317.393333,0.174485321" id="Shape" stroke="#DEDEDD" stroke-width="0.418043" stroke-dasharray="2.090216"></path>
                <path d="M345.117368,191.300155 L457.952188,37.9046148" id="Shape" stroke="#DEDEDD" stroke-width="0.418043" stroke-dasharray="2.090216"></path>
                <path d="M437.661526,287.048417 L571.285468,105.393827" id="Shape" stroke="#DEDEDD" stroke-width="0.418043" stroke-dasharray="2.090216"></path>
                <path d="M540.856122,371.056607 L674.476741,189.400356" id="Shape" stroke="#DEDEDD" stroke-width="0.418043" stroke-dasharray="2.090216"></path>
                <path d="M648.510277,446.603266 L772.065319,278.633408" id="Shape" stroke="#DEDEDD" stroke-width="0.418043" stroke-dasharray="2.090216"></path>
                <path d="M766.366255,507.31242 L871.255616,364.722837" id="Shape" stroke="#DEDEDD" stroke-width="0.418043" stroke-dasharray="2.090216"></path>
                <path d="M889.376313,562.256048 L978.783494,440.714787" id="Shape" stroke="#DEDEDD" stroke-width="0.418043" stroke-dasharray="2.090216"></path>
                <path d="M722.431955,801.643319 L910.511034,893.798678" id="Shape" stroke="#DEDEDD" stroke-width="0.418043" stroke-dasharray="2.090216"></path>
                <path d="M648.290954,715.771883 L768.43985,604.036999" id="Shape" stroke="#DEDEDD" stroke-width="0.418043" stroke-dasharray="2.090216"></path>
                <path d="M597.677285,497.888195 L553.68317,664.570031" id="Shape" stroke="#DEDEDD" stroke-width="0.418043" stroke-dasharray="2.090216"></path>
                <path d="M393.487965,602.515034 L400.938287,693.284673" id="Shape" stroke="#DEDEDD" stroke-width="0.418043" stroke-dasharray="2.090216"></path>
                <path d="M69.7336135,624.214676 L37.6699819,664.221108" id="Shape" stroke="#DEDEDD" stroke-width="0.418043" stroke-dasharray="2.090216"></path>
                <path d="M222.385118,613.982946 L232.130684,725.830814" id="Shape" stroke="#DEDEDD" stroke-width="0.418043" stroke-dasharray="2.090216"></path>
                <path d="M133.628594,220.373688 L260.944021,254.601967" id="Shape" stroke="#DEDEDD" stroke-width="0.418043" stroke-dasharray="2.090216"></path>
                <path d="M99.9665662,345.562019 L227.281993,379.792956" id="Shape" stroke="#DEDEDD" stroke-width="0.418043" stroke-dasharray="2.090216"></path>
                <path d="M281.226043,175.625569 L206.911578,447.018649" id="Shape" stroke="#DEDEDD" stroke-width="0.418043" stroke-dasharray="2.090216"></path>
                <path d="M241.518022,320.637669 L375.579945,357.345623" id="Shape" stroke="#DEDEDD" stroke-width="0.418043" stroke-dasharray="2.090216"></path>
                <path d="M393.949872,291.162709 L356.907618,426.438881" id="Shape" stroke="#DEDEDD" stroke-width="0.418043" stroke-dasharray="2.090216"></path>
                <path d="M185.91277,599.095595 L178.838953,488.763046" id="Shape" stroke="#DEDEDD" stroke-width="0.418043" stroke-dasharray="2.090216"></path>
                <path d="M313.748922,591.073706 L305.545926,463.128889" id="Shape" stroke="#DEDEDD" stroke-width="0.418043" stroke-dasharray="2.090216"></path>
                <path d="M442.815607,581.197544 L435.222393,462.753383" id="Shape" stroke="#DEDEDD" stroke-width="0.418043" stroke-dasharray="2.090216"></path>
            </g>
            <g id="houses" transform="translate(66.000000, 54.000000)" stroke="#FFFFFF" fill="#C2C1C1" sketch:type="MSShapeGroup">
                <g id="_141595784" transform="translate(183.230202, 13.784456)" stroke-width="0.557391">
                    <path d="M2.19754576,37.878006 L25.2952039,4.14386749 L43.2171816,16.7070635 L20.1191911,50.4412021 L2.19754576,37.878006 Z" id="_141596552"></path>
                    <path d="M7.08345464,30.7417146 L25.2952039,4.14386749 L43.2171816,16.7070635 L25.0054323,43.3052429 L7.08345464,30.7417146 Z" id="_141597032"></path>
                    <path d="M55.6381502,30.351254 L43.8462386,22.2771923 L40.8212486,20.2062555 L43.2171816,16.7070635 L40.8770761,15.0667965 L29.112746,6.81993524 L33.0037279,1.26941249 L44.7956395,9.34347411 L50.7103707,0.705487624 L59.8890205,7.1392822 L54.0440738,15.6759151 L62.0722771,21.1729364 L55.6381502,30.351254 Z" id="_141596432"></path>
                    <path d="M40.8770761,15.0667965 L29.112746,6.81993524 L33.0037279,1.26941249 L44.7956395,9.34347411 L40.8770761,15.0667965 Z" id="_141596576"></path>
                </g>
                <g id="_141595544" transform="translate(272.953074, 116.799606)" stroke-width="0.557391">
                    <path d="M1.98387241,37.4396932 L25.0792044,3.70588695 L43.0038405,16.2690829 L19.9051854,50.0028892 L1.98387241,37.4396932 Z" id="_141595808"></path>
                    <path d="M6.86878436,30.3037341 L25.0792044,3.70588695 L43.0038405,16.2690829 L24.7900974,42.8669301 L6.86878436,30.3037341 Z" id="_141595904"></path>
                    <path d="M55.4221507,29.9132734 L43.6319006,21.8392118 L40.6079075,19.768275 L43.0038405,16.2690829 L40.6610766,14.6284836 L28.8974111,6.3819547 L32.7887253,0.831431953 L44.5822985,8.90549357 L50.4940389,0.267174776 L59.6723564,6.70130166 L53.8304005,15.2376022 L61.858936,20.7349559 L55.4221507,29.9132734 Z" id="_141595976"></path>
                    <path d="M40.6610766,14.6284836 L28.8974111,6.3819547 L32.7887253,0.831431953 L44.5822985,8.90549357 L40.6610766,14.6284836 Z" id="_141596840"></path>
                </g>
                <g id="_141611168" transform="translate(369.322086, 209.845548)" stroke-width="0.557391">
                    <path d="M0.0498460403,37.6467204 L23.1485011,3.91291417 L41.0698142,16.4761102 L17.9711591,50.2099164 L0.0498460403,37.6467204 Z" id="_141596096"></path>
                    <path d="M4.93808106,30.5107613 L23.1485011,3.91291417 L41.0698142,16.4761102 L22.8593941,43.0739573 L4.93808106,30.5107613 Z" id="_141595760"></path>
                    <path d="M53.4914474,30.1203006 L41.7011973,22.046239 L38.6738812,19.9753022 L41.0698142,16.4761102 L38.7303733,14.8358431 L26.9667078,6.58898192 L30.858022,1.03845917 L42.6482721,9.11252079 L48.5633356,0.474201997 L57.7416531,6.90832888 L51.8963741,15.4449617 L59.9249097,20.9419831 L53.4914474,30.1203006 Z" id="_141596288"></path>
                    <path d="M38.7303733,14.8358431 L26.9667078,6.58898192 L30.858022,1.03845917 L42.6482721,9.11252079 L38.7303733,14.8358431 Z" id="_141596048"></path>
                </g>
                <g id="_141611504" transform="translate(469.014166, 296.245352)" stroke-width="0.557391">
                    <path d="M1.07667447,36.2845943 L25.3018501,3.34965391 L42.7911641,16.5123316 L18.5626654,49.447272 L1.07667447,36.2845943 Z" id="_141611096"></path>
                    <path d="M6.20084742,29.3194409 L25.3018501,3.34965391 L42.7911641,16.5123316 L23.6901614,42.4787956 L6.20084742,29.3194409 Z" id="_141611312"></path>
                    <path d="M54.7409215,30.568915 L43.2298092,22.1017343 L40.2756006,19.9284469 L42.7911641,16.5123316 L40.5048924,14.7943048 L29.0270108,6.15432445 L33.1044169,0.737721397 L44.6155292,9.20822518 L50.8196997,0.77427516 L59.7753716,7.51345981 L53.6443086,15.8477178 L61.4834292,21.6132431 L54.7409215,30.568915 Z" id="_141611720"></path>
                    <path d="M40.5048924,14.7943048 L29.0270108,6.15432445 L33.1044169,0.737721397 L44.6155292,9.20822518 L40.5048924,14.7943048 Z" id="_141596192"></path>
                </g>
                <g id="_141610592" transform="translate(578.675455, 369.352877)" stroke-width="0.557391">
                    <path d="M0.674583079,37.6271143 L23.7732382,3.89131422 L41.6945512,16.4558394 L18.5958961,50.1883165 L0.674583079,37.6271143 Z" id="_141611648"></path>
                    <path d="M5.55949503,30.4891613 L23.7732382,3.89131422 L41.6945512,16.4558394 L23.4808081,43.0536866 L5.55949503,30.4891613 Z" id="_141611600"></path>
                    <path d="M54.1161845,30.1003622 L42.3226113,22.0253037 L39.2986182,19.9550315 L41.6945512,16.4558394 L39.3551104,14.8142432 L27.5881218,6.56638505 L31.479436,1.01685922 L43.2730091,9.09191776 L49.1880726,0.451937432 L58.3663902,6.88872277 L52.5211112,15.4223649 L60.5496467,20.9220447 L54.1161845,30.1003622 Z" id="_141611576"></path>
                    <path d="M39.3551104,14.8142432 L27.5881218,6.56638505 L31.479436,1.01685922 L43.2730091,9.09191776 L39.3551104,14.8142432 Z" id="_141610928"></path>
                </g>
                <g id="_141610856" transform="translate(698.305952, 425.845057)" stroke-width="0.557391">
                    <path d="M0.468552779,38.6306813 L24.6970514,5.69574087 L42.1830424,18.8584186 L17.9578668,51.793359 L0.468552779,38.6306813 Z" id="_141610640"></path>
                    <path d="M5.59604879,31.6622048 L24.6970514,5.69574087 L42.1830424,18.8584186 L23.0820397,44.8248825 L5.59604879,31.6622048 Z" id="_141610784"></path>
                    <path d="M54.1361229,32.915002 L42.6216876,24.4478212 L39.670802,22.2745339 L42.1830424,18.8584186 L39.9000937,17.1403917 L28.4188891,8.50041141 L32.4962952,3.08380836 L44.0107305,11.5543121 L50.211578,3.12036212 L59.1672499,9.85954678 L53.0361869,18.1938047 L60.8753075,23.9593301 L54.1361229,32.915002 Z" id="_141610232"></path>
                    <path d="M39.9000937,17.1403917 L28.4188891,8.50041141 L32.4962952,3.08380836 L44.0107305,11.5543121 L39.9000937,17.1403917 Z" id="_141611384"></path>
                </g>
                <g id="_141610280" transform="translate(53.630497, 173.291786)" stroke-width="0.557391">
                    <path d="M7.73377931,0.413389828 L47.2404216,10.9362212 L41.3745396,32.0220932 L1.86822959,21.4992618 L7.73377931,0.413389828 Z" id="_141610304"></path>
                    <path d="M16.0909664,2.63918168 L47.2404216,10.9362212 L41.3745396,32.0220932 L10.2250844,23.725386 L16.0909664,2.63918168 Z" id="_141610400"></path>
                    <path d="M32.6551379,48.2828685 L36.3334434,34.4728569 L37.2768628,30.9307973 L41.3745396,32.0220932 L42.1405071,29.268598 L45.9909476,15.4273495 L52.5214435,17.2440715 L48.843138,31.0540831 L58.959558,33.7484278 L55.9555033,44.5474062 L45.9583815,41.8846308 L43.4537841,51.2869232 L32.6551379,48.2828685 Z" id="_141610736"></path>
                    <path d="M42.1405071,29.268598 L45.9909476,15.4273495 L52.5214435,17.2440715 L48.843138,31.0540831 L42.1405071,29.268598 Z" id="_141610424"></path>
                </g>
                <g id="_141603080" transform="translate(166.614855, 113.476537)" stroke-width="0.557391">
                    <path d="M51.4859751,6.63783104 L40.6996242,46.0730274 L19.6532968,40.0669118 L30.4396476,0.631383178 L51.4859751,6.63783104 Z" id="_141610472"></path>
                    <path d="M49.2043556,14.979732 L40.6996242,46.0730274 L19.6532968,40.0669118 L28.1576959,8.97328418 L49.2043556,14.979732 Z" id="_141609872"></path>
                    <path d="M4.47584211,26.0405684 L22.1127004,31.0740215 L19.5486201,40.0579395 L1.95363247,35.2620858 L4.47584211,26.0405684 Z" id="_141609944"></path>
                </g>
                <g id="_141608792" transform="translate(256.337727, 342.768323)" stroke-width="0.557391">
                    <path d="M31.6322972,50.0919475 L42.3591651,10.6437911 L21.177921,5.13081908 L10.4477301,44.5822985 L31.6322972,50.0919475 Z" id="_141609560"></path>
                    <path d="M33.9019536,41.7477203 L42.3591651,10.6437911 L21.177921,5.13081908 L12.7173864,36.2380713 L33.9019536,41.7477203 Z" id="_141610016"></path>
                    <path d="M0.981302381,9.51062449 L18.732142,14.1263678 L21.0848751,5.08761918 L3.49021974,0.285783965 L0.981302381,9.51062449 Z" id="_141609656"></path>
                </g>
                <g id="_141608600" transform="translate(279.599213, 226.460895)" stroke-width="0.557391">
                    <path d="M51.218468,9.21520363 L40.4317848,48.6507323 L19.3867866,42.6442844 L30.1734697,3.20908808 L51.218468,9.21520363 Z" id="_141609368"></path>
                    <path d="M48.9388424,17.5574369 L40.4317848,48.6507323 L19.3867866,42.6442844 L27.8905211,11.5509891 L48.9388424,17.5574369 Z" id="_141609992"></path>
                    <path d="M4.21032887,28.6182733 L21.8458579,33.6517264 L19.2804484,42.6353121 L1.68811923,37.8394584 L4.21032887,28.6182733 Z" id="_141609800"></path>
                </g>
                <g id="_141609200" transform="translate(106.799606, 359.383669)" stroke-width="0.557391">
                    <path d="M31.4398915,52.4579728 L42.1690855,13.0098165 L20.9875091,7.49684447 L10.2586474,46.9483239 L31.4398915,52.4579728 Z" id="_141609152"></path>
                    <path d="M33.7095478,44.1137457 L42.1690855,13.0098165 L20.9875091,7.49684447 L12.5279715,38.6040967 L33.7095478,44.1137457 Z" id="_141608984"></path>
                    <path d="M0.7905582,11.8766499 L18.5407332,16.4923932 L20.893134,7.45364456 L3.29947556,2.65180935 L0.7905582,11.8766499 Z" id="_141608696"></path>
                </g>
                <g id="_141608120" transform="translate(372.645155, 312.860698)" stroke-width="0.557391">
                    <path d="M51.9462202,7.69290556 L41.159537,47.1277696 L20.1145388,41.1196602 L30.9012219,1.68479616 L51.9462202,7.69290556 Z" id="_141608840"></path>
                    <path d="M49.6632715,16.0338096 L41.159537,47.1277696 L20.1145388,41.1196602 L28.6182733,10.0290233 L49.6632715,16.0338096 Z" id="_141609128"></path>
                    <path d="M4.93475799,27.0963075 L22.5736101,32.1274345 L20.0082006,41.1130141 L2.41254835,36.3145019 L4.93475799,27.0963075 Z" id="_141609272"></path>
                </g>
                <g id="_141608144" transform="translate(73.568913, 439.137334)" stroke-width="0.557391">
                    <path d="M39.069991,2.1035029 L42.3020083,42.8609485 L20.4661195,44.3496836 L17.2341023,3.59556104 L39.069991,2.1035029 Z" id="_141608048"></path>
                    <path d="M39.7538787,10.7268679 L42.3020083,42.8609485 L20.4661195,44.3496836 L17.91799,12.2156029 L39.7538787,10.7268679 Z" id="_141608288"></path>
                    <path d="M2.22977954,41.54169 L16.4764425,40.4118464 L20.1308218,40.1227394 L20.4661195,44.3496836 L23.3173131,44.1569456 L37.6507081,43.1799632 L38.1119501,49.9424093 L23.8656195,51.0722529 L24.6930638,61.5066907 L13.5099385,62.2709966 L12.6921311,51.9561894 L2.99275626,52.7271415 L2.22977954,41.54169 Z" id="_141607856"></path>
                    <path d="M23.3173131,44.1569456 L37.6507081,43.1799632 L38.1119501,49.9424093 L23.8656195,51.0722529 L23.3173131,44.1569456 Z" id="_141609104"></path>
                </g>
                <g id="_141607760" transform="translate(199.845548, 409.229710)" stroke-width="0.557391">
                    <path d="M39.1889569,2.45242518 L41.902243,43.2431015 L20.0490743,44.4560218 L17.3357882,3.66202243 L39.1889569,2.45242518 Z" id="_141608504"></path>
                    <path d="M39.762851,11.0791132 L41.902243,43.2431015 L20.0490743,44.4560218 L17.9096823,12.2920335 L39.762851,11.0791132 Z" id="_141608240"></path>
                    <path d="M1.84995271,41.4187364 L16.1099079,40.4683386 L19.7676104,40.2257545 L20.0490743,44.4560218 L22.902594,44.2998376 L37.2472875,43.5023009 L37.6227943,50.2713932 L23.3628391,51.218468 L24.0576929,61.666198 L12.8659276,62.287612 L12.1793815,51.9628355 L2.47070207,52.607511 L1.84995271,41.4187364 Z" id="_141607928"></path>
                    <path d="M22.902594,44.2998376 L37.2472875,43.5023009 L37.6227943,50.2713932 L23.3628391,51.218468 L22.902594,44.2998376 Z" id="_141608432"></path>
                </g>
                <g id="_141607112" transform="translate(329.445253, 415.875848)" stroke-width="0.557391">
                    <path d="M39.7804633,1.93734943 L42.3957188,42.7346719 L20.5398917,43.8944231 L17.9246361,3.09710064 L39.7804633,1.93734943 Z" id="_141607616"></path>
                    <path d="M40.3354158,10.5673605 L42.3957188,42.7346719 L20.5398917,43.8944231 L18.4795887,11.7271118 L40.3354158,10.5673605 Z" id="_141607064"></path>
                    <path d="M2.34941003,40.8139378 L16.6120237,39.9000937 L20.2707231,39.6641558 L20.5398917,43.8944231 L23.3944083,43.744885 L37.7400987,42.9839021 L38.0989902,49.7529944 L23.8396996,50.6668385 L24.5076365,61.1145685 L13.3155389,61.7093979 L12.6542481,51.3846214 L2.94423945,52.0060354 L2.34941003,40.8139378 Z" id="_141607520"></path>
                    <path d="M23.3944083,43.744885 L37.7400987,42.9839021 L38.0989902,49.7529944 L23.8396996,50.6668385 L23.3944083,43.744885 Z" id="_141607496"></path>
                </g>
                <g id="_141606968" transform="translate(372.645155, 479.014166)" stroke-width="0.557391">
                    <path d="M4.55260502,62.8691491 L1.92073409,22.0685036 L23.7765612,20.9021062 L26.4084322,61.6994287 L4.55260502,62.8691491 Z" id="_141607568"></path>
                    <path d="M3.99432937,54.239138 L1.92073409,22.0685036 L23.7765612,20.9021062 L25.8501565,53.0694176 L3.99432937,54.239138 Z" id="_141607256"></path>
                    <path d="M41.9670429,23.9759454 L27.7077523,24.8964356 L24.0490529,25.1323735 L23.7765612,20.9021062 L20.9220447,21.0549674 L6.57635425,21.8192734 L6.21413969,15.0501811 L20.4734303,14.133014 L19.8021703,3.68528392 L30.9942679,3.08713143 L31.6588817,13.4085848 L41.3688904,12.7838478 L41.9670429,23.9759454 Z" id="_141607184"></path>
                    <path d="M20.9220447,21.0549674 L6.57635425,21.8192734 L6.21413969,15.0501811 L20.4734303,14.133014 L20.9220447,21.0549674 Z" id="_141607232"></path>
                </g>
                <g id="_141605840" transform="translate(0.461387, 572.060108)" stroke-width="0.557391">
                    <path d="M2.47834513,3.88799115 L5.40796307,44.6653752 L27.2199257,42.8576255 L24.2903078,2.08024142 L2.47834513,3.88799115 Z" id="_141606488"></path>
                    <path d="M3.09809756,12.5146792 L5.40796307,44.6653752 L27.2199257,42.8576255 L24.9100602,10.7036064 L3.09809756,12.5146792 Z" id="_141607040"></path>
                    <path d="M44.8268764,37.3413303 L30.5722381,38.3648357 L26.9161972,38.6273582 L27.2199257,42.8576255 L24.371723,43.0935634 L10.0539463,44.2798992 L10.6142158,51.0356992 L24.8688541,50.0121938 L25.6188709,60.4532777 L36.7897008,59.5294644 L36.0483241,49.208011 L45.7533481,48.5101664 L44.8268764,37.3413303 Z" id="_141606584"></path>
                    <path d="M24.371723,43.0935634 L10.0539463,44.2798992 L10.6142158,51.0356992 L24.8688541,50.0121938 L24.371723,43.0935634 Z" id="_141606728"></path>
                </g>
                <g id="_141605936" transform="translate(153.322577, 562.090900)" stroke-width="0.557391">
                    <path d="M2.70398153,2.77808598 L6.2526873,43.505624 L28.0347423,41.3655673 L24.4857042,0.638029316 L2.70398153,2.77808598 Z" id="_141606440"></path>
                    <path d="M3.4546629,11.3914817 L6.2526873,43.505624 L28.0347423,41.3655673 L25.2363856,9.25474815 L3.4546629,11.3914817 Z" id="_141606320"></path>
                    <path d="M45.5559578,35.5834267 L31.3185994,36.8229315 L27.6665462,37.1419462 L28.0347423,41.3655673 L25.1905272,41.6447052 L10.8923567,43.0503635 L11.5553091,49.7961943 L25.7926674,48.5566894 L26.7011946,58.9844811 L37.8567384,57.8911912 L36.9585128,47.5830301 L46.6519061,46.7389705 L45.5559578,35.5834267 Z" id="_141606536"></path>
                    <path d="M25.1905272,41.6447052 L10.8923567,43.0503635 L11.5553091,49.7961943 L25.7926674,48.5566894 L25.1905272,41.6447052 Z" id="_141606464"></path>
                </g>
                <g id="_141606104" transform="translate(326.122184, 548.798623)" stroke-width="0.557391">
                    <path d="M1.06005912,4.95801948 L4.4030669,45.7054959 L26.1957557,43.6751005 L22.852748,2.9276241 L1.06005912,4.95801948 Z" id="_141605720"></path>
                    <path d="M1.7678729,13.5780614 L4.4030669,45.7054959 L26.1957557,43.6751005 L23.5572387,11.547666 L1.7678729,13.5780614 Z" id="_141606176"></path>
                    <path d="M43.744885,37.9793597 L29.5022097,39.1490801 L25.8468334,39.4481563 L26.1957557,43.6751005 L23.3512084,43.9409461 L9.04539479,45.2734969 L9.67345489,52.0226508 L23.9161301,50.8529303 L24.773482,61.2873681 L35.9323489,60.2472474 L35.0882893,49.9357632 L44.7850057,49.1415496 L43.744885,37.9793597 Z" id="_141605552"></path>
                    <path d="M23.3512084,43.9409461 L9.04539479,45.2734969 L9.67345489,52.0226508 L23.9161301,50.8529303 L23.3512084,43.9409461 Z" id="_141605816"></path>
                </g>
                <g id="_141604928" transform="translate(641.813773, 538.829415)" stroke-width="0.557391">
                    <path d="M63.3111174,17.7119597 L33.3702625,45.5526347 L18.6424191,29.3626408 L48.583274,1.52196576 L63.3111174,17.7119597 Z" id="_141604976"></path>
                    <path d="M56.9773472,23.6004386 L33.3702625,45.5526347 L18.6424191,29.3626408 L42.2495038,7.41044466 L56.9773472,23.6004386 Z" id="_141605312"></path>
                    <path d="M9.5205937,13.3255081 L19.2538638,23.7898535 L21.7494889,26.4748936 L18.6424191,29.3626408 L20.5664762,31.4761129 L30.233285,42.1032887 L25.2187733,46.665863 L15.4888263,36.2015176 L7.82250526,43.3295013 L0.279137826,35.0384433 L7.85573596,27.9935362 L1.22953566,20.8688756 L9.5205937,13.3255081 Z" id="_141606200"></path>
                    <path d="M20.5664762,31.4761129 L30.233285,42.1032887 L25.2187733,46.665863 L15.4888263,36.2015176 L20.5664762,31.4761129 Z" id="_141605912"></path>
                </g>
                <g id="_141604232" transform="translate(771.413478, 791.382686)" stroke-width="0.557391">
                    <path d="M0.0232614855,21.4138589 L36.7664393,39.3451412 L46.1474641,19.5728785 L9.40760934,1.64159626 L0.0232614855,21.4138589 Z" id="_141605000"></path>
                    <path d="M7.79592071,25.2088041 L36.7664393,39.3451412 L46.1474641,19.5728785 L17.1769455,5.4332184 L7.79592071,25.2088041 Z" id="_141605336"></path>
                    <path d="M50.211578,1.57513487 L43.9442692,14.4187979 L42.3359036,17.7119597 L46.1474641,19.5728785 L44.9212515,22.1549034 L38.763604,35.1348123 L44.8880209,38.0391749 L51.1553297,25.1955119 L60.5662621,29.7879937 L65.3714204,19.6626014 L56.0734723,15.1232886 L60.3402934,6.38029316 L50.211578,1.57513487 Z" id="_141605456"></path>
                    <path d="M44.9212515,22.1549034 L38.763604,35.1348123 L44.8880209,38.0391749 L51.1553297,25.1955119 L44.9212515,22.1549034 Z" id="_141605360"></path>
                </g>
                <g id="_141604184" transform="translate(262.983866, 30.399803)" stroke-width="0.278696">
                    <path d="M20.1876463,46.3209284 L15.3924573,53.4286414 L30.8281144,64.3243212 L50.8030843,36.933922 L41.5715976,30.275488 L35.9157336,38.3681588 L43.3893166,43.5923561 L35.8226876,53.5801734 L27.3455377,50.4023221 L20.1876463,46.3209284 Z" id="_141604376"></path>
                    <path d="M9.99579262,13.729261 L23.1086243,23.3143223 L20.1909694,27.37611 L6.94189188,18.0738419 L9.99579262,13.729261 Z" id="_141604304"></path>
                    <path d="M34.4602292,0.161168864 L53.37514,13.7807686 L35.9157336,38.3681588 L20.1909694,27.37611 L23.1086243,23.3143223 L13.8771376,16.6558882 L17.3597143,11.6619796 L23.2614855,15.5964937 L34.4602292,0.161168864 Z" id="_141604784"></path>
                    <path d="M10.7002833,20.741602 L43.3893166,43.5923561 L35.8226876,53.5801734 L27.3455377,50.4023221 L11.1555438,41.1711678 L3.28551867,31.1833505 L10.7002833,20.741602 Z" id="_141605216"></path>
                </g>
                <g id="_141603416" transform="translate(771.413478, 375.999016)" stroke-width="0.278696">
                    <path d="M19.1608179,48.7228429 L14.3623058,55.8308882 L29.7979629,66.7272327 L49.7729328,39.335172 L40.5447692,32.675741 L34.8855821,40.7707379 L42.3591651,45.9946029 L34.7925361,55.9804264 L26.3187093,52.8035721 L19.1608179,48.7228429 Z" id="_141604208"></path>
                    <path d="M8.96896419,16.1301787 L22.0817959,25.7172337 L19.1608179,29.7780245 L5.91506345,20.4767534 L8.96896419,16.1301787 Z" id="_141604640"></path>
                    <path d="M33.4300777,2.56208647 L52.3483116,16.1833478 L34.8855821,40.7707379 L19.1608179,29.7780245 L22.0817959,25.7172337 L12.8503092,19.0578028 L16.3295628,14.0632295 L22.231334,17.9977436 L33.4300777,2.56208647 Z" id="_141604520"></path>
                    <path d="M9.67345489,23.141855 L42.3591651,45.9946029 L34.7925361,55.9804264 L26.3187093,52.8035721 L10.1253923,43.5720854 L2.25636409,33.586262 L9.67345489,23.141855 Z" id="_141603992"></path>
                </g>
                <g id="_141603248" transform="translate(874.428628, 445.783473)" stroke-width="0.278696">
                    <path d="M18.735465,48.1811826 L14.6048898,55.6979655 L30.9710064,65.1421286 L48.3672745,36.0486564 L38.570866,30.2565465 L33.6726618,38.8300654 L41.5915361,43.3527628 L34.9653358,53.9865847 L26.2356326,51.5939748 L18.735465,48.1811826 Z" id="_141603440"></path>
                    <path d="M5.61931028,16.6519005 L19.549617,25.0060969 L17.0141151,29.3161179 L2.97414707,21.2576747 L5.61931028,16.6519005 Z" id="_141603536"></path>
                    <path d="M28.7445499,0.913844073 L48.822535,12.7572633 L33.6726618,38.8300654 L17.0141151,29.3161179 L19.549617,25.0060969 L9.75320856,19.213987 L12.7639094,13.9236606 L18.9979875,17.3065452 L28.7445499,0.913844073 Z" id="_141603824"></path>
                    <path d="M6.95850723,23.573854 L41.5915361,43.3527628 L34.9653358,53.9865847 L26.2356326,51.5939748 L9.2713635,43.8744847 L0.525044958,34.6463211 L6.95850723,23.573854 Z" id="_141604088"></path>
                </g>
                <g id="_141602984" transform="translate(106.799606, 83.568913)" stroke-width="0.278696">
                    <path d="M15.2489007,24.1221604 L6.9043412,22.1489219 L2.1706289,40.4400925 L34.8546775,49.4399613 L37.8188554,38.4505709 L28.248748,36.0204103 L26.0043469,44.8581132 L13.9864666,41.3120659 L13.9625405,32.2613542 L15.2489007,24.1221604 Z" id="_141603584"></path>
                    <path d="M42.1315348,3.06553148 L37.8022401,18.7198466 L32.9708295,17.4261757 L36.9877558,1.7442791 L42.1315348,3.06553148 Z" id="_141603608"></path>
                    <path d="M63.4729508,21.1493426 L57.4219738,43.6591498 L28.248748,36.0204103 L32.9708295,17.4261757 L37.8022401,18.7198466 L40.7664179,7.73078855 L46.6685214,9.22052054 L45.0747773,16.1325048 L63.4729508,21.1493426 Z" id="_141603680"></path>
                    <path d="M35.8206938,6.20284126 L26.0043469,44.8581132 L13.9864666,41.3120659 L13.9625405,32.2613542 L16.8715554,13.8512177 L23.4316266,2.95886095 L35.8206938,6.20284126 Z" id="_141603896"></path>
                </g>
                <g id="_141602888" transform="translate(93.507329, 213.168618)" stroke-width="0.278696">
                    <path d="M23.3794544,49.5290195 L21.3746467,57.8659359 L39.6475405,62.669765 L48.7720243,30.0199439 L37.7942647,27.0138954 L35.3275503,36.5746982 L44.156281,38.8526623 L40.5647076,50.856918 L31.5139959,50.8462842 L23.3794544,49.5290195 Z" id="_141602840"></path>
                    <path d="M2.42550832,22.5659671 L18.0635404,26.9550771 L16.7512603,31.7818353 L1.08464984,27.7050938 L2.42550832,22.5659671 Z" id="_141603152"></path>
                    <path d="M20.591067,1.29400321 L43.0776127,7.43104769 L35.3275503,36.5746982 L16.7512603,31.7818353 L18.0635404,26.9550771 L7.08578079,23.9490285 L8.59810965,18.0529066 L15.5037801,19.6725706 L20.591067,1.29400321 Z" id="_141602504"></path>
                    <path d="M5.538892,28.8887711 L44.156281,38.8526623 L40.5647076,50.856918 L31.5139959,50.8462842 L13.1148255,47.8668202 L2.24772411,41.2655429 L5.538892,28.8887711 Z" id="_141603656"></path>
                </g>
                <g id="_139065848" transform="translate(218.460895, 217.491687)" stroke-width="0.278696">
                    <path d="M13.5393369,23.3757106 L5.18480825,21.4453397 L0.544141898,39.7601041 L33.2737166,48.5934871 L36.1820669,37.5894752 L26.5996641,35.2078314 L24.4001245,44.0568328 L12.3642996,40.5722622 L12.2945151,31.5218829 L13.5393369,23.3757106 Z" id="_141602456"></path>
                    <path d="M40.3146359,2.18283583 L36.0647625,17.8590832 L31.2270382,16.5896707 L35.1638784,0.887835701 L40.3146359,2.18283583 Z" id="_141602792"></path>
                    <path d="M61.7464394,20.1576503 L55.8114376,42.698362 L26.5996641,35.2078314 L31.2270382,16.5896707 L36.0647625,17.8590832 L38.9731128,6.85473904 L44.8825271,8.3145634 L43.3243399,15.234523 L61.7464394,20.1576503 Z" id="_141602624"></path>
                    <path d="M34.0197457,5.35237938 L24.4001245,44.0568328 L12.3642996,40.5722622 L12.2945151,31.5218829 L15.1098195,13.0967925 L21.6143955,2.17120509 L34.0197457,5.35237938 Z" id="_141602936"></path>
                </g>
                <g id="_139065512" transform="translate(316.152976, 289.599213)" stroke-width="0.278696">
                    <path d="M13.9037222,22.5137949 L5.54952582,20.5830916 L0.910521003,38.8965268 L33.6394311,47.7292451 L36.5471168,36.7265625 L26.9667078,34.3439218 L24.7668359,43.1932555 L12.7306787,39.7073557 L12.6608942,30.6586379 L13.9037222,22.5137949 Z" id="_139065992"></path>
                    <path d="M40.681015,1.31925853 L36.4308093,16.9941767 L31.5924204,15.7247642 L35.5302575,0.0232614855 L40.681015,1.31925853 Z" id="_139066928"></path>
                    <path d="M62.1148124,19.2937407 L56.1764875,41.8341201 L26.9667078,34.3439218 L31.5924204,15.7247642 L36.4308093,16.9941767 L39.338495,5.99149405 L45.2469123,7.45032149 L43.6883928,14.372275 L62.1148124,19.2937407 Z" id="_139067048"></path>
                    <path d="M34.3871217,4.4894667 L24.7668359,43.1932555 L12.7306787,39.7073557 L12.6608942,30.6586379 L15.475534,12.2322183 L21.9787807,1.30928933 L34.3871217,4.4894667 Z" id="_139066352"></path>
                </g>
                <g id="_139061768" transform="translate(425.814265, 445.783473)" stroke-width="0.278696">
                    <path d="M31.4960513,46.8519548 L32.3999262,55.3789508 L51.2251141,53.7872006 L48.8889964,19.9683238 L37.5373914,20.8123834 L38.4146817,30.6453456 L47.4999534,29.8345167 L48.1346596,42.3491959 L39.6043406,45.3698659 L31.4960513,46.8519548 Z" id="_139065008"></path>
                    <path d="M2.7215938,28.4654121 L18.928203,27.3621531 L19.307033,32.3500802 L3.18017737,33.7557385 L2.7215938,28.4654121 Z" id="_139065416"></path>
                    <path d="M12.7140634,2.33944083 L35.9589335,0.588183276 L38.4146817,30.6453456 L19.307033,32.3500802 L18.928203,27.3621531 L7.57659813,28.2062127 L7.02829169,22.1449342 L14.0765218,21.3606898 L12.7140634,2.33944083 Z" id="_139065752"></path>
                    <path d="M7.77265922,33.3802317 L47.4999534,29.8345167 L48.1346596,42.3491959 L39.6043406,45.3698659 L21.2676439,48.726166 L8.81942607,46.1441411 L7.77265922,33.3802317 Z" id="_139065560"></path>
                </g>
                <g id="_139057952" transform="translate(262.983866, 435.814265)" stroke-width="0.278696">
                    <path d="M30.1635005,47.7458605 L31.0673754,56.2728565 L49.8925633,54.6811062 L47.5564455,20.8589063 L36.2048406,21.702966 L37.085454,31.5392513 L46.1674026,30.7284223 L46.8021088,43.2431015 L38.2717898,46.2637716 L30.1635005,47.7458605 Z" id="_139061792"></path>
                    <path d="M1.39070453,29.3593178 L17.5956522,28.2560587 L17.9744821,33.2439858 L1.84829118,34.6496442 L1.39070453,29.3593178 Z" id="_139061840"></path>
                    <path d="M11.3815125,3.23002341 L34.6263827,1.48208893 L37.085454,31.5392513 L17.9744821,33.2439858 L17.5956522,28.2560587 L6.24404732,29.1001183 L5.69574087,23.0388398 L12.743971,22.2512724 L11.3815125,3.23002341 Z" id="_139062944"></path>
                    <path d="M6.44010841,34.2741373 L46.1674026,30.7284223 L46.8021088,43.2431015 L38.2717898,46.2637716 L19.9350931,49.6167485 L7.48687526,47.0380467 L6.44010841,34.2741373 Z" id="_139064192"></path>
                </g>
                <g id="_141425648" transform="translate(140.030300, 445.783473)" stroke-width="0.278696">
                    <path d="M28.7834298,48.5998893 L29.6866401,57.1268853 L48.5128249,55.531812 L46.1757102,21.7129352 L34.8251022,22.5569948 L35.7027248,32.3932801 L44.7850057,31.5824512 L45.4210412,44.0971303 L36.8893929,47.1178004 L28.7834298,48.5998893 Z" id="_139057976"></path>
                    <path d="M0.00930459419,30.2100235 L16.2142523,29.1100876 L16.5940791,34.0980147 L0.467223551,35.503673 L0.00930459419,30.2100235 Z" id="_139061168"></path>
                    <path d="M10.0014418,4.08405224 L33.2446504,2.33611776 L35.7027248,32.3932801 L16.5940791,34.0980147 L16.2142523,29.1100876 L4.86364431,29.9541472 L4.31400864,23.8928687 L11.3632357,23.1053012 L10.0014418,4.08405224 Z" id="_139061360"></path>
                    <path d="M5.06037001,35.1281662 L44.7850057,31.5824512 L45.4210412,44.0971303 L36.8893929,47.1178004 L18.5550224,50.4707774 L6.10447841,47.8920755 L5.06037001,35.1281662 Z" id="_139062248"></path>
                </g>
                <g id="_141426368" transform="translate(10.430595, 488.983374)" stroke-width="0.278696">
                    <path d="M29.3417055,46.8353395 L30.2449157,55.3623355 L49.0714329,53.7672622 L46.7339859,19.9483853 L35.3833779,20.792445 L36.2613328,30.6287302 L45.3432814,29.8179013 L45.9793168,42.3325805 L37.4476686,45.3532506 L29.3417055,46.8353395 Z" id="_141425672"></path>
                    <path d="M0.567912553,28.4454737 L16.772528,27.3455377 L17.1526871,32.3334648 L1.0254992,33.7391232 L0.567912553,28.4454737 Z" id="_141425720"></path>
                    <path d="M10.5597175,2.31950241 L33.8032584,0.571567929 L36.2613328,30.6287302 L17.1526871,32.3334648 L16.772528,27.3455377 L5.42191996,28.1895973 L4.87228429,22.1283188 L11.9218436,21.3407514 L10.5597175,2.31950241 Z" id="_141425888"></path>
                    <path d="M5.61897797,33.3636163 L45.3432814,29.8179013 L45.9793168,42.3325805 L37.4476686,45.3532506 L19.1136303,48.7062275 L6.66308636,46.1275257 L5.61897797,33.3636163 Z" id="_139055144"></path>
                </g>
                <g id="_141420968" transform="translate(369.322086, 80.245844)" stroke-width="0.278696">
                    <path d="M15.7247642,50.7037245 L49.7031483,39.6767835 L56.970701,61.7163764 L23.1551473,73.2760054 L15.7247642,50.7037245 Z" id="_141426176"></path>
                    <path d="M3.1768543,50.8263458 L29.4922405,42.2857252 L30.6885455,45.8477233 L15.7247642,50.7037245 L23.1551473,73.2760054 L42.4256265,66.8485247 L44.7152212,73.8140104 L14.1562755,84.2338266 L3.1768543,50.8263458 Z" id="_141425912"></path>
                    <path d="M42.8011333,37.5566652 L66.936586,5.4239138 L87.4366009,20.9150662 L73.0011876,40.0915025 L68.1495063,36.6750549 L54.5780911,54.4607867 L49.7031483,39.6767835 L46.7954627,40.6208675 L42.8011333,37.5566652 Z" id="_141426152"></path>
                    <path d="M66.936586,5.4239138 L68.8407048,2.87246115 L87.0743863,16.8250325 L85.240052,19.2548608 L66.936586,5.4239138 Z" id="_141426272"></path>
                </g>
                <g id="_141420320" transform="translate(678.367536, 332.799115)" stroke-width="0.278696">
                    <path d="M14.611536,49.7230868 L48.5899201,38.6971426 L55.8541497,60.7357386 L22.041919,72.2966969 L14.611536,49.7230868 Z" id="_141420992"></path>
                    <path d="M2.060303,49.8460403 L28.3790123,41.3057521 L29.5719942,44.8680824 L14.611536,49.7230868 L22.041919,72.2966969 L41.3090752,65.8698808 L43.601993,72.8350341 L13.0430472,83.2528566 L2.060303,49.8460403 Z" id="_141425144"></path>
                    <path d="M41.6879051,36.5770244 L65.8233578,4.44294373 L86.3233726,19.9350931 L71.8846363,39.1125263 L67.0362781,35.696411 L53.4615398,53.4814782 L48.5899201,38.6971426 L45.6822344,39.6408943 L41.6879051,36.5770244 Z" id="_141425456"></path>
                    <path d="M65.8233578,4.44294373 L67.7274765,1.89414953 L85.9611581,15.8443947 L84.1235007,18.2735584 L65.8233578,4.44294373 Z" id="_141426248"></path>
                </g>
                <g id="_141419480" transform="translate(186.553271, 302.891490)" stroke-width="0.278696">
                    <path d="M24.1803142,38.6040967 L57.7712284,26.448309 L49.9746431,4.58915878 L16.1870031,16.2265477 L24.1803142,38.6040967 Z" id="_141420944"></path>
                    <path d="M14.1994754,46.2139255 L40.2161176,36.796347 L38.9726251,33.250632 L24.1803142,38.6040967 L16.1870031,16.2265477 L35.343501,9.46742459 L32.8761221,2.56208647 L2.35638848,13.0995394 L14.1994754,46.2139255 Z" id="_141420536"></path>
                    <path d="M53.6253671,32.3567263 L92.4045896,42.9041484 L99.0739898,18.0907896 L75.9052179,11.8168346 L74.1748957,17.4926371 L52.5413819,11.786927 L57.7712284,26.448309 L54.8961088,27.4884297 L53.6253671,32.3567263 Z" id="_141420560"></path>
                    <path d="M92.4045896,42.9041484 L95.4751056,43.7482081 L101.300446,21.5401356 L98.3595298,20.7492451 L92.4045896,42.9041484 Z" id="_141420752"></path>
                </g>
                <g id="_141419984" transform="translate(37.015150, 326.152976)" stroke-width="0.278696">
                    <path d="M22.453315,36.3842864 L56.0445616,24.2251756 L48.2479763,2.36934845 L14.4603363,14.0034143 L22.453315,36.3842864 Z" id="_141419552"></path>
                    <path d="M12.4724762,43.9907921 L38.4894508,34.5765366 L37.2459583,31.0308216 L22.453315,36.3842864 L14.4603363,14.0034143 L33.6165019,7.24761426 L31.1491229,0.342276144 L0.629389336,10.8797291 L12.4724762,43.9907921 Z" id="_141420824"></path>
                    <path d="M51.898368,30.136916 L90.6775904,40.6843381 L97.3476552,15.8709792 L74.1782188,9.5970243 L72.4478965,15.2695037 L50.814715,9.5637936 L56.0445616,24.2251756 L53.1691097,25.2652963 L51.898368,30.136916 Z" id="_141420296"></path>
                    <path d="M90.6775904,40.6843381 L93.7471096,41.5283977 L99.5734471,19.3203252 L96.6325307,18.5294347 L90.6775904,40.6843381 Z" id="_141420632"></path>
                </g>
                <g id="_141418904" transform="translate(538.798623, 485.660305)" stroke-width="0.278696">
                    <path d="M12.6243405,33.8853382 L47.7126298,40.5946152 L52.1755119,17.821621 L17.1835916,10.5640375 L12.6243405,33.8853382 Z" id="_141420008"></path>
                    <path d="M0.15618426,35.3275503 L27.3322454,40.5248308 L28.076613,36.8395469 L12.6243405,33.8853382 L17.1835916,10.5640375 L37.1053924,14.5417515 L38.5110508,7.34398328 L6.88872277,0.814151992 L0.15618426,35.3275503 Z" id="_141419696"></path>
                    <path d="M41.1263063,43.5587931 L69.0799658,72.4329427 L87.4864469,54.5083066 L70.7747311,37.2815151 L66.3882796,41.2758445 L50.7033922,25.3184654 L47.7126298,40.5946152 L44.7085751,40.0197242 L41.1263063,43.5587931 Z" id="_141419840"></path>
                    <path d="M69.0799658,72.4329427 L71.2864838,74.7291837 L87.6393081,58.6122973 L85.5158668,56.4290407 L69.0799658,72.4329427 Z" id="_141420128"></path>
                </g>
                <g id="_141419192" transform="translate(821.259518, 628.552287)" stroke-width="0.278696">
                    <path d="M77.4109006,39.9665551 L45.4097427,24.0955759 L55.6248579,3.25660797 L87.8818922,18.6357729 L77.4109006,39.9665551 Z" id="_141419312"></path>
                    <path d="M86.4695877,48.6530584 L61.6828134,36.3610249 L63.3177635,32.9781403 L77.4109006,39.9665551 L87.8818922,18.6357729 L69.6116569,9.75653163 L72.8416803,3.1768543 L101.978352,17.0938688 L86.4695877,48.6530584 Z" id="_141418760"></path>
                    <path d="M48.8624118,30.4359922 L9.13844073,36.5338245 L5.3135879,11.1256362 L29.0436262,7.51013674 L30.1236237,13.3421235 L52.2619118,10.1187462 L45.4097427,24.0955759 L48.1479519,25.4547113 L48.8624118,30.4359922 Z" id="_141419864"></path>
                    <path d="M9.13844073,36.5338245 L5.99481712,37.0256388 L2.71162459,14.3024905 L5.7256485,13.8505531 L9.13844073,36.5338245 Z" id="_141419744"></path>
                </g>
                <g id="_141418376" transform="translate(422.491195, 562.090900)" stroke-width="0.278696">
                    <path d="M29.9275626,48.1346596 L30.1801159,56.7048555 L49.0750882,56.5420251 L49.30438,22.6433946 L37.9228675,22.6267792 L38.0524672,32.4996183 L47.1709695,32.3766647 L46.858601,44.9046362 L38.1222516,47.2706616 L29.9275626,48.1346596 Z" id="_141419024"></path>
                    <path d="M2.62854786,27.6213525 L18.8683878,27.7509522 L18.8717109,32.7521716 L2.68504004,32.9316173 L2.62854786,27.6213525 Z" id="_141419360"></path>
                    <path d="M14.5716591,2.32614855 L37.8796676,2.3427639 L38.0524672,32.4996183 L18.8717109,32.7521716 L18.8683878,27.7509522 L7.48687526,27.7310138 L7.40047545,21.6464738 L14.4885824,21.3939205 L14.5716591,2.32614855 Z" id="_141419240"></path>
                    <path d="M7.29413723,32.9050328 L47.1709695,32.3766647 L46.858601,44.9046362 L38.1222516,47.2706616 L19.5861708,49.2279494 L7.36724476,45.708819 L7.29413723,32.9050328 Z" id="_141419144"></path>
                </g>
                <g id="_141418640" transform="translate(668.398328, 595.321594)" stroke-width="0.278696">
                    <path d="M36.5537629,80.5678165 L33.8587537,44.944513 L56.9906394,43.0869173 L60.2406013,78.673667 L36.5537629,80.5678165 Z" id="_141418496"></path>
                    <path d="M33.7092155,92.7900656 L31.622328,65.2019438 L35.3674271,64.8796061 L36.5537629,80.5678165 L60.2406013,78.673667 L58.5425128,58.4328515 L65.8532654,57.8513144 L68.7642742,90.0053335 L33.7092155,92.7900656 Z" id="_141418256"></path>
                    <path d="M30.1701467,51.1520066 L4.63900482,20.1145388 L24.530898,3.85143738 L39.7605248,22.4074567 L35.2943196,26.3120632 L49.3741645,43.698362 L33.8587537,44.944513 L34.0880454,47.9950907 L30.1701467,51.1520066 Z" id="_141419336"></path>
                    <path d="M4.63900482,20.1145388 L2.61193251,17.6621136 L20.4734303,3.23666955 L22.4008105,5.59272572 L4.63900482,20.1145388 Z" id="_141418952"></path>
                </g>
                <g id="_141417344" transform="translate(708.275160, 645.167634)" stroke-width="0.557391">
                    <path d="M54.6445525,2.85783965 L14.6946127,11.5443429 L19.5795246,32.8784482 L59.5294644,24.1919449 L54.6445525,2.85783965 Z" id="_141418040"></path>
                    <path d="M46.1939871,4.695497 L14.6946127,11.5443429 L19.5795246,32.8784482 L51.0788991,26.0296023 L46.1939871,4.695497 Z" id="_141418688"></path>
                    <path d="M27.5415988,49.5237026 L24.5043134,35.5601652 L23.7233921,31.9778964 L19.5795246,32.8784482 L18.9414953,30.0937161 L15.7347334,16.0903018 L9.12847152,17.6022984 L12.1657569,31.5658358 L1.93402636,33.7922923 L4.43629759,44.7185443 L14.5450746,42.5186724 L16.6153468,52.0259738 L27.5415988,49.5237026 Z" id="_141418400"></path>
                    <path d="M18.9414953,30.0937161 L15.7347334,16.0903018 L9.12847152,17.6022984 L12.1657569,31.5658358 L18.9414953,30.0937161 Z" id="_141418184"></path>
                </g>
                <g id="_141417920" transform="translate(488.952582, 173.291786)" stroke-width="0.557391">
                    <path d="M11.5310507,56.8304675 L40.6743689,20.4401996 L58.78842,30.9949325 L27.4419067,69.748235 L11.5310507,56.8304675 Z" id="_141417440"></path>
                    <path d="M3.81156055,14.2961767 L19.2472177,0.905868706 L38.474497,23.1863841 L25.4314498,39.4707532 L3.81156055,14.2961767 Z" id="_141417656"></path>
                    <path d="M21.9222885,65.2687375 L18.1472817,68.8028218 L9.48071687,58.8781428 L11.5310507,56.8304675 L0.0299076242,47.693356 L13.4185541,31.3099595 L1.6050425,17.2892652 L4.35322086,14.9285568 L25.4314498,39.4707532 L11.5310507,56.8304675 L21.9222885,65.2687375 Z" id="_141417752"></path>
                    <path d="M32.7920484,16.5997284 L35.6332727,13.8236362 L49.733056,25.717566 L40.6743689,20.4401996 L38.474497,23.1863841 L32.7920484,16.5997284 Z" id="_141418136"></path>
                </g>
                <g id="_141416864" transform="translate(595.290802, 253.045450)" stroke-width="0.557391">
                    <path d="M13.8804607,57.9011604 L43.0237789,21.5098956 L61.1411531,32.0642962 L29.7913168,70.817931 L13.8804607,57.9011604 Z" id="_141417224"></path>
                    <path d="M6.16097058,15.3658727 L21.5999508,1.97556473 L40.8272301,24.2560801 L27.7841829,40.5414461 L6.16097058,15.3658727 Z" id="_141417896"></path>
                    <path d="M24.2750216,66.3384335 L20.4966918,69.8741793 L11.83345,59.9481712 L13.8804607,57.9011604 L2.38264073,48.7627197 L15.7712872,32.3799878 L3.9577756,18.3592936 L6.70595396,15.9985851 L27.7841829,40.5414461 L13.8804607,57.9011604 L24.2750216,66.3384335 Z" id="_141417392"></path>
                    <path d="M35.1414584,17.6694244 L37.9826827,14.8933322 L52.082466,26.7872621 L43.0237789,21.5098956 L40.8272301,24.2560801 L35.1414584,17.6694244 Z" id="_141417416"></path>
                </g>
                <g id="_141416960" transform="translate(694.982882, 807.998032)" stroke-width="0.557391">
                    <path d="M19.8221087,54.8671981 L47.051339,17.0207612 L32.0177732,2.40257914 L3.10706985,43.0071636 L19.8221087,54.8671981 Z" id="_141416768"></path>
                    <path d="M62.8658261,50.8795149 L71.6187907,32.4132185 L44.9943591,19.8786009 L32.8119868,36.8129623 L62.8658261,50.8795149 Z" id="_141417152"></path>
                    <path d="M8.9025028,47.1211235 L6.51321594,51.7069592 L18.399835,57.3894078 L19.8221087,54.8671981 L31.7120509,63.4905631 L43.8977462,46.190664 L60.5762313,53.807139 L62.1114893,50.5272695 L32.8119868,36.8129623 L19.8221087,54.8671981 L8.9025028,47.1211235 Z" id="_141417008"></path>
                    <path d="M52.8667104,23.5838232 L54.7774753,20.1012465 L39.5345561,9.71333173 L47.051339,17.0207612 L44.9943591,19.8786009 L52.8667104,23.5838232 Z" id="_141417536"></path>
                </g>
                <g id="_141415712" transform="translate(239.722381, 582.029316)" stroke-width="0.557391">
                    <path d="M23.8084627,52.8833257 L24.2839939,6.26398573 L3.57794877,2.96750093 L3.31409707,52.8102182 L23.8084627,52.8833257 Z" id="_141416792"></path>
                    <path d="M56.7081785,24.8432665 L53.2355711,4.70546621 L24.2477725,9.78311618 L24.0354283,30.6453456 L56.7081785,24.8432665 Z" id="_141416528"></path>
                    <path d="M10.4208132,52.8368027 L11.1076916,57.9642988 L24.0975697,55.7644269 L23.8084627,52.8833257 L38.4944354,53.089356 L38.5010816,31.9313734 L56.5220867,28.555135 L55.8873804,24.9894816 L24.0354283,30.6453456 L23.8084627,52.8833257 L10.4208132,52.8368027 Z" id="_141416600"></path>
                    <path d="M32.818633,8.28108883 L32.3733417,4.33328244 L13.9309714,4.61574333 L24.2839939,6.26398573 L24.2477725,9.78311618 L32.818633,8.28108883 Z" id="_141416696"></path>
                </g>
                <g id="_141416048" transform="translate(86.861190, 578.706247)" stroke-width="0.557391">
                    <path d="M20.2039294,55.006767 L28.8425805,9.19160984 L9.03509327,2.31617934 L0.0395445253,51.3447446 L20.2039294,55.006767 Z" id="_141416336"></path>
                    <path d="M57.5100352,33.1675552 L57.6190319,12.7306787 L28.1905943,12.650925 L24.3248677,33.1509399 L57.5100352,33.1675552 Z" id="_141415880"></path>
                    <path d="M7.03161476,52.6141571 L6.80930142,57.7815299 L19.9832776,57.8945143 L20.2039294,55.006767 L34.626715,57.784853 L38.3405773,36.9558543 L56.6749479,36.7897008 L56.6766094,33.1675552 L24.3248677,33.1509399 L20.2039294,55.006767 L7.03161476,52.6141571 Z" id="_141416384"></path>
                    <path d="M36.8903898,12.6741865 L37.1465985,8.70976478 L18.9388369,5.75555612 L28.8425805,9.19160984 L28.1905943,12.650925 L36.8903898,12.6741865 Z" id="_141416144"></path>
                </g>
                <g id="_141431864" transform="translate(837.874865, 395.937432)" stroke-width="0.278696">
                    <path d="M0.777598229,16.7416234 L12.551233,0.385476045 L33.493216,16.0138712 L21.3041976,32.0576501 L0.777598229,16.7416234 Z" id="_141415688"></path>
                    <path d="M6.3005395,11.5343737 L12.551233,2.57205568 L23.4808081,10.7468063 L22.1249958,12.7240326 L29.7946398,18.2502969 L24.8233281,25.2154503 L6.3005395,11.5343737 Z" id="_141416072"></path>
                </g>
                <g id="_141431048" transform="translate(678.367536, 296.245352)" stroke-width="0.278696">
                    <path d="M1.50867349,14.1396601 L17.2666684,1.57181181 L33.204109,22.28118 L17.1304225,34.4336447 L1.50867349,14.1396601 Z" id="_141415928"></path>
                    <path d="M8.23456586,10.6172066 L16.675162,3.67863778 L24.9894816,14.5018747 L23.1485011,16.0404558 L29.0403031,23.4376082 L22.3675798,28.794396 L8.23456586,10.6172066 Z" id="_141415640"></path>
                </g>
                <g id="_141430424" transform="translate(578.675455, 189.907132)" stroke-width="0.278696">
                    <path d="M2.18325657,15.7420441 L17.9412514,3.176522 L33.8786921,23.884561 L17.8050056,36.0366933 L2.18325657,15.7420441 Z" id="_141431216"></path>
                    <path d="M8.90914894,12.2195906 L17.3497451,5.28301566 L25.6607416,16.1062526 L23.8230842,17.6458306 L29.7115631,25.0403245 L23.0421629,30.3991062 L8.90914894,12.2195906 Z" id="_141431792"></path>
                </g>
                <g id="_141430328" transform="translate(482.306444, 106.830398)" stroke-width="0.278696">
                    <path d="M1.90079567,13.423871 L17.6587906,0.858348814 L33.5962312,21.5663878 L17.5225447,33.7185201 L1.90079567,13.423871 Z" id="_141431648"></path>
                    <path d="M8.62668805,9.90141745 L17.0672842,2.96484248 L25.3782807,13.7880794 L23.5406233,15.3276574 L29.4324253,22.7221513 L22.759702,28.080933 L8.62668805,9.90141745 Z" id="_141431000"></path>
                </g>
                <g id="_141430640" transform="translate(362.675947, 47.015150)" stroke-width="0.278696">
                    <path d="M0.46522971,16.2072739 L13.4019387,0.753007516 L33.1442937,17.8688085 L19.8154626,32.9807987 L0.46522971,16.2072739 Z" id="_141430928"></path>
                    <path d="M6.35038554,11.4147432 L13.2424314,2.93493485 L23.5439464,11.8842929 L22.0485652,13.7598333 L29.2928564,19.8317456 L23.8264073,26.4124198 L6.35038554,11.4147432 Z" id="_141430232"></path>
                </g>
                <g id="_141430544" transform="translate(136.707231, 150.030300)" stroke-width="0.278696">
                    <path d="M26.3286785,26.0847652 L31.7539215,6.67471711 L6.47034834,0.0754336744 L1.54921493,19.6157461 L26.3286785,26.0847652 Z" id="_141430280"></path>
                    <path d="M26.9497602,18.5184686 L30.044867,8.04083092 L16.8373278,4.60810027 L16.1368248,6.90201505 L7.03061783,4.36186084 L4.69749084,12.5941005 L26.9497602,18.5184686 Z" id="_141430304"></path>
                </g>
                <g id="_141430136" transform="translate(116.768815, 272.983866)" stroke-width="0.278696">
                    <path d="M31.1943167,6.77906148 L26.3835091,26.3486169 L1.11954207,19.6758937 L6.43412689,0.238264073 L31.1943167,6.77906148 Z" id="_141430832"></path>
                    <path d="M28.018127,13.6744304 L25.5660341,24.3215446 L12.3761072,20.8223526 L12.8928445,18.4795887 L3.71353,16.2165785 L5.72598081,7.90225893 L28.018127,13.6744304 Z" id="_141430616"></path>
                </g>
                <g id="_141429752" transform="translate(33.692081, 372.675947)" stroke-width="0.278696">
                    <path d="M26.5676072,3.27986945 L33.8142245,22.0851189 L9.27302504,31.0607293 L2.51589581,12.076034 L26.5676072,3.27986945 Z" id="_141430160"></path>
                    <path d="M27.9054749,10.7534524 L31.9832133,20.888814 L19.1618148,25.5610495 L18.2463092,23.3445622 L9.42289546,26.7407391 L6.31748715,18.7653726 L27.9054749,10.7534524 Z" id="_141430376"></path>
                </g>
                <g id="_141430112" transform="translate(568.706247, 562.090900)" stroke-width="0.278696">
                    <path d="M34.1877375,18.3366967 L22.088442,34.4569061 L1.46547359,18.4098042 L13.9735066,2.61193251 L34.1877375,18.3366967 Z" id="_141429656"></path>
                    <path d="M28.5617811,23.4342851 L22.1316419,32.2670034 L11.3715433,23.8762533 L12.7639094,21.9256116 L5.20724968,16.2464861 L10.3181303,9.38434786 L28.5617811,23.4342851 Z" id="_141429680"></path>
                </g>
                <g id="_141428792" transform="translate(568.706247, 605.290802)">
                    <path d="M0.0897228726,39.7040327 L28.7715833,9.38714251 L40.6821212,20.6553295 L12.0002608,50.9722196 L0.0897228726,39.7040327 L0.0897228726,39.7040327 Z" id="_141429872" stroke-width="0.786535105"></path>
                    <path d="M7.39050625,12.1159109 L17.7385442,1.17636655 L27.6612293,10.5607144 L17.3131913,21.5002587 L7.39050625,12.1159109 Z" id="_141429944" stroke-width="0.786535"></path>
                    <path d="M11.9663727,7.28084496 L17.7385442,1.17636655 L24.2185295,7.30742951 L18.446358,13.4085848 L11.9663727,7.28084496 Z" id="_141429776" stroke-width="0.786535"></path>
                </g>
                <g id="_141429416" transform="translate(967.474569, 439.137334)">
                    <path d="M46.1275257,15.9640252 L12.275813,40.3735322 L2.68609723,27.0742754 L36.53781,2.66476838 L46.1275257,15.9640252 L46.1275257,15.9640252 Z" id="_141429344" stroke-width="0.786535002"></path>
                    <path d="M33.7889692,41.6945512 L21.5766893,50.5040081 L13.5880306,39.4248948 L25.8003105,30.618761 L33.7889692,41.6945512 Z" id="_141428912" stroke-width="0.786535"></path>
                    <path d="M28.3889815,45.5891885 L21.5766893,50.5040081 L16.3594704,43.266363 L23.1717626,38.3548665 L28.3889815,45.5891885 Z" id="_141429632" stroke-width="0.786535"></path>
                </g>
                <g id="_141428000" transform="translate(854.490211, 356.060600)">
                    <path d="M38.3515434,9.90274668 L13.5036579,43.4339807 L0.330306965,33.6720401 L25.1781925,0.14080604 L38.3515434,9.90274668 L38.3515434,9.90274668 Z" id="_141429368" stroke-width="0.786534681"></path>
                    <path d="M34.403737,38.1687746 L25.441419,50.2647471 L14.468644,42.1331964 L23.430962,30.0372239 L34.403737,38.1687746 Z" id="_141429200" stroke-width="0.786535"></path>
                    <path d="M30.4426384,43.5155932 L25.441419,50.2647471 L18.2735584,44.9544822 L23.2747778,38.2053284 L30.4426384,43.5155932 Z" id="_141429224" stroke-width="0.786535"></path>
                </g>
                <g id="_141428288" transform="translate(714.921298, 249.722381)">
                    <path d="M46.0810027,15.3881373 L9.92429755,36.2317296 L1.73551582,22.0269149 L37.892221,1.18332254 L46.0810027,15.3881373 L46.0810027,15.3881373 Z" id="_141428096" stroke-width="0.786535043"></path>
                    <path d="M31.190329,39.7339403 L18.1472817,47.2540462 L11.3250204,35.4239193 L24.3713907,27.9034811 L31.190329,39.7339403 Z" id="_141428744" stroke-width="0.786535"></path>
                    <path d="M25.4248036,43.0603327 L18.1472817,47.2540462 L13.6910457,39.52791 L20.9685676,35.3308734 L25.4248036,43.0603327 Z" id="_141429392" stroke-width="0.786535"></path>
                </g>
                <g id="_141428648" transform="translate(618.552287, 159.999508)">
                    <path d="M45.8749724,14.5450746 L13.5385533,40.9291209 L3.17310416,28.2251746 L35.5095233,1.84112823 L45.8749724,14.5450746 L45.8749724,14.5450746 Z" id="_141428216" stroke-width="0.786534869"></path>
                    <path d="M35.0916124,40.9684605 L23.4243159,50.4870604 L14.7909817,39.9064076 L26.4582782,30.3874754 L35.0916124,40.9684605 Z" id="_141428120" stroke-width="0.786535"></path>
                    <path d="M29.9342088,45.1764633 L23.4243159,50.4870604 L17.7850672,43.5760731 L24.2949601,38.2651436 L29.9342088,45.1764633 Z" id="_141428552" stroke-width="0.786535"></path>
                </g>
                <g id="_141427544" transform="translate(502.244860, 63.630497)">
                    <path d="M45.855034,14.5613576 L13.5186149,40.9454039 L3.15316575,28.2414576 L35.4895849,1.85741127 L45.855034,14.5613576 L45.855034,14.5613576 Z" id="_141428048" stroke-width="0.786534869"></path>
                    <path d="M35.074997,40.9844113 L23.4077005,50.5033434 L14.7743664,39.9223583 L26.4416629,30.4034261 L35.074997,40.9844113 Z" id="_141428072" stroke-width="0.786535"></path>
                    <path d="M29.9175934,45.192414 L23.4077005,50.5033434 L17.7684518,43.5923561 L24.2783447,38.2814267 L29.9175934,45.192414 Z" id="_141428384" stroke-width="0.786535"></path>
                </g>
                <g id="_141427232" transform="translate(389.260502, 0.492179)">
                    <path d="M42.21295,12.6821619 L15.5135584,44.7587007 L2.91171069,34.2693624 L29.6111023,2.19282361 L42.21295,12.6821619 L42.21295,12.6821619 Z" id="_141427736" stroke-width="0.786534859"></path>
                    <path d="M36.6800395,40.6786889 L27.0464615,52.2512779 L16.5488854,43.5149286 L26.1824635,31.9423396 L36.6800395,40.6786889 Z" id="_141427424" stroke-width="0.786535"></path>
                    <path d="M32.4198646,45.7945542 L27.0464615,52.2512779 L20.1909694,46.5449032 L25.5643726,40.0881795 L32.4198646,45.7945542 Z" id="_141428360" stroke-width="0.786535"></path>
                </g>
                <g id="_141427832" transform="translate(415.845057, 339.445253)" stroke-width="0.557391">
                    <path d="M10.7966523,2.45907132 L0.591506345,26.8629284 L77.6485001,59.5493032 L87.2667588,37.1546071 L10.7966191,2.45910455 L10.7966523,2.45907132 Z M66.999392,41.5051362 C69.0411257,41.5051362 70.6969381,43.1609552 70.6969381,45.2026823 C70.6969381,47.244416 69.0411191,48.9002283 66.999392,48.9002283 C64.9576583,48.9002283 63.301846,47.2444093 63.301846,45.2026823 C63.301846,43.1609486 64.957665,41.5051362 66.999392,41.5051362 L66.999392,41.5051362 Z" id="_141427880"></path>
                    <path d="M51.4145291,17.4627295 L46.4664788,29.2961794 L83.8343937,45.1472203 L88.4999831,34.2874296 L51.4145291,17.4627295 Z" id="_141427712"></path>
                </g>
                <g id="_141597992" transform="translate(821.259518, 542.152484)" stroke-width="0.557391">
                    <path d="M1.79113438,3.89463728 L42.498734,0.0963690113 L44.2931914,21.9089963 L3.58559183,25.7072645 L1.79113438,3.89463728 Z" id="_141427088"></path>
                    <path d="M10.4045302,3.0904545 L42.498734,0.0963690113 L44.2931914,21.9089963 L12.1956645,24.9030817 L10.4045302,3.0904545 Z" id="_141426536"></path>
                </g>
            </g>
        </g>
    </g>
</svg>