<?xml version="1.0" encoding="UTF-8"?>
<!DOCTYPE svg PUBLIC "-//W3C//DTD SVG 1.1//EN" "http://www.w3.org/Graphics/SVG/1.1/DTD/svg11.dtd">
<!-- Creator: CorelDRAW -->
<svg xmlns="http://www.w3.org/2000/svg" xml:space="preserve" width="1167.68mm" height="1082.93mm" style="shape-rendering:geometricPrecision; text-rendering:geometricPrecision; image-rendering:optimizeQuality; fill-rule:evenodd; clip-rule:evenodd"
viewBox="0 0 325.428 301.807"
 xmlns:xlink="http://www.w3.org/1999/xlink">
 <defs>
  <style type="text/css">
   <![CDATA[
    .str1 {stroke:white;stroke-width:0.278696}
    .str2 {stroke:white;stroke-width:0.557391}
    .str4 {stroke:white;stroke-width:0.786535}
    .str3 {stroke:#DEDEDD;stroke-width:0.418043;stroke-dasharray:2.090216 1.254130 0.418043 1.254130}
    .str0 {stroke:white;stroke-width:0.418043;stroke-dasharray:2.090216 1.254130 0.418043 1.254130;stroke-opacity:0.501961}
    .fil3 {fill:none}
    .fil1 {fill:#C2C1C1}
    .fil2 {fill:#DEDEDD}
    .fil0 {fill:#EFEEEE;fill-opacity:0.501961}
   ]]>
  </style>
 </defs>
 <g id="Layer_x0020_1">
  <metadata id="CorelCorpID_0Corel-Layer"/>
  <path class="fil0 str0" d="M77.0161 29.4388l14.1465 -20.3833c0.959381,0.919417 2.15627,2.13662 2.87814,2.75822 0.721877,0.621602 0.763403,0.734168 1.43907,0.959381 0.675669,0.225214 1.6477,0.380001 2.51838,0.359768 0.870673,-0.0202333 1.83331,-0.419325 2.6383,-0.479691 0.804984,-0.0603655 1.23916,0.0799577 2.15861,0.119923 0.919444,0.0399649 2.39634,0.139933 3.35784,0.119923 0.9615,-0.0200103 1.68547,-0.365649 2.39845,-0.239845 0.712987,0.125803 1.12596,0.77508 1.67892,0.959381 0.55296,0.184301 0.859218,0.0902416 1.55899,0.119923 0.699777,0.0296811 1.91952,0.297842 2.6383,0.0582474 0.718784,-0.239595 0.567563,-1.10929 1.31915,-1.3774 0.751586,-0.268105 1.96372,-0.241824 2.87814,-0.119923 0.914428,0.121901 1.73786,0.619317 2.51838,0.839459 0.780515,0.220142 1.34819,0.130652 2.15861,0.479691 0.810419,0.349038 1.93671,1.04349 2.6427,1.58812 0.705992,0.544627 0.969024,1.1897 1.55459,1.64979 0.585567,0.460098 0.97039,0.231819 1.91876,1.0793 0.948373,0.847485 2.68055,3.29552 3.7176,3.95745 1.03705,0.66193 1.21796,-0.179564 1.91876,-0.359768 0.700808,-0.180205 1.37115,-0.578405 2.27853,-0.719536 0.907377,-0.141131 1.9291,-0.495353 3.11799,-0.119923 1.18889,0.375431 2.78434,1.32453 3.7176,2.27853 0.933268,0.954003 1.10152,2.49552 1.67892,3.23791 0.577401,0.742389 1.15628,0.657164 1.67892,1.0793 0.522638,0.42214 1.05263,0.869558 1.43907,1.43907 0.386439,0.569514 0.57938,1.37862 0.839459,1.91876 0.260079,0.54014 0.192105,0.918302 0.719536,1.31915 0.527431,0.400848 1.71445,0.657192 2.27853,0.959381 0.56408,0.30219 0.469212,0.692196 1.0793,0.839459 0.610092,0.147263 1.66245,-0.231289 2.39845,0 0.736007,0.231289 1.15756,0.918357 1.79884,1.31915 0.641278,0.400792 1.43695,0.698216 2.03869,1.0793 0.601732,0.381088 0.927805,0.893832 1.55899,1.19923 0.63119,0.305395 1.6224,0.331508 2.15861,0.599613 0.53621,0.268105 0.427352,0.826388 0.959381,0.959381 0.53203,0.132994 1.34512,-0.280814 1.91876,-0.239845 0.573639,0.0409682 0.959381,0.319803 1.43907,0.479691 0.479691,0.159888 0.797459,-0.0998566 1.43907,0.479691 0.641613,0.579547 1.71866,2.19832 2.27853,2.87814 0.559871,0.679822 0.561432,0.888509 1.0793,1.19923 0.517872,0.310718 0.60973,0.478799 1.91876,0.599613 1.30903,0.120815 3.83471,-1.08741 5.87621,0.119923 2.0415,1.20734 4.36685,5.04918 5.2766,6.47582 0.909746,1.42664 0.0199825,1.05915 0,1.79884 -0.0199825,0.739686 -0.288422,1.90112 -0.119923,2.6383 0.168499,0.737178 0.679404,1.01911 1.0793,1.55899 0.3999,0.539889 0.935107,0.971449 1.31915,1.67892 0.384042,0.707469 0.430835,1.68491 0.959381,2.51838 0.528546,0.833467 1.32018,1.87445 2.15861,2.39845 0.838428,0.524003 1.73677,0.459402 2.6383,0.599613 0.901524,0.140212 2.03869,0.179898 2.75822,0.239845 0.719536,0.0599474 1.10467,-0.0246367 1.55899,0.119923 0.454329,0.144559 0.269805,0.615778 1.0793,0.719536 0.809499,0.103758 2.57718,-0.262782 3.59768,-0.119923 1.0205,0.142859 1.65684,0.59861 2.39845,0.959381 0.741609,0.360771 1.48706,0.70889 2.03869,1.19923 0.551622,0.490337 0.458984,0.778647 1.19923,1.67892 0.740243,0.90027 2.3071,2.86772 3.23791,3.7176 0.930815,0.849882 1.67298,0.216184 2.27853,1.31915 0.60555,1.10297 0.565919,3.58525 1.0793,4.79691 0.513385,1.21166 1.2786,1.57836 1.91876,2.27853 0.640164,0.700167 1.20881,1.41165 1.91876,1.91876 0.709949,0.507114 1.60058,0.524616 2.27853,1.0793 0.677955,0.554688 1.26898,1.21578 1.67892,2.15861 0.409933,0.942827 0.519684,2.37842 0.719536,3.35784 0.199853,0.97942 0.339758,1.69876 0.479691,2.51838 0.139933,0.819616 0.179591,1.55757 0.359768,2.39845 0.180177,0.84088 0.307819,1.8766 0.719536,2.6383 0.411717,0.761703 1.09895,1.2189 1.67892,1.79884 0.579965,0.579938 1.17013,1.34362 1.79884,1.67892 0.628709,0.335299 1.0392,0.119923 1.79884,0.239845 0.75964,0.119923 2.01667,0.543233 2.75822,0.479691 0.741553,-0.0635426 0.626285,-0.615945 1.43907,-0.839459 0.812788,-0.223514 2.26354,-0.499924 3.35784,-0.479691 1.0943,0.0202333 2.11143,0.277525 3.11799,0.599613 1.00656,0.322088 2.19158,0.915292 2.87814,1.31915 0.686566,0.403858 0.628904,-0.0816857 1.19923,1.0793 0.570323,1.16099 1.47547,4.62481 2.15861,5.75629 0.683138,1.13148 1.15533,0.337835 1.67892,0.599613 0.523585,0.261779 0.739546,0.499673 1.43907,0.959381 0.699526,0.459708 2.01617,1.37768 2.75822,1.79884 0.742055,0.421165 0.991543,0.557809 1.67892,0.719536 0.687375,0.161727 1.55899,0.159915 2.39845,0.239845 0.839459,0.0799299 1.98869,0.0977664 2.6383,0.239845 0.649611,0.142079 0.5786,0.21925 1.19923,0.599613 0.620627,0.380364 1.8176,1.15834 2.51838,1.67892 0.70078,0.520575 1.1392,0.959326 1.67892,1.43907 0.539722,0.479746 1.27615,0.63406 1.55899,1.43907 0.282848,0.805012 -0.0601425,2.13576 0,2.99807 0.0601425,0.862312 0.199267,1.51652 0.359768,2.15861 0.160501,0.642087 0.459095,1.13683 0.599613,1.67892 0.140518,0.542091 0.17987,1.05902 0.239845,1.55899 0.0599753,0.49998 -0.0428634,0.910052 0.119923,1.43907 0.162786,0.52902 0.469212,1.2264 0.839459,1.67892 0.370247,0.452518 0.850885,0.735422 1.31915,0.959381 0.468264,0.22396 0.792889,0.319413 1.43907,0.359768 0.646183,0.0403551 1.53809,-0.119923 2.39845,-0.119923 0.860361,0 1.83861,0.0999402 2.75822,0.119923 0.919612,0.0199825 1.91623,-0.0601425 2.75822,0 0.841995,0.0601425 1.6299,0.157101 2.27853,0.359768 0.648636,0.202667 0.957626,0.578851 1.55899,0.839459 0.601369,0.260608 1.23376,0.29695 2.03869,0.719536 0.804928,0.422586 2.19456,1.10514 2.75822,1.79884 0.563662,0.693701 0.198654,1.47475 0.359768,2.03869 0.161114,0.56394 0.189206,0.847207 0.599613,1.31915 0.410407,0.471943 1.19273,1.07543 1.79884,1.43907 0.606107,0.363642 1.0581,0.359183 1.79884,0.719536 0.740745,0.360353 1.83106,1.1162 2.6383,1.43907 0.807242,0.322869 1.55105,0.144476 2.15861,0.479691 0.607556,0.335215 0.839431,0.899378 1.31915,1.43907 0.479719,0.539694 0.978611,1.19845 1.55899,1.79884 0.580383,0.600394 1.11916,1.07922 1.91876,1.79884 0.799605,0.71962 1.97041,1.89307 2.87814,2.51838 0.907739,0.625309 1.73886,0.819448 2.51838,1.19923 0.779511,0.379778 1.33746,0.73885 2.15861,1.0793 0.821148,0.340454 1.67878,0.559593 2.75822,0.959381 1.07944,0.399789 2.76441,0.91178 3.7176,1.43907 0.953194,0.527292 1.37885,1.17899 1.91876,1.67892 0.539917,0.499924 0.987585,0.676728 1.31915,1.31915 0.331564,0.642421 0.379751,1.459 0.599613,2.39845 0.219863,0.939455 0.638436,2.4064 0.719536,3.23791 0.0811004,0.831516 -0.119811,1.05874 -0.239845,1.67892 -0.120034,0.620181 -0.319636,1.4585 -0.479691,2.03869 -0.160055,0.580188 -0.319692,0.879034 -0.479691,1.43907 -0.159999,0.560039 -0.279392,1.29775 -0.479691,1.91876 -0.200298,0.621017 -0.656746,1.21266 -0.719536,1.79884 -0.0627901,0.58618 0.239845,1.03931 0.359768,1.55899l0.959381 0.839459c-18.628,37.6557 -46.2206,93.7606 -55.884,112.967 -0.0754986,0.15005 -0.10479,0.331536 -0.223235,0.443432l-1.81545 1.71518c-0.618314,0.584174 -0.753621,1.15377 -1.31915,1.67892 -0.565529,0.525146 -1.39679,0.897455 -2.03869,1.43907 -0.641892,0.541617 -1.6581,2.16906 -2.81162,2.71034l-3.42436 1.60687 -9.23405 -4.55706 -11.7524 8.79772 0.181264 -1.58154 -1.74026 -0.500509c-0.610956,-0.175718 -1.22417,-0.874073 -1.79884,-1.0793 -0.57467,-0.205231 -0.896982,-0.139961 -1.55899,-0.119923 -0.662013,0.0200382 -1.4957,0.0593064 -2.39845,0.239845 -0.902751,0.180539 -2.13863,0.599613 -2.99807,0.839459 -0.859441,0.239845 -1.43807,0.439503 -2.15861,0.599613 -0.720539,0.160111 -1.37015,0.463499 -2.15861,0.359768 -0.788458,-0.10373 -1.71833,-0.659338 -2.39845,-0.959381 -0.680129,-0.300044 -1.0555,-0.417151 -1.67892,-0.839459 -0.623414,-0.422307 -1.37904,-1.11924 -2.03869,-1.67892 -0.659644,-0.559676 -1.37832,-1.15851 -1.91876,-1.67892 -0.540446,-0.520408 -1.03151,-0.966488 -1.31915,-1.43907 -0.287642,-0.472584 0.142274,-1.69567 -0.359768,-1.31915l-1.49746 1.12306 -0.541227 -6.75943 1.31915 -1.91876c0.437663,-0.636596 0.579519,-1.01911 1.0793,-2.03869 0.499785,-1.01958 1.51872,-3.1773 1.91876,-4.07737 0.40004,-0.900075 -0.0422781,-0.415758 0.479691,-1.31915 0.521969,-0.903392 1.69645,-2.29386 2.6383,-4.07737 0.941852,-1.78351 2.17633,-4.37109 2.99807,-6.59575 0.821734,-2.22466 1.51814,-5.01301 1.91876,-6.71567 0.400625,-1.70266 0.279699,-2.33773 0.479691,-3.47776 0.199992,-1.14003 0.539304,-2.07609 0.719536,-3.35784 0.180232,-1.28175 0.179703,-2.91666 0.359768,-4.31722 0.180065,-1.40056 0.0278696,-3.28691 0.719536,-4.07737 0.691667,-0.790464 1.19312,1.52962 1.79884,1.19923 0.605717,-0.330394 -0.19701,-1.25243 -0.479691,-1.91876 -0.282681,-0.666333 -0.819476,-1.39911 -1.19923,-2.03869 -0.379751,-0.639578 -0.855066,-1.20767 -1.0793,-1.79884 -0.224238,-0.591169 -0.139905,-1.07916 -0.239845,-1.67892 -0.0999402,-0.599753 -0.116105,-1.2893 -0.359768,-1.91876 -0.243663,-0.629462 -0.679515,-1.09918 -1.0793,-1.79884 -0.399789,-0.699665 -0.751112,-1.68839 -1.31915,-2.39845 -0.568037,-0.71006 -1.29914,-1.15923 -2.03869,-1.79884 -0.739546,-0.639606 -1.82771,-1.36603 -2.39845,-2.03869 -0.570741,-0.67266 -0.61876,-1.33768 -0.959381,-1.91876 -0.340622,-0.58108 -0.595879,-1.03527 -1.0793,-1.55899 -0.483425,-0.523725 -1.34933,-0.986917 -1.79884,-1.55899 -0.449508,-0.572078 -0.49906,-1.1781 -0.839459,-1.79884 -0.340399,-0.620739 -0.646406,-1.36594 -1.19923,-1.91876 -0.55282,-0.55282 -1.3791,-0.899434 -2.03869,-1.31915 -0.659589,-0.419715 -1.17919,-0.719508 -1.91876,-1.19923 -0.739574,-0.479719 -1.87869,-1.23914 -2.51838,-1.67892 -0.63969,-0.439782 -0.572441,-0.616307 -1.31915,-0.959381 -0.746709,-0.343074 -2.40252,-0.271505 -3.11799,-1.0793 -0.715467,-0.807799 -0.298455,-2.09401 -0.599613,-3.11799 -0.301158,-1.02398 -0.720623,-2.29057 -1.19923,-2.99807 -0.478604,-0.707496 -1.07267,-0.59298 -1.55899,-1.0793 -0.486324,-0.486324 -0.913675,-1.37308 -1.31915,-1.79884 -0.405474,-0.425763 -0.639523,-0.43967 -1.0793,-0.719536 -0.439782,-0.279866 -1.03934,-0.639606 -1.55899,-0.959381 -0.519656,-0.319775 -0.936919,-0.65839 -1.55899,-0.959381 -0.622076,-0.300991 -1.33088,-0.657777 -2.15861,-0.839459 -0.827726,-0.181682 -1.77758,-0.099773 -2.75822,-0.239845 -0.980646,-0.140072 -2.11828,-0.379695 -3.11799,-0.599613 -0.999709,-0.219919 -1.99457,-0.578962 -2.87814,-0.719536 -0.883576,-0.140574 -1.6343,0.000724608 -2.39845,-0.119923 -0.764155,-0.120647 -1.53896,-0.419715 -2.15861,-0.599613 -0.619652,-0.179898 -0.938925,-0.319692 -1.55899,-0.479691 -0.62007,-0.159999 -1.43751,-0.564498 -2.15861,-0.479691 -0.721097,0.084807 -1.12546,0.755989 -1.91876,0.959381 -0.793307,0.203392 -1.29917,0.119923 -2.75822,0.239845 -1.45905,0.119923 -4.43714,0.359768 -5.99613,0.479691 -1.55899,0.119923 -2.40603,0.0373452 -3.35784,0.239845 -0.951801,0.2025 -1.55899,0.659589 -2.27853,0.959381 -0.719536,0.299793 -1.31893,0.519572 -2.03869,0.839459 -0.719759,0.319887 -0.138094,0.997786 -2.27853,1.0793 -2.14044,0.0815184 -8.08677,-0.660313 -10.3134,-0.599613 -2.22658,0.0606999 -0.279058,-0.060254 -2.87814,0.959381 -2.59909,1.01964 -10.323,4.27341 -12.7118,5.15668 -2.38884,0.88327 -0.77901,0.0999402 -1.55899,0.119923 -0.779985,0.0199825 -2.0587,0 -3.11799,0 -1.05929,0 -2.29157,-0.100665 -3.23791,0 -0.946339,0.100665 -1.69873,0.43967 -2.39845,0.599613 -0.699721,0.159943 -0.854843,0.0183382 -1.79884,0.359768 -0.943997,0.34143 -2.61768,1.09901 -3.83753,1.67892 -1.21985,0.57991 -2.41531,1.33779 -3.47776,1.79884 -1.06244,0.461046 -1.93225,0.758135 -2.87814,0.959381 -0.945893,0.201246 -1.77836,0.119867 -2.75822,0.239845 -0.979866,0.119978 -2.15724,0.379611 -3.11799,0.479691 -0.960747,0.10008 -1.81227,0.180344 -2.6383,0.119923 -0.826026,-0.0604212 -1.55897,-0.319803 -2.27853,-0.479691 -0.719564,-0.159888 -1.392,-0.419074 -2.03869,-0.479691 -0.646685,-0.0606163 -1.01894,0.0999402 -1.79884,0.119923 -0.779902,0.0199825 -2.0184,0.0199825 -2.87814,0 -0.859748,-0.0199825 -1.65236,-0.160306 -2.27853,-0.119923 -0.626173,0.040383 -0.856822,0.13893 -1.43907,0.359768 -0.582251,0.220838 -0.933045,0.803312 -1.49885,1.16701 -0.24907,0.160111 -3.24856,2.14133 -3.5379,2.43067 -0.501234,0.501234 -0.602595,1.17963 -1.31915,1.55899 -0.716554,0.37936 -1.79778,0.439559 -2.75822,0.599613 -0.960441,0.160055 -1.99853,0.219863 -2.99807,0.359768 -0.999541,0.139905 -2.04847,0.459485 -2.99807,0.479691 -0.949599,0.0202054 -1.83814,-0.219751 -2.6383,-0.359768 -0.800163,-0.140017 -1.44913,-0.439168 -2.15861,-0.479691 -0.709475,-0.0405223 -1.25789,0.199825 -2.03869,0.239845 -0.780793,0.0400207 -1.67822,0.0399928 -2.6383,0 -0.960078,-0.0399928 -2.36707,-0.368547 -3.11799,-0.239845 -0.750917,0.128702 -0.647103,0.732997 -1.0793,0.959381 -0.432201,0.226384 -0.797543,0.509455 -1.43907,0.359768 -0.641529,-0.149687 -1.3718,-0.896619 -2.15861,-1.19923 -0.786813,-0.302608 -1.79695,-0.379193 -2.51838,-0.599613 -0.721431,-0.22042 -1.17871,-0.439475 -1.79884,-0.719536 -0.620125,-0.280061 -1.27829,-0.679209 -1.91876,-0.959381 -0.64047,-0.280173 -1.1953,-0.538691 -1.91876,-0.719536 -0.723466,-0.180846 -1.3791,-0.19988 -2.39845,-0.359768 -1.01936,-0.159888 -2.75711,-0.479551 -3.7176,-0.599613 -0.960496,-0.120062 -1.35911,-0.0799577 -2.03869,-0.119923l-15.47 -14.7505 8.49141 -10.6583 -16.2236 1.08753 -4.4819 -3.036 0.107967 -9.71399 2.3525 -8.29406 -2.30038 -0.0487438 0.0233826 -4.17706 3.21397 0.0629016 0.480332 -3.55925 2.0944 -4.79167 35.6362 -131.702 7.15676 -26.1355 17.2862 21.4559 3.76389 -0.615722 6.92165 8.75327z"/>
  <polygon class="fil1 str1" points="47.5722,14.52 48.8103,14.52 48.8103,12.6702 54.4846,12.6428 54.4846,19.3543 48.8103,19.3543 48.8103,18.4299 47.5792,18.5008 "/>
  <polygon class="fil1 str1" points="47.5722,14.52 48.8103,14.52 48.8103,18.5541 47.5722,18.4299 "/>
  <path class="fil2 str2" d="M48.2274 38.819c2.72453,-10.0598 14.1125,-10.9813 19.648,-3.61524 31.0329,38.9828 66.9453,72.1989 107.2,100.284 2.52052,1.69726 0.599836,5.52921 -2.35776,4.24398 -50.571,-14.735 -100.07,-11.4394 -150.875,10.9756 -2.00978,1.04215 -3.65144,0.0271171 -3.14929,-2.049l29.5346 -109.839zm255.16 169.953l-35.068 -17.5738c-0.120759,-0.0605327 -0.143082,0.228921 -0.215571,0.341987 -3.78909,5.91149 -9.23538,9.38769 -17.828,8.90457 5.33373,15.3412 7.00156,29.2587 4.50394,40.9453 -0.787649,3.16445 -0.698216,5.29926 0.67305,5.92933l4.10332 2.32086 -5.87944 11.6567 -11.6534 -5.95138 5.65326 -11.7595c9.37601,-41.114 -16.8841,-71.1526 -67.8186,-91.4474l-7.60981 27.8758 -167.487 11.227 -4.4819 -3.036 0.107967 -9.71399 2.3525 -8.29406 -2.30038 -0.0487438 0.0233826 -4.17706 3.21397 0.0629016 0.480332 -3.55925 2.0944 -4.79167 35.6362 -131.702 28.2068 -5.2953c47.5952,61.684 123.88,127.922 180.217,140.478 17.174,3.04832 22.6787,16.0482 19.5855,26.3039 -0.0369829,0.122626 -0.229283,0.309714 -0.114711,0.366875l35.1739 17.5525 -1.56947 3.38515zm-289.79 -42.9844c53.3312,-27.4069 106.588,-32.1223 159.546,-15.5233l-5.09578 20.5824c-0.350153,2.31691 -2.25559,3.60989 -5.09093,3.96483l-143.206 10.4151 -6.15337 -19.4391z"/>
  <path class="fil1 str2" d="M268.079 186.736c1.37795,-4.74432 0.642337,-9.90506 -2.01884,-14.0738 -3.56304,-5.58152 -9.75209,-8.45317 -16.0895,-9.57804l-0.0418879 -0.00744117 -0.0414978 -0.00925269c-10.6211,-2.36699 -21.0211,-6.36267 -30.8405,-11.0104 -11.3376,-5.36631 -22.2534,-11.7752 -32.7135,-18.6862 -11.491,-7.59214 -22.5516,-15.8821 -33.2122,-24.598 -11.1596,-9.12385 -21.9218,-18.7548 -32.2909,-28.7667 -18.4062,-17.772 -35.86,-36.9542 -51.5487,-57.1829l-25.8306 4.84919 -35.3541 130.66 -2.66792 1.23281 -1.27188 2.90989 -0.480332 3.55925 -3.21397 -0.0629016 -0.0233826 4.17706 2.30038 0.0487438 1.13691 2.04025 -1.54155 6.53574 -0.0934187 8.40504 5.91489 3.83541 156.34 -11.7747c1.80085,-0.145172 6.12609,-1.11186 7.43287,-5.35962l6.6213 -24.3616 2.02893 0.80844c27.0571,10.7809 58.1533,28.6041 67.869,58.0063 3.85536,11.6673 3.84608,23.7748 1.1295,35.6871l-0.0487717 0.213815 -4.9231 10.2408 8.21112 4.19339 4.15875 -8.24526 -2.42393 -1.37101c-2.95543,-1.44016 -2.3168,-5.50571 -1.67407,-8.1002 2.77876,-13.0466 -0.137815,-27.476 -4.44544,-39.8659l-0.95679 -2.75201 2.909 0.163539c7.0253,0.394995 12.1718,-2.02046 15.9723,-7.8491 0.43889,-0.786925 1.51064,-3.0428 1.72189,-3.91155zm-96.0122 -45.162c-51.4108,-14.9546 -100.407,-10.7022 -149.387,10.8957 -1.55685,0.785503 -3.49166,0.919946 -4.86346,-0.323984 -1.11977,-1.01543 -1.36316,-2.52782 -1.02008,-3.94622l0.00582474 -0.0240236 29.5419 -109.866c1.31218,-4.84498 4.7281,-8.66194 9.75942,-9.65761 5.10785,-1.01077 10.222,1.25954 13.3143,5.35781 30.6189,38.4585 66.4779,71.7633 106.762,99.8701 2.11232,1.43369 2.67799,4.21148 1.16121,6.2959 -1.24596,1.71219 -3.35956,2.17182 -5.27409,1.39861zm-2.10655 29.6604c-1.01551,3.92657 -3.49746,5.10383 -6.7623,5.51254l-0.0502767 0.00629852 -144.793 10.5305 -7.11554 -22.4786 1.46546 -0.753091c51.6666,-26.5515 105.471,-33.0611 161.021,-15.6497l1.75127 0.548919 -5.51683 22.2831z"/>
  <path class="fil3 str2" d="M185.756 148.938c-2.20746,-0.826667 -3.89823,-2.7294 -3.31319,-5.23828l0.000808217 -0.00342795c0.294916,-1.24897 0.876832,-2.18882 1.56917,-3.24555l0.114293 -0.174463 0.164625 -0.128061c1.89658,-1.47564 2.98366,-1.35103 5.16877,-0.581638l0.148405 0.0522554 0.130875 0.0872874c10.5404,7.02878 21.5341,13.4156 33.211,18.3709 4.41245,1.87253 8.89791,3.52709 13.4577,5.00334 4.17982,1.35323 8.40203,2.55215 12.6383,3.71395 1.62616,0.445969 3.25366,0.887032 4.88038,1.33099l0.0762232 0.0207907 0.0729904 0.0302106c1.81417,0.750499 3.60325,1.63455 5.20578,2.77656 1.16255,0.82845 2.14094,1.74664 3.11375,2.78506 0.139069,0.148461 0.277191,0.297814 0.41495,0.447501l0.0473225 0.0513915 0.0413027 0.0563522c2.33182,3.18014 2.97374,7.15907 1.83404,10.9243 -1.09759,3.626 -3.73327,6.70475 -7.20403,8.25103 -4.16129,1.85391 -8.64968,1.17668 -12.5439,-1.00054 -1.44509,-0.807883 -1.8655,-1.58812 -2.77681,-2.85674 -12.8314,-17.8619 -36.3691,-32.1537 -56.4527,-40.6732z"/>
  <path class="fil2 str2" d="M185.062 141.138c1.44724,-1.12601 2.02837,-1.07643 3.98214,-0.388502 28.853,19.2405 46.0435,23.5342 64.5529,28.5857 4.74178,1.96165 6.48555,3.73789 8.29114,5.69957 6.78866,9.25843 -3.60783,23.4292 -16.2905,16.3385 -1.26335,-0.706298 -1.58338,-1.39841 -2.37025,-2.49377 -12.5196,-17.4278 -35.6022,-32.0309 -57.0075,-41.1071 -1.47867,-0.546271 -3.01705,-1.8089 -2.55558,-3.78789 0.256957,-1.08814 0.782549,-1.90762 1.39766,-2.84648z"/>
  <line class="fil3 str3" x1="77.0161" y1="29.4388" x2="95.5121" y2= "2.3627" />
  <line class="fil3 str3" x1="103.855" y1="59.8775" x2="137.81" y2= "13.7167" />
  <line class="fil3 str3" x1="131.704" y1="88.6907" x2="171.915" y2= "34.026" />
  <line class="fil3 str3" x1="162.758" y1="113.971" x2="202.968" y2= "59.3058" />
  <line class="fil3 str3" x1="195.154" y1="136.705" x2="232.335" y2= "86.1584" />
  <line class="fil3 str3" x1="230.62" y1="154.974" x2="262.184" y2= "112.065" />
  <line class="fil3 str3" x1="267.637" y1="171.508" x2="294.542" y2= "134.933" />
  <line class="fil3 str3" x1="217.399" y1="243.546" x2="273.997" y2= "271.278" />
  <line class="fil3 str3" x1="195.088" y1="217.705" x2="231.244" y2= "184.081" />
  <line class="fil3 str3" x1="179.857" y1="152.138" x2="166.618" y2= "202.297" />
  <line class="fil3 str3" x1="118.411" y1="183.623" x2="120.653" y2= "210.938" />
  <line class="fil3 str3" x1="20.9847" y1="190.153" x2="11.3359" y2= "202.192" />
  <g id="_141595784">
   <polygon id="_141596552" class="fil1 str2" points="75.6613,31.3985 82.612,21.247 88.0052,25.0276 81.0544,35.1791 "/>
   <polygon id="_141597032" class="fil1 str2" points="77.1316,29.251 82.612,21.247 88.0052,25.0276 82.5248,33.0317 "/>
   <polygon id="_141596432" class="fil1 str2" points="91.743,29.1335 88.1945,26.7038 87.2842,26.0806 88.0052,25.0276 87.301,24.534 83.7608,22.0523 84.9317,20.382 88.4802,22.8117 90.2601,20.2123 93.0222,22.1484 91.2633,24.7173 93.6792,26.3715 "/>
   <polygon id="_141596576" class="fil1 str2" points="87.301,24.534 83.7608,22.0523 84.9317,20.382 88.4802,22.8117 "/>
  </g>
  <g id="_141595544">
   <polygon id="_141595808" class="fil1 str2" points="102.597,62.2666 109.547,52.1152 114.941,55.8958 107.99,66.0472 "/>
   <polygon id="_141595904" class="fil1 str2" points="104.067,60.1192 109.547,52.1152 114.941,55.8958 109.46,63.8998 "/>
   <polygon id="_141595976" class="fil1 str2" points="118.678,60.0017 115.13,57.572 114.22,56.9488 114.941,55.8958 114.236,55.4021 110.696,52.9205 111.867,51.2502 115.416,53.6799 117.195,51.0804 119.957,53.0166 118.199,55.5854 120.615,57.2397 "/>
   <polygon id="_141596840" class="fil1 str2" points="114.236,55.4021 110.696,52.9205 111.867,51.2502 115.416,53.6799 "/>
  </g>
  <g id="_141611168">
   <polygon id="_141596096" class="fil1 str2" points="131.015,90.3289 137.966,80.1775 143.359,83.9581 136.408,94.1095 "/>
   <polygon id="_141595760" class="fil1 str2" points="132.486,88.1815 137.966,80.1775 143.359,83.9581 137.879,91.9621 "/>
   <polygon id="_141596288" class="fil1 str2" points="147.097,88.064 143.549,85.6343 142.638,85.0111 143.359,83.9581 142.655,83.4645 139.115,80.9828 140.286,79.3125 143.834,81.7422 145.614,79.1427 148.376,81.0789 146.617,83.6478 149.033,85.302 "/>
   <polygon id="_141596048" class="fil1 str2" points="142.655,83.4645 139.115,80.9828 140.286,79.3125 143.834,81.7422 "/>
  </g>
  <g id="_141611504">
   <polygon id="_141611096" class="fil1 str2" points="161.324,115.919 168.614,106.008 173.877,109.969 166.586,119.88 "/>
   <polygon id="_141611312" class="fil1 str2" points="162.866,113.823 168.614,106.008 173.877,109.969 168.129,117.783 "/>
   <polygon id="_141611720" class="fil1 str2" points="177.473,114.199 174.009,111.651 173.12,110.997 173.877,109.969 173.189,109.452 169.735,106.852 170.962,105.222 174.426,107.771 176.293,105.233 178.988,107.261 177.143,109.769 179.502,111.504 "/>
   <polygon id="_141596192" class="fil1 str2" points="173.189,109.452 169.735,106.852 170.962,105.222 174.426,107.771 "/>
  </g>
  <g id="_141610592">
   <polygon id="_141611648" class="fil1 str2" points="194.203,138.323 201.154,128.171 206.547,131.952 199.596,142.103 "/>
   <polygon id="_141611600" class="fil1 str2" points="195.673,136.175 201.154,128.171 206.547,131.952 201.066,139.956 "/>
   <polygon id="_141611576" class="fil1 str2" points="210.285,136.058 206.736,133.628 205.826,133.005 206.547,131.952 205.843,131.458 202.302,128.976 203.473,127.306 207.022,129.736 208.802,127.136 211.564,129.073 209.805,131.641 212.221,133.296 "/>
   <polygon id="_141610928" class="fil1 str2" points="205.843,131.458 202.302,128.976 203.473,127.306 207.022,129.736 "/>
  </g>
  <g id="_141610856">
   <polygon id="_141610640" class="fil1 str2" points="230.141,155.625 237.432,145.714 242.694,149.675 235.404,159.586 "/>
   <polygon id="_141610784" class="fil1 str2" points="231.684,153.528 237.432,145.714 242.694,149.675 236.946,157.489 "/>
   <polygon id="_141610232" class="fil1 str2" points="246.291,153.905 242.826,151.357 241.938,150.703 242.694,149.675 242.007,149.158 238.552,146.558 239.779,144.928 243.244,147.477 245.11,144.939 247.805,146.967 245.96,149.475 248.319,151.21 "/>
   <polygon id="_141611384" class="fil1 str2" points="242.007,149.158 238.552,146.558 239.779,144.928 243.244,147.477 "/>
  </g>
  <g id="_141610280">
   <polygon id="_141610304" class="fil1 str2" points="38.3273,68.1244 50.2159,71.291 48.4507,77.6363 36.5622,74.4697 "/>
   <polygon id="_141610400" class="fil1 str2" points="40.8422,68.7942 50.2159,71.291 48.4507,77.6363 39.077,75.1396 "/>
   <polygon id="_141610736" class="fil1 str2" points="45.8268,82.5296 46.9337,78.3738 47.2176,77.3079 48.4507,77.6363 48.6812,76.8077 49.8399,72.6425 51.8051,73.1892 50.6982,77.345 53.7425,78.1558 52.8385,81.4055 49.8301,80.6042 49.0764,83.4336 "/>
   <polygon id="_141610424" class="fil1 str2" points="48.6812,76.8077 49.8399,72.6425 51.8051,73.1892 50.6982,77.345 "/>
  </g>
  <g id="_141603080">
   <polygon id="_141610472" class="fil1 str2" points="85.4935,51.9975 82.2476,63.8646 75.9142,62.0572 79.1601,50.19 "/>
   <polygon id="_141609872" class="fil1 str2" points="84.8069,54.5078 82.2476,63.8646 75.9142,62.0572 78.4734,52.7003 "/>
   <polygon id="_141609944" class="fil1 str2" points="71.3469,57.8363 76.6543,59.351 75.8827,62.0545 70.5879,60.6113 "/>
  </g>
  <g id="_141608792">
   <polygon id="_141609560" class="fil1 str2" points="106.519,134.074 109.747,122.203 103.373,120.544 100.144,132.416 "/>
   <polygon id="_141610016" class="fil1 str2" points="107.202,131.563 109.747,122.203 103.373,120.544 100.827,129.905 "/>
   <polygon id="_141609656" class="fil1 str2" points="97.2953,121.862 102.637,123.251 103.345,120.531 98.0503,119.086 "/>
  </g>
  <g id="_141608600">
   <polygon id="_141609368" class="fil1 str2" points="119.413,86.7731 116.167,98.6403 109.834,96.8328 113.08,84.9657 "/>
   <polygon id="_141609992" class="fil1 str2" points="118.727,89.2835 116.167,98.6403 109.834,96.8328 112.393,87.476 "/>
   <polygon id="_141609800" class="fil1 str2" points="105.267,92.612 110.574,94.1267 109.802,96.8301 104.508,95.3869 "/>
  </g>
  <g id="_141609200">
   <polygon id="_141609152" class="fil1 str2" points="61.4611,139.786 64.6898,127.915 58.3157,126.256 55.0871,138.128 "/>
   <polygon id="_141608984" class="fil1 str2" points="62.1441,137.275 64.6898,127.915 58.3157,126.256 55.77,135.617 "/>
   <polygon id="_141608696" class="fil1 str2" points="52.2379,127.574 57.5794,128.963 58.2873,126.243 52.9929,124.798 "/>
  </g>
  <g id="_141608120">
   <polygon id="_141608840" class="fil1 str2" points="147.632,112.315 144.386,124.182 138.053,122.374 141.299,110.507 "/>
   <polygon id="_141609128" class="fil1 str2" points="146.945,114.825 144.386,124.182 138.053,122.374 140.612,113.018 "/>
   <polygon id="_141609272" class="fil1 str2" points="133.485,118.154 138.793,119.668 138.021,122.372 132.726,120.928 "/>
  </g>
  <g id="_141608144">
   <polygon id="_141608048" class="fil1 str2" points="53.7572,148.633 54.7298,160.898 48.1588,161.346 47.1862,149.082 "/>
   <polygon id="_141608288" class="fil1 str2" points="53.963,151.228 54.7298,160.898 48.1588,161.346 47.392,151.676 "/>
   <polygon id="_141607856" class="fil1 str2" points="42.671,160.501 46.9582,160.161 48.0579,160.074 48.1588,161.346 49.0168,161.288 53.3301,160.994 53.4689,163.029 49.1818,163.369 49.4308,166.509 46.0655,166.739 45.8194,163.635 42.9006,163.867 "/>
   <polygon id="_141609104" class="fil1 str2" points="49.0168,161.288 53.3301,160.994 53.4689,163.029 49.1818,163.369 "/>
  </g>
  <g id="_141607760">
   <polygon id="_141608504" class="fil1 str2" points="91.793,139.738 92.6095,152.013 86.0333,152.378 85.2168,140.102 "/>
   <polygon id="_141608240" class="fil1 str2" points="91.9657,142.334 92.6095,152.013 86.0333,152.378 85.3895,142.699 "/>
   <polygon id="_141607928" class="fil1 str2" points="80.5567,151.464 84.8479,151.178 85.9486,151.105 86.0333,152.378 86.892,152.331 91.2087,152.091 91.3217,154.128 87.0305,154.413 87.2396,157.557 83.8717,157.744 83.6651,154.637 80.7435,154.831 "/>
   <polygon id="_141608432" class="fil1 str2" points="86.892,152.331 91.2087,152.091 91.3217,154.128 87.0305,154.413 "/>
  </g>
  <g id="_141607112">
   <polygon id="_141607616" class="fil1 str2" points="130.971,141.583 131.758,153.86 125.181,154.209 124.394,141.932 "/>
   <polygon id="_141607064" class="fil1 str2" points="131.138,144.18 131.758,153.86 125.181,154.209 124.561,144.529 "/>
   <polygon id="_141607520" class="fil1 str2" points="119.707,153.282 123.999,153.007 125.1,152.936 125.181,154.209 126.04,154.164 130.357,153.935 130.465,155.972 126.174,156.247 126.375,159.391 123.007,159.57 122.808,156.463 119.886,156.65 "/>
   <polygon id="_141607496" class="fil1 str2" points="126.04,154.164 130.357,153.935 130.465,155.972 126.174,156.247 "/>
  </g>
  <g id="_141606968">
   <polygon id="_141607568" class="fil1 str2" points="133.37,178.919 132.578,166.641 139.155,166.29 139.947,178.567 "/>
   <polygon id="_141607256" class="fil1 str2" points="133.202,176.322 132.578,166.641 139.155,166.29 139.779,175.97 "/>
   <polygon id="_141607184" class="fil1 str2" points="144.629,167.215 140.338,167.492 139.237,167.563 139.155,166.29 138.296,166.336 133.979,166.566 133.87,164.529 138.161,164.253 137.959,161.109 141.327,160.929 141.527,164.035 144.449,163.847 "/>
   <polygon id="_141607232" class="fil1 str2" points="138.296,166.336 133.979,166.566 133.87,164.529 138.161,164.253 "/>
  </g>
  <g id="_141605840">
   <polygon id="_141606488" class="fil1 str2" points="20.7458,189.17 21.6274,201.441 28.1912,200.897 27.3096,188.626 "/>
   <polygon id="_141607040" class="fil1 str2" points="20.9323,191.766 21.6274,201.441 28.1912,200.897 27.4961,191.221 "/>
   <polygon id="_141606584" class="fil1 str2" points="33.4896,199.237 29.2,199.545 28.0998,199.624 28.1912,200.897 27.3341,200.968 23.0255,201.325 23.1941,203.358 27.4837,203.05 27.7094,206.192 31.071,205.914 30.8479,202.808 33.7684,202.598 "/>
   <polygon id="_141606728" class="fil1 str2" points="27.3341,200.968 23.0255,201.325 23.1941,203.358 27.4837,203.05 "/>
  </g>
  <g id="_141605936">
   <polygon id="_141606440" class="fil1 str2" points="66.8137,185.836 67.8816,198.092 74.4364,197.448 73.3684,185.192 "/>
   <polygon id="_141606320" class="fil1 str2" points="67.0396,188.428 67.8816,198.092 74.4364,197.448 73.5943,187.785 "/>
   <polygon id="_141606536" class="fil1 str2" points="79.709,195.708 75.4246,196.081 74.3256,196.177 74.4364,197.448 73.5805,197.532 69.2778,197.955 69.4773,199.985 73.7617,199.612 74.0351,202.75 77.3921,202.421 77.1218,199.319 80.0388,199.065 "/>
   <polygon id="_141606464" class="fil1 str2" points="73.5805,197.532 69.2778,197.955 69.4773,199.985 73.7617,199.612 "/>
  </g>
  <g id="_141606104">
   <polygon id="_141605720" class="fil1 str2" points="118.319,182.492 119.325,194.754 125.883,194.143 124.877,181.881 "/>
   <polygon id="_141606176" class="fil1 str2" points="118.532,185.086 119.325,194.754 125.883,194.143 125.089,184.475 "/>
   <polygon id="_141605552" class="fil1 str2" points="131.164,192.429 126.878,192.781 125.778,192.871 125.883,194.143 125.027,194.223 120.722,194.624 120.911,196.655 125.197,196.303 125.455,199.443 128.813,199.13 128.559,196.027 131.477,195.788 "/>
   <polygon id="_141605816" class="fil1 str2" points="125.027,194.223 120.722,194.624 120.911,196.655 125.197,196.303 "/>
  </g>
  <line class="fil3 str3" x1="66.9216" y1="187.074" x2="69.8543" y2= "220.732" />
  <g id="_141604928">
   <polygon id="_141604976" class="fil1 str2" points="232.052,183.33 223.042,191.708 218.61,186.836 227.62,178.458 "/>
   <polygon id="_141605312" class="fil1 str2" points="230.146,185.102 223.042,191.708 218.61,186.836 225.714,180.23 "/>
   <polygon id="_141606200" class="fil1 str2" points="215.865,182.01 218.794,185.159 219.545,185.967 218.61,186.836 219.189,187.472 222.098,190.67 220.589,192.043 217.661,188.894 215.354,191.039 213.084,188.544 215.364,186.424 213.37,184.28 "/>
   <polygon id="_141605912" class="fil1 str2" points="219.189,187.472 222.098,190.67 220.589,192.043 217.661,188.894 "/>
  </g>
  <g id="_141604232">
   <polygon id="_141605000" class="fil1 str2" points="252.007,260.444 263.064,265.84 265.887,259.89 254.831,254.494 "/>
   <polygon id="_141605336" class="fil1 str2" points="254.346,261.586 263.064,265.84 265.887,259.89 257.169,255.635 "/>
   <polygon id="_141605456" class="fil1 str2" points="267.11,254.474 265.224,258.339 264.74,259.33 265.887,259.89 265.518,260.667 263.665,264.573 265.508,265.447 267.394,261.582 270.226,262.964 271.672,259.917 268.874,258.551 270.158,255.92 "/>
   <polygon id="_141605360" class="fil1 str2" points="265.518,260.667 263.665,264.573 265.508,265.447 267.394,261.582 "/>
  </g>
  <g id="_141604184">
   <polygon id="_141604376" class="fil1 str1" points="105.075,38.9392 103.632,41.0781 108.277,44.3569 114.288,36.1144 111.51,34.1107 109.808,36.546 112.057,38.1181 109.78,41.1237 107.229,40.1674 "/>
   <polygon id="_141604304" class="fil1 str1" points="102.008,29.1315 105.954,32.0159 105.076,33.2382 101.089,30.4389 "/>
   <polygon id="_141604784" class="fil1 str1" points="109.37,25.0485 115.062,29.147 109.808,36.546 105.076,33.2382 105.954,32.0159 103.176,30.0122 104.224,28.5094 106,29.6934 "/>
   <polygon id="_141605216" class="fil1 str1" points="102.22,31.2417 112.057,38.1181 109.78,41.1237 107.229,40.1674 102.357,37.3895 99.9887,34.3839 "/>
  </g>
  <g id="_141603416">
   <polygon id="_141604208" class="fil1 str1" points="257.766,143.662 256.322,145.801 260.967,149.08 266.978,140.837 264.201,138.833 262.498,141.269 264.747,142.841 262.47,145.846 259.92,144.89 "/>
   <polygon id="_141604640" class="fil1 str1" points="254.699,133.854 258.645,136.739 257.766,137.961 253.78,135.162 "/>
   <polygon id="_141604520" class="fil1 str1" points="262.06,129.771 267.753,133.87 262.498,141.269 257.766,137.961 258.645,136.739 255.867,134.735 256.914,133.232 258.69,134.416 "/>
   <polygon id="_141603992" class="fil1 str1" points="254.911,135.964 264.747,142.841 262.47,145.846 259.92,144.89 255.047,142.112 252.679,139.107 "/>
  </g>
  <g id="_141603248">
   <polygon id="_141603440" class="fil1 str1" points="288.638,164.499 287.395,166.761 292.32,169.603 297.555,160.848 294.607,159.105 293.133,161.685 295.516,163.046 293.522,166.246 290.895,165.526 "/>
   <polygon id="_141603536" class="fil1 str1" points="284.691,155.011 288.883,157.525 288.12,158.822 283.895,156.397 "/>
   <polygon id="_141603824" class="fil1 str1" points="291.65,150.275 297.692,153.839 293.133,161.685 288.12,158.822 288.883,157.525 285.935,155.782 286.841,154.19 288.717,155.208 "/>
   <polygon id="_141604088" class="fil1 str1" points="285.094,157.094 295.516,163.046 293.522,166.246 290.895,165.526 285.79,163.203 283.158,160.426 "/>
  </g>
  <g id="_141602984">
   <polygon id="_141603584" class="fil1 str1" points="56.5888,48.259 54.0777,47.6652 52.6532,53.1695 62.4887,55.8778 63.3807,52.5708 60.5008,51.8395 59.8254,54.499 56.2089,53.4319 56.2017,50.7083 "/>
   <polygon id="_141603608" class="fil1 str1" points="64.6785,41.9225 63.3757,46.6333 61.9218,46.244 63.1306,41.5249 "/>
   <polygon id="_141603680" class="fil1 str1" points="71.1007,47.3644 69.2798,54.1382 60.5008,51.8395 61.9218,46.244 63.3757,46.6333 64.2677,43.3264 66.0438,43.7747 65.5642,45.8547 "/>
   <polygon id="_141603896" class="fil1 str1" points="62.7794,42.8666 59.8254,54.499 56.2089,53.4319 56.2017,50.7083 57.0771,45.1682 59.0512,41.8904 "/>
  </g>
  <g id="_141602888">
   <polygon id="_141602840" class="fil1 str1" points="55.0355,94.9046 54.4322,97.4134 59.931,98.859 62.6768,89.0338 59.3733,88.1292 58.631,91.0063 61.2878,91.6918 60.207,95.3042 57.4834,95.301 "/>
   <polygon id="_141603152" class="fil1 str1" points="48.7299,86.7907 53.4358,88.1115 53.0409,89.564 48.3264,88.3372 "/>
   <polygon id="_141602504" class="fil1 str1" points="54.1964,80.3894 60.9632,82.2362 58.631,91.0063 53.0409,89.564 53.4358,88.1115 50.1323,87.2069 50.5874,85.4326 52.6655,85.92 "/>
   <polygon id="_141603656" class="fil1 str1" points="49.6668,88.6934 61.2878,91.6918 60.207,95.3042 57.4834,95.301 51.9466,94.4044 48.6764,92.4179 "/>
  </g>
  <g id="_139065848">
   <polygon id="_141602456" class="fil1 str1" points="89.6762,88.3353 87.1621,87.7544 85.7656,93.2658 95.6148,95.924 96.49,92.6126 93.6064,91.8959 92.9445,94.5588 89.3226,93.5102 89.3016,90.7867 "/>
   <polygon id="_141602792" class="fil1 str1" points="97.7336,81.9578 96.4547,86.6752 94.9989,86.2932 96.1836,81.5681 "/>
   <polygon id="_141602624" class="fil1 str1" points="104.183,87.3669 102.397,94.15 93.6064,91.8959 94.9989,86.2932 96.4547,86.6752 97.3299,83.3637 99.1082,83.803 98.6393,85.8854 "/>
   <polygon id="_141602936" class="fil1 str1" points="95.8393,82.9116 92.9445,94.5588 89.3226,93.5102 89.3016,90.7867 90.1488,85.2421 92.1062,81.9543 "/>
  </g>
  <g id="_139065512">
   <polygon id="_139065992" class="fil1 str1" points="119.184,109.775 116.67,109.194 115.274,114.705 125.123,117.363 125.998,114.052 123.115,113.335 122.453,115.998 118.831,114.949 118.81,112.226 "/>
   <polygon id="_139066928" class="fil1 str1" points="127.242,103.397 125.963,108.114 124.507,107.732 125.692,103.007 "/>
   <polygon id="_139067048" class="fil1 str1" points="133.692,108.806 131.905,115.589 123.115,113.335 124.507,107.732 125.963,108.114 126.838,104.803 128.616,105.242 128.147,107.325 "/>
   <polygon id="_139066352" class="fil1 str1" points="125.348,104.351 122.453,115.998 118.831,114.949 118.81,112.226 119.657,106.681 121.614,103.394 "/>
  </g>
  <g id="_139061768">
   <polygon id="_139065008" class="fil1 str1" points="157.478,164.099 157.75,166.665 163.415,166.186 162.712,156.009 159.296,156.263 159.56,159.222 162.294,158.978 162.485,162.744 159.918,163.653 "/>
   <polygon id="_139065416" class="fil1 str1" points="148.819,158.566 153.696,158.234 153.81,159.735 148.957,160.158 "/>
   <polygon id="_139065752" class="fil1 str1" points="151.826,150.704 158.821,150.177 159.56,159.222 153.81,159.735 153.696,158.234 150.28,158.488 150.115,156.664 152.236,156.428 "/>
   <polygon id="_139065560" class="fil1 str1" points="150.339,160.045 162.294,158.978 162.485,162.744 159.918,163.653 154.4,164.663 150.654,163.886 "/>
  </g>
  <g id="_139057952">
   <polygon id="_139061792" class="fil1 str1" points="108.077,161.368 108.349,163.934 114.014,163.455 113.311,153.277 109.895,153.531 110.16,156.491 112.893,156.247 113.084,160.013 110.517,160.922 "/>
   <polygon id="_139061840" class="fil1 str1" points="99.4185,155.835 104.295,155.503 104.409,157.004 99.5562,157.427 "/>
   <polygon id="_139062944" class="fil1 str1" points="102.425,147.972 109.42,147.446 110.16,156.491 104.409,157.004 104.295,155.503 100.879,155.757 100.714,153.933 102.835,153.696 "/>
   <polygon id="_139064192" class="fil1 str1" points="100.938,157.314 112.893,156.247 113.084,160.013 110.517,160.922 104.999,161.931 101.253,161.155 "/>
  </g>
  <g id="_141425648">
   <polygon id="_139057976" class="fil1 str1" points="70.6617,164.625 70.9335,167.191 76.5988,166.711 75.8955,156.534 72.4798,156.788 72.7439,159.748 75.477,159.504 75.6684,163.27 73.101,164.179 "/>
   <polygon id="_139061168" class="fil1 str1" points="62.0028,159.091 66.8793,158.76 66.9936,160.261 62.1406,160.684 "/>
   <polygon id="_139061360" class="fil1 str1" points="65.0097,151.229 72.0042,150.703 72.7439,159.748 66.9936,160.261 66.8793,158.76 63.4636,159.014 63.2982,157.19 65.4195,156.953 "/>
   <polygon id="_139062248" class="fil1 str1" points="63.5228,160.571 75.477,159.504 75.6684,163.27 73.101,164.179 67.5837,165.188 63.837,164.412 "/>
  </g>
  <g id="_141426368">
   <polygon id="_141425672" class="fil1 str1" points="31.8297,177.094 32.1015,179.66 37.7669,179.18 37.0635,169.003 33.6478,169.257 33.912,172.217 36.645,171.973 36.8364,175.739 34.269,176.648 "/>
   <polygon id="_141425720" class="fil1 str1" points="23.1709,171.56 28.0473,171.229 28.1617,172.73 23.3086,173.153 "/>
   <polygon id="_141425888" class="fil1 str1" points="26.1777,163.698 33.1723,163.172 33.912,172.217 28.1617,172.73 28.0473,171.229 24.6316,171.483 24.4662,169.659 26.5876,169.422 "/>
   <polygon id="_139055144" class="fil1 str1" points="24.6909,173.04 36.645,171.973 36.8364,175.739 34.269,176.648 28.7518,177.657 25.0051,176.881 "/>
  </g>
  <g id="_141420968">
   <polygon id="_141426176" class="fil1 str1" points="135.732,55.2581 145.957,51.9398 148.144,58.5721 137.968,62.0507 "/>
   <polygon id="_141425912" class="fil1 str1" points="131.956,55.295 139.875,52.7249 140.235,53.7968 135.732,55.2581 137.968,62.0507 143.767,60.1165 144.456,62.2126 135.26,65.3482 "/>
   <polygon id="_141426152" class="fil1 str1" points="143.88,51.3018 151.143,41.6322 157.312,46.2939 152.968,52.0646 151.508,51.0365 147.424,56.3887 145.957,51.9398 145.082,52.2239 "/>
   <polygon id="_141426272" class="fil1 str1" points="151.143,41.6322 151.716,40.8644 157.203,45.0631 156.651,45.7943 "/>
  </g>
  <g id="_141420320">
   <polygon id="_141420992" class="fil1 str1" points="228.397,130.963 238.622,127.645 240.808,134.277 230.633,137.756 "/>
   <polygon id="_141425144" class="fil1 str1" points="224.62,131 232.54,128.43 232.899,129.502 228.397,130.963 230.633,137.756 236.431,135.822 237.121,137.918 227.925,141.053 "/>
   <polygon id="_141425456" class="fil1 str1" points="236.545,127.007 243.808,117.337 249.977,121.999 245.632,127.77 244.173,126.742 240.088,132.094 238.622,127.645 237.747,127.929 "/>
   <polygon id="_141426248" class="fil1 str1" points="243.808,117.337 244.381,116.57 249.868,120.768 249.315,121.499 "/>
  </g>
  <g id="_141419480">
   <polygon id="_141420944" class="fil1 str1" points="83.2765,118.617 93.3849,114.959 91.0387,108.381 80.8711,111.883 "/>
   <polygon id="_141420536" class="fil1 str1" points="80.273,120.907 88.1021,118.073 87.7279,117.006 83.2765,118.617 80.8711,111.883 86.6358,109.849 85.8933,107.771 76.7091,110.942 "/>
   <polygon id="_141420560" class="fil1 str1" points="92.1373,116.737 103.807,119.911 105.814,112.444 98.8419,110.556 98.3212,112.264 91.8111,110.547 93.3849,114.959 92.5197,115.272 "/>
   <polygon id="_141420752" class="fil1 str1" points="103.807,119.911 104.731,120.165 106.484,113.482 105.599,113.244 "/>
  </g>
  <g id="_141419984">
   <polygon id="_141419552" class="fil1 str1" points="37.7568,124.949 47.8653,121.29 45.5191,114.713 35.3515,118.214 "/>
   <polygon id="_141420824" class="fil1 str1" points="34.7533,127.238 42.5825,124.405 42.2083,123.338 37.7568,124.949 35.3515,118.214 41.1161,116.181 40.3736,114.103 31.1894,117.274 "/>
   <polygon id="_141420296" class="fil1 str1" points="46.6176,123.069 58.2873,126.243 60.2945,118.776 53.3222,116.888 52.8015,118.595 46.2915,116.878 47.8653,121.29 47,121.603 "/>
   <polygon id="_141420632" class="fil1 str1" points="58.2873,126.243 59.211,126.497 60.9643,119.814 60.0793,119.576 "/>
  </g>
  <g id="_141418904">
   <polygon id="_141420008" class="fil1 str1" points="185.799,172.197 196.358,174.216 197.701,167.363 187.171,165.179 "/>
   <polygon id="_141419696" class="fil1 str1" points="182.047,172.631 190.225,174.195 190.449,173.086 185.799,172.197 187.171,165.179 193.166,166.376 193.589,164.21 184.073,162.245 "/>
   <polygon id="_141419840" class="fil1 str1" points="194.376,175.108 202.788,183.797 208.327,178.403 203.298,173.219 201.978,174.421 197.258,169.619 196.358,174.216 195.454,174.043 "/>
   <polygon id="_141420128" class="fil1 str1" points="202.788,183.797 203.452,184.488 208.373,179.638 207.734,178.981 "/>
  </g>
  <g id="_141419192">
   <polygon id="_141419312" class="fil1 str1" points="290.295,217.027 280.665,212.251 283.739,205.98 293.446,210.608 "/>
   <polygon id="_141418760" class="fil1 str1" points="293.021,219.641 285.562,215.942 286.054,214.924 290.295,217.027 293.446,210.608 287.948,207.936 288.92,205.956 297.688,210.144 "/>
   <polygon id="_141419864" class="fil1 str1" points="281.704,214.159 269.75,215.994 268.599,208.348 275.74,207.26 276.065,209.015 282.727,208.045 280.665,212.251 281.489,212.66 "/>
   <polygon id="_141419744" class="fil1 str1" points="269.75,215.994 268.804,216.142 267.816,209.304 268.723,209.168 "/>
  </g>
  <g id="_141418376">
   <polygon id="_141419024" class="fil1 str1" points="156.006,199.485 156.082,202.064 161.768,202.015 161.837,191.814 158.412,191.809 158.451,194.78 161.195,194.743 161.101,198.513 158.472,199.225 "/>
   <polygon id="_141419360" class="fil1 str1" points="147.791,193.312 152.678,193.351 152.679,194.856 147.808,194.91 "/>
   <polygon id="_141419240" class="fil1 str1" points="151.385,185.7 158.399,185.705 158.451,194.78 152.679,194.856 152.678,193.351 149.253,193.345 149.227,191.514 151.36,191.438 "/>
   <polygon id="_141419144" class="fil1 str1" points="149.195,194.902 161.195,194.743 161.101,198.513 158.472,199.225 152.894,199.814 149.217,198.755 "/>
  </g>
  <g id="_141418640">
   <polygon id="_141418496" class="fil1 str1" points="232,219.245 231.189,208.525 238.15,207.966 239.128,218.675 "/>
   <polygon id="_141418256" class="fil1 str1" points="231.144,222.923 230.516,214.621 231.643,214.524 232,219.245 239.128,218.675 238.617,212.584 240.817,212.409 241.693,222.085 "/>
   <polygon id="_141419336" class="fil1 str1" points="230.079,210.393 222.396,201.053 228.382,196.159 232.965,201.743 231.621,202.918 235.858,208.15 231.189,208.525 231.258,209.443 "/>
   <polygon id="_141418952" class="fil1 str1" points="222.396,201.053 221.786,200.315 227.161,195.974 227.741,196.683 "/>
  </g>
  <g id="_141417344">
   <polygon id="_141418040" class="fil1 str2" points="249.444,210.86 237.422,213.474 238.892,219.894 250.914,217.28 "/>
   <polygon id="_141418688" class="fil1 str2" points="246.901,211.413 237.422,213.474 238.892,219.894 248.371,217.833 "/>
   <polygon id="_141418400" class="fil1 str2" points="241.288,224.903 240.374,220.701 240.139,219.623 238.892,219.894 238.7,219.056 237.735,214.842 235.747,215.297 236.661,219.499 233.582,220.169 234.335,223.457 237.377,222.795 238,225.656 "/>
   <polygon id="_141418184" class="fil1 str2" points="238.7,219.056 237.735,214.842 235.747,215.297 236.661,219.499 "/>
  </g>
  <g id="_141417920">
   <polygon id="_141417440" class="fil1 str2" points="170.47,85.1018 179.24,74.151 184.691,77.3272 175.258,88.9891 "/>
   <polygon id="_141417656" class="fil1 str2" points="168.147,72.3021 172.792,68.2726 178.578,74.9774 174.653,79.8778 "/>
   <polygon id="_141417752" class="fil1 str2" points="173.597,87.6411 172.461,88.7046 169.853,85.718 170.47,85.1018 167.009,82.3522 171.038,77.422 167.483,73.2028 168.31,72.4924 174.653,79.8778 170.47,85.1018 "/>
   <polygon id="_141418136" class="fil1 str2" points="176.868,72.9953 177.723,72.1599 181.966,75.7391 179.24,74.151 178.578,74.9774 "/>
  </g>
  <g id="_141416864">
   <polygon id="_141417224" class="fil1 str2" points="203.177,109.424 211.947,98.4729 217.399,101.649 207.965,113.311 "/>
   <polygon id="_141417896" class="fil1 str2" points="200.854,96.624 205.5,92.5945 211.286,99.2993 207.361,104.2 "/>
   <polygon id="_141417392" class="fil1 str2" points="206.305,111.963 205.168,113.027 202.561,110.04 203.177,109.424 199.717,106.674 203.746,101.744 200.191,97.5248 201.018,96.8144 207.361,104.2 203.177,109.424 "/>
   <polygon id="_141417416" class="fil1 str2" points="209.575,97.3172 210.43,96.4818 214.673,100.061 211.947,98.4729 211.286,99.2993 "/>
  </g>
  <g id="_141416960">
   <polygon id="_141416768" class="fil1 str2" points="234.965,275.511 243.159,264.122 238.635,259.723 229.935,271.942 "/>
   <polygon id="_141417152" class="fil1 str2" points="247.918,274.311 250.552,268.754 242.54,264.982 238.874,270.078 "/>
   <polygon id="_141417008" class="fil1 str2" points="231.679,273.18 230.96,274.56 234.537,276.27 234.965,275.511 238.543,278.106 242.21,272.9 247.229,275.192 247.691,274.205 238.874,270.078 234.965,275.511 "/>
   <polygon id="_141417536" class="fil1 str2" points="244.909,266.097 245.484,265.049 240.897,261.923 243.159,264.122 242.54,264.982 "/>
  </g>
  <g id="_141415712">
   <polygon id="_141416792" class="fil1 str2" points="99.1646,206.914 99.3077,192.885 93.0767,191.893 92.9973,206.892 "/>
   <polygon id="_141416528" class="fil1 str2" points="109.065,198.476 108.02,192.416 99.2968,193.944 99.2329,200.222 "/>
   <polygon id="_141416600" class="fil1 str2" points="95.1359,206.9 95.3426,208.443 99.2516,207.781 99.1646,206.914 103.584,206.976 103.586,200.609 109.009,199.593 108.818,198.52 99.2329,200.222 99.1646,206.914 "/>
   <polygon id="_141416696" class="fil1 str2" points="101.876,193.492 101.742,192.304 96.1922,192.389 99.3077,192.885 99.2968,193.944 "/>
  </g>
  <g id="_141416048">
   <polygon id="_141416336" class="fil1 str2" points="52.0799,206.553 54.6795,192.766 48.7189,190.697 46.0119,205.451 "/>
   <polygon id="_141415880" class="fil1 str2" points="63.3063,199.981 63.3391,193.831 54.4833,193.807 53.32,199.976 "/>
   <polygon id="_141416384" class="fil1 str2" points="48.116,205.833 48.0491,207.388 52.0135,207.422 52.0799,206.553 56.4201,207.389 57.5377,201.121 63.055,201.071 63.0555,199.981 53.32,199.976 52.0799,206.553 "/>
   <polygon id="_141416144" class="fil1 str2" points="57.1013,193.814 57.1784,192.621 51.6992,191.732 54.6795,192.766 54.4833,193.807 "/>
  </g>
  <g id="_141431864">
   <polygon id="_141415688" class="fil1 str1" points="272.234,140.038 275.777,135.116 282.079,139.819 278.411,144.647 "/>
   <polygon id="_141416072" class="fil1 str1" points="273.896,138.471 275.777,135.774 279.066,138.234 278.658,138.829 280.966,140.492 279.47,142.588 "/>
  </g>
  <g id="_141431048">
   <polygon id="_141415928" class="fil1 str1" points="224.454,109.255 229.196,105.473 233.992,111.705 229.155,115.362 "/>
   <polygon id="_141415640" class="fil1 str1" points="226.478,108.195 229.018,106.107 231.52,109.364 230.966,109.827 232.739,112.053 230.731,113.665 "/>
  </g>
  <g id="_141430424">
   <polygon id="_141431216" class="fil1 str1" points="194.657,77.7372 199.399,73.9559 204.195,80.1875 199.358,83.8444 "/>
   <polygon id="_141431792" class="fil1 str1" points="196.681,76.6772 199.221,74.5898 201.722,77.8468 201.169,78.3101 202.941,80.5353 200.934,82.1479 "/>
  </g>
  <g id="_141430328">
   <polygon id="_141431648" class="fil1 str1" points="165.572,52.0396 170.314,48.2583 175.11,54.4899 170.273,58.1468 "/>
   <polygon id="_141431000" class="fil1 str1" points="167.596,50.9796 170.136,48.8922 172.637,52.1492 172.084,52.6125 173.857,54.8377 171.849,56.4503 "/>
  </g>
  <g id="_141430640">
   <polygon id="_141430928" class="fil1 str1" points="129.14,34.8772 133.033,30.2266 138.974,35.3772 134.963,39.9248 "/>
   <polygon id="_141430232" class="fil1 str1" points="130.911,33.435 132.985,30.8832 136.085,33.5763 135.635,34.1407 137.815,35.9679 136.17,37.9482 "/>
  </g>
  <g id="_141430544">
   <polygon id="_141430280" class="fil1 str1" points="68.923,68.8496 70.5556,63.0086 62.9471,61.0227 61.4662,66.9029 "/>
   <polygon id="_141430304" class="fil1 str1" points="69.1099,66.5727 70.0413,63.4197 66.0668,62.3867 65.856,63.077 63.1157,62.3126 62.4136,64.7899 "/>
  </g>
  <g id="_141430136">
   <polygon id="_141430832" class="fil1 str1" points="64.3872,100.04 62.9395,105.929 55.3369,103.921 56.9362,98.0717 "/>
   <polygon id="_141430616" class="fil1 str1" points="63.4314,102.115 62.6935,105.319 58.7243,104.266 58.8798,103.561 56.1175,102.88 56.7231,100.378 "/>
  </g>
  <g id="_141429752">
   <polygon id="_141430160" class="fil1 str1" points="37.9949,128.987 40.1756,134.646 32.7905,137.347 30.7571,131.634 "/>
   <polygon id="_141430376" class="fil1 str1" points="38.3975,131.236 39.6246,134.286 35.7663,135.692 35.4908,135.025 32.8356,136.047 31.9011,133.647 "/>
  </g>
  <g id="_141430112">
   <polygon id="_141429656" class="fil1 str1" points="201.288,190.518 197.647,195.369 191.441,190.54 195.205,185.786 "/>
   <polygon id="_141429680" class="fil1 str1" points="199.595,192.052 197.66,194.71 194.422,192.185 194.841,191.598 192.567,189.889 194.105,187.824 "/>
  </g>
  <g id="_141428792">
   <rect id="_141429872" class="fil1 str4" transform="matrix(0.687247 -0.726424 0.726424 0.687247 191.027 209.948)" width="12.559" height="4.93403"/>
   <polygon id="_141429944" class="fil1 str4" points="193.224,201.646 196.338,198.354 199.324,201.178 196.21,204.47 "/>
   <polygon id="_141429776" class="fil1 str4" points="194.601,200.191 196.338,198.354 198.288,200.199 196.551,202.035 "/>
  </g>
  <g id="_141429416">
   <rect id="_141429344" class="fil1 str4" transform="matrix(-0.811122 0.584877 -0.584877 -0.811122 324.881 152.804)" width="12.559" height="4.93403"/>
   <polygon id="_141428912" class="fil1 str4" points="321.168,160.547 317.493,163.198 315.089,159.864 318.764,157.214 "/>
   <polygon id="_141429632" class="fil1 str4" points="319.543,161.719 317.493,163.198 315.923,161.02 317.973,159.542 "/>
  </g>
  <g id="_141428000">
   <rect id="_141429368" class="fil1 str4" transform="matrix(-0.595381 0.803443 -0.803443 -0.595381 288.541 125.98)" width="12.559" height="4.93403"/>
   <polygon id="_141429200" class="fil1 str4" points="287.353,134.486 284.656,138.126 281.354,135.679 284.051,132.039 "/>
   <polygon id="_141429224" class="fil1 str4" points="286.161,136.095 284.656,138.126 282.499,136.528 284.004,134.497 "/>
  </g>
  <g id="_141428288">
   <rect id="_141428096" class="fil1 str4" transform="matrix(-0.866352 0.499434 -0.499434 -0.866352 248.867 95.6307)" width="12.559" height="4.93403"/>
   <polygon id="_141428744" class="fil1 str4" points="244.386,102.957 240.461,105.22 238.408,101.66 242.334,99.3969 "/>
   <polygon id="_141429392" class="fil1 str4" points="242.651,103.958 240.461,105.22 239.12,102.895 241.31,101.632 "/>
  </g>
  <g id="_141428648">
   <rect id="_141428216" class="fil1 str4" transform="matrix(-0.774814 0.632189 -0.632189 -0.774814 219.805 68.377)" width="12.559" height="4.93403"/>
   <polygon id="_141428120" class="fil1 str4" points="216.56,76.3285 213.049,79.1929 210.451,76.0089 213.962,73.1444 "/>
   <polygon id="_141428552" class="fil1 str4" points="215.008,77.5948 213.049,79.1929 211.352,77.1132 213.311,75.515 "/>
  </g>
  <g id="_141427544">
   <rect id="_141428048" class="fil1 str4" transform="matrix(-0.774814 0.632189 -0.632189 -0.774814 184.799 39.3819)" width="12.559" height="4.93403"/>
   <polygon id="_141428072" class="fil1 str4" points="181.555,47.3333 178.044,50.1978 175.446,47.0137 178.957,44.1492 "/>
   <polygon id="_141428384" class="fil1 str4" points="180.003,48.5996 178.044,50.1978 176.347,48.1181 178.306,46.5199 "/>
  </g>
  <g id="_141427232">
   <rect id="_141427736" class="fil1 str4" transform="matrix(-0.639745 0.768587 -0.768587 -0.639745 149.703 19.8164)" width="12.559" height="4.93403"/>
   <polygon id="_141427424" class="fil1 str4" points="148.038,28.2413 145.139,31.7238 141.98,29.0948 144.879,25.6123 "/>
   <polygon id="_141428360" class="fil1 str4" points="146.756,29.7808 145.139,31.7238 143.076,30.0066 144.693,28.0636 "/>
  </g>
  <g id="_141427832">
   <path id="_141427880" class="fil1 str2" d="M148.249 118.74l-3.071 7.34377 23.1885 9.8362 2.89439 -6.73916 -23.0119 -10.4408zm16.9129 11.75c0.614412,0 1.11269,0.49828 1.11269,1.11269 0,0.614412 -0.49828,1.11269 -1.11269,1.11269 -0.614412,0 -1.11269,-0.49828 -1.11269,-1.11269 0,-0.614412 0.49828,-1.11269 1.11269,-1.11269z"/>
   <polygon id="_141427712" class="fil1 str2" points="160.472,123.255 158.983,126.816 170.228,131.586 171.632,128.318 "/>
  </g>
  <line class="fil3 str3" x1="40.2124" y1="68.6265" x2="78.525" y2= "78.9267" />
  <line class="fil3 str3" x1="30.0826" y1="106.299" x2="68.3952" y2= "116.6" />
  <line class="fil3 str3" x1="84.6284" y1="55.1606" x2="62.2652" y2= "136.83" />
  <line class="fil3 str3" x1="72.6792" y1="98.7986" x2="113.022" y2= "109.845" />
  <line class="fil3 str3" x1="118.55" y1="89.9288" x2="107.403" y2= "130.637" />
  <line class="fil3 str3" x1="55.9461" y1="182.594" x2="53.8174" y2= "149.392" />
  <line class="fil3 str3" x1="94.4154" y1="180.18" x2="91.9469" y2= "141.678" />
  <line class="fil3 str3" x1="133.255" y1="177.208" x2="130.97" y2= "141.565" />
  <g id="_141597992">
   <polygon id="_141427088" class="fil1 str2" points="267.539,180.172 279.789,179.029 280.329,185.593 268.079,186.736 "/>
   <polygon id="_141426536" class="fil1 str2" points="270.131,179.93 279.789,179.029 280.329,185.593 270.67,186.494 "/>
  </g>
  <polygon class="fil1 str2" points="277.602,191.563 279.942,187.002 282.721,188.459 280.444,193.022 "/>
 </g>
</svg>
