<?xml version="1.0" encoding="UTF-8"?>
<!DOCTYPE svg PUBLIC "-//W3C//DTD SVG 1.1//EN" "http://www.w3.org/Graphics/SVG/1.1/DTD/svg11.dtd">
<!-- Creator: CorelDRAW -->
<svg xmlns="http://www.w3.org/2000/svg" xml:space="preserve" width="60.6776mm" height="81.1388mm" style="shape-rendering:geometricPrecision; text-rendering:geometricPrecision; image-rendering:optimizeQuality; fill-rule:evenodd; clip-rule:evenodd"
viewBox="0 0 60.6776 81.1388"
 xmlns:xlink="http://www.w3.org/1999/xlink">
 <defs>
  <style type="text/css">
   <![CDATA[
    .str0 {stroke:#85B100;stroke-width:0.3528;stroke-linecap:round;stroke-linejoin:round}
    .str1 {stroke:#EBEFF0;stroke-width:0.7056;stroke-linecap:round;stroke-linejoin:round}
    .fil2 {fill:none}
    .fil0 {fill:black}
    .fil1 {fill:#85B100}
    .fil3 {fill:#EBEFF0;fill-rule:nonzero}
   ]]>
  </style>
 </defs>
 <g id="Слой_x0020_1">
  <metadata id="CorelCorpID_0Corel-Layer"/>
  <path class="fil0" d="M6.9302 73.34c0,-1.7484 5.6729,-3.1675 12.6698,-3.1675 6.997,0 12.6698,1.4191 12.6698,3.1675 0,1.7484 -5.6728,3.1675 -12.6698,3.1675 -6.9969,0 -12.6698,-1.4191 -12.6698,-3.1675z"/>
  <path class="fil1" d="M31.2859 56.5021l-1.5805 17.3165 -1.5806 -17.3165c-0.0222,-0.3865 0.0855,-0.7001 0.2566,-0.9439 0.2755,-0.4466 0.757,-0.7445 1.324,-0.7445 0.567,0 1.0768,0.3168 1.346,0.7856 0.1584,0.2375 0.2534,0.5448 0.2345,0.9028z"/>
  <path class="fil1" d="M4.999 31.3746c0,-13.9939 11.3459,-25.3398 25.3398,-25.3398 13.9939,0 25.3398,11.3459 25.3398,25.3398 0,13.9938 -11.3459,25.3396 -25.3398,25.3396 -13.9939,0 -25.3398,-11.3458 -25.3398,-25.3396z"/>
  <path class="fil2 str0" d="M3.4153 31.3746c0,-14.8681 12.0555,-26.9235 26.9235,-26.9235 14.868,0 26.9235,12.0554 26.9235,26.9235 0,14.868 -12.0555,26.9234 -26.9235,26.9234 -14.868,0 -26.9235,-12.0554 -26.9235,-26.9234"/>
  <polygon class="fil2 str1" points="47.3101,19.6993 46.1761,19.6993 46.1761,28.5239 47.3101,28.5239 "/>
  <polygon class="fil2 str1" points="45.4634,29.8035 39.5497,39.9268 "/>
  <polygon class="fil2 str1" points="38.9385,29.8035 37.7633,39.9268 "/>
  <polygon class="fil2 str1" points="24.8148,29.8035 23.6935,34.0479 "/>
  <polygon class="fil2 str1" points="26.8039,29.8035 27.2125,36.1068 "/>
  <polygon class="fil2 str1" points="32.2075,29.8035 30.4749,38.0167 "/>
  <polygon class="fil2 str1" points="35.318,29.8035 37.0506,39.9268 "/>
  <polygon class="fil2 str1" points="12.6612,24.2161 15.9205,24.2161 15.9205,26.031 12.6612,26.031 "/>
  <polygon class="fil2 str1" points="17.1431,24.2066 21.8722,24.2066 21.8722,32.9552 17.1431,32.9552 "/>
  <polygon class="fil2 str1" points="22.6957,24.2224 38.5932,24.2224 38.5932,26.9781 22.6957,26.9781 "/>
  <polyline class="fil2 str1" points="53.8572,39.9268 33.7375,39.9268 21.8216,32.952 5.0429,32.8791 "/>
  <polygon class="fil2 str1" points="17.1431,29.8035 12.6612,29.8035 12.6612,21.7993 47.3101,17.7544 47.3101,29.8035 21.8722,29.8035 "/>
  <path class="fil3" d="M24.1268 43.8199l0 2.6509 0.8903 0c0.0775,0.0007 0.155,-0.0053 0.2325,-0.0166 0.0775,-0.0119 0.1537,-0.0337 0.2278,-0.0649 0.0742,-0.0311 0.1451,-0.0755 0.2113,-0.1331 0.0603,-0.055 0.1074,-0.1139 0.1398,-0.1769 0.0331,-0.0629 0.0563,-0.1258 0.0689,-0.1881 0.0126,-0.0616 0.0185,-0.1192 0.0179,-0.1715 0.0006,-0.0471 -0.004,-0.0994 -0.0139,-0.157 -0.01,-0.0577 -0.0292,-0.1159 -0.057,-0.1749 -0.0272,-0.0589 -0.0676,-0.1139 -0.1199,-0.1649 -0.0225,-0.0219 -0.049,-0.0437 -0.0808,-0.0656 -0.0318,-0.0219 -0.0689,-0.0417 -0.1126,-0.0596 -0.0437,-0.0186 -0.0941,-0.0325 -0.1523,-0.0418 0.0192,-0.0099 0.0443,-0.0264 0.0768,-0.0503 0.0324,-0.0232 0.0656,-0.0556 0.0993,-0.0967 0.0338,-0.0411 0.0623,-0.0921 0.0855,-0.1537 0.0232,-0.0616 0.0358,-0.1344 0.0364,-0.2199 0,-0.0748 -0.0099,-0.1464 -0.0291,-0.2146 -0.0199,-0.0682 -0.0477,-0.1311 -0.0848,-0.1881 -0.0364,-0.057 -0.0808,-0.1053 -0.1325,-0.1457 -0.0543,-0.0411 -0.1113,-0.0736 -0.1709,-0.0967 -0.0603,-0.0232 -0.1192,-0.0391 -0.1782,-0.0497 -0.0589,-0.01 -0.1139,-0.0159 -0.1656,-0.0179 -0.0516,-0.002 -0.096,-0.0033 -0.1331,-0.0027l-0.6558 0zm0.5167 0.4213l0.151 0c0.0716,-0.0006 0.1371,0.0106 0.1968,0.0325 0.0596,0.0225 0.1079,0.0576 0.1444,0.1073 0.0364,0.049 0.0556,0.1132 0.0563,0.1941 -0.0007,0.0669 -0.012,0.1225 -0.0338,0.1656 -0.0225,0.043 -0.0504,0.0775 -0.0848,0.102 -0.0338,0.0245 -0.0696,0.0424 -0.1073,0.0536 -0.0371,0.0113 -0.0716,0.0179 -0.1033,0.0212 -0.0312,0.0027 -0.0557,0.004 -0.0722,0.0033l-0.1471 0 0 -0.6796zm0 1.0771l0.1908 0c0.0563,-0.0014 0.1152,0.0013 0.1768,0.0066 0.0616,0.0053 0.1206,0.0205 0.1769,0.045 0.055,0.0259 0.0967,0.057 0.1245,0.0934 0.0285,0.0364 0.047,0.0729 0.057,0.11 0.0093,0.0371 0.0139,0.0702 0.0132,0.0987 0.0007,0.0351 -0.0039,0.0708 -0.0139,0.1086 -0.0099,0.0371 -0.0265,0.0729 -0.0503,0.1073 -0.0239,0.0344 -0.0563,0.0643 -0.0987,0.0901 -0.0391,0.0218 -0.0795,0.0384 -0.1219,0.0483 -0.0424,0.0106 -0.0835,0.0173 -0.1232,0.0199 -0.0404,0.0027 -0.0762,0.004 -0.1086,0.0033l-0.2226 0 0 -0.7312z"/>
  <polygon id="1" class="fil3" points="26.3922,43.8199 26.3922,46.5225 26.7499,46.5225 28.2125,44.6824 28.2125,46.4708 28.7291,46.4708 28.7291,43.7603 28.3714,43.7603 26.9089,45.6004 26.9089,43.8199 "/>
  <path id="12" class="fil3" d="M29.5876 43.8199l0 1.5182c0.0007,0.0841 -0.0007,0.1643 -0.004,0.2411 -0.0033,0.0769 -0.0145,0.1471 -0.0331,0.2107 -0.0185,0.0642 -0.0497,0.1185 -0.094,0.1642 -0.0146,0.0153 -0.0325,0.0298 -0.055,0.0444 -0.0219,0.0146 -0.0477,0.0265 -0.0782,0.0358 -0.0305,0.0099 -0.0656,0.0146 -0.1053,0.0152 -0.0278,0 -0.0543,-0.0026 -0.0795,-0.0073 -0.0252,-0.0046 -0.0477,-0.0106 -0.0676,-0.0165l0 0.4451c0.0358,0.0079 0.0716,0.0139 0.108,0.0179 0.0358,0.004 0.0729,0.0059 0.1106,0.0059 0.0861,-0.0006 0.1623,-0.0092 0.2292,-0.0258 0.0663,-0.0165 0.1245,-0.0384 0.1742,-0.0649 0.049,-0.0265 0.0908,-0.0543 0.1252,-0.0841 0.0729,-0.061 0.1292,-0.1279 0.1689,-0.2007 0.0398,-0.0729 0.0676,-0.1484 0.0841,-0.2266 0.0173,-0.0781 0.0265,-0.1556 0.0298,-0.2325 0.0034,-0.0768 0.004,-0.1497 0.0034,-0.2185l0 -1.1764 0.771 0 0 2.2057 0.5166 0 0 -2.6509 -1.8043 0z"/>
  <path id="123" class="fil3" d="M32.2504 43.8199l0 1.5182c0.0007,0.0841 -0.0007,0.1643 -0.004,0.2411 -0.0033,0.0769 -0.0145,0.1471 -0.0331,0.2107 -0.0185,0.0642 -0.0497,0.1185 -0.094,0.1642 -0.0146,0.0153 -0.0325,0.0298 -0.055,0.0444 -0.0219,0.0146 -0.0477,0.0265 -0.0782,0.0358 -0.0305,0.0099 -0.0656,0.0146 -0.1053,0.0152 -0.0278,0 -0.0543,-0.0026 -0.0795,-0.0073 -0.0252,-0.0046 -0.0477,-0.0106 -0.0676,-0.0165l0 0.4451c0.0358,0.0079 0.0716,0.0139 0.108,0.0179 0.0358,0.004 0.0729,0.0059 0.1106,0.0059 0.0861,-0.0006 0.1623,-0.0092 0.2292,-0.0258 0.0663,-0.0165 0.1245,-0.0384 0.1742,-0.0649 0.049,-0.0265 0.0908,-0.0543 0.1252,-0.0841 0.0729,-0.061 0.1292,-0.1279 0.1689,-0.2007 0.0398,-0.0729 0.0676,-0.1484 0.0841,-0.2266 0.0173,-0.0781 0.0265,-0.1556 0.0298,-0.2325 0.0034,-0.0768 0.004,-0.1497 0.0034,-0.2185l0 -1.1764 0.771 0 0 2.2057 0.5166 0 0 -2.6509 -1.8043 0z"/>
  <path id="1234" class="fil3" d="M36.4632 46.4708l0.5564 0 -1.1168 -2.7065 -0.3895 0 -1.1486 2.7065 0.5604 0 0.2345 -0.5564 1.0691 0 0.2345 0.5564zm-1.1406 -0.9777l0.3815 -0.9538 0.3736 0.9538 -0.7551 0z"/>
  <polygon id="12345" class="fil3" points="20.4665,48.4699 19.0596,48.4699 19.0596,51.1208 19.5763,51.1208 19.5763,48.9151 20.4665,48.9151 "/>
  <path id="123456" class="fil3" d="M21.0468 48.4699l0 1.5182c0.0007,0.0841 -0.0007,0.1643 -0.004,0.2411 -0.0033,0.0769 -0.0145,0.1471 -0.0331,0.2107 -0.0185,0.0642 -0.0497,0.1185 -0.094,0.1642 -0.0146,0.0153 -0.0325,0.0298 -0.055,0.0444 -0.0219,0.0146 -0.0477,0.0265 -0.0782,0.0358 -0.0305,0.0099 -0.0656,0.0146 -0.1053,0.0152 -0.0278,0 -0.0543,-0.0026 -0.0795,-0.0073 -0.0252,-0.0046 -0.0477,-0.0106 -0.0676,-0.0165l0 0.4451c0.0358,0.0079 0.0716,0.0139 0.108,0.0179 0.0358,0.004 0.0729,0.0059 0.1106,0.0059 0.0861,-0.0006 0.1623,-0.0092 0.2292,-0.0258 0.0663,-0.0165 0.1245,-0.0384 0.1742,-0.0649 0.049,-0.0265 0.0908,-0.0543 0.1252,-0.0841 0.0729,-0.061 0.1292,-0.1279 0.1689,-0.2007 0.0398,-0.0729 0.0676,-0.1484 0.0841,-0.2266 0.0173,-0.0781 0.0265,-0.1556 0.0298,-0.2325 0.0034,-0.0768 0.004,-0.1497 0.0034,-0.2185l0 -1.1764 0.771 0 0 2.2057 0.5166 0 0 -2.6509 -1.8043 0z"/>
  <path id="1234567" class="fil3" d="M25.2596 51.1208l0.5564 0 -1.1168 -2.7065 -0.3895 0 -1.1486 2.7065 0.5604 0 0.2345 -0.5564 1.0691 0 0.2345 0.5564zm-1.1406 -0.9777l0.3815 -0.9538 0.3736 0.9538 -0.7551 0z"/>
  <path id="12345678" class="fil3" d="M26.3803 48.4699l0 1.1526c0,0.1212 -0.0046,0.2259 -0.0132,0.3133 -0.0087,0.0881 -0.0199,0.1629 -0.0345,0.2245 -0.0146,0.0623 -0.0305,0.1146 -0.0477,0.1577 -0.0265,0.0669 -0.0609,0.1278 -0.102,0.1828 -0.0417,0.055 -0.0894,0.098 -0.1431,0.1298 -0.0536,0.0318 -0.1126,0.0471 -0.1762,0.0451l0 1.0412 0.477 0 0 -0.5961 1.6294 0 0 0.5961 0.4769 0 0 -1.0412 -0.2782 0 0 -2.2058 -1.7884 0zm0.5008 0.4452l0.771 0 0 1.7606 -1.0691 0c0.0384,-0.0351 0.0748,-0.0782 0.1106,-0.1285 0.0358,-0.051 0.0676,-0.1126 0.0961,-0.1855 0.0159,-0.0417 0.0311,-0.094 0.045,-0.157 0.0139,-0.0636 0.0245,-0.1424 0.0331,-0.2371 0.0086,-0.0941 0.0133,-0.2093 0.0133,-0.3451l0 -0.7074z"/>
  <polygon id="123456789" class="fil3" points="28.7887,48.4699 28.7887,51.1725 29.1464,51.1725 30.609,49.3324 30.609,51.1208 31.1256,51.1208 31.1256,48.4103 30.7679,48.4103 29.3054,50.2504 29.3054,48.4699 "/>
  <path id="12345678910" class="fil3" d="M33.0174 48.4103c-0.2093,0.0007 -0.4007,0.0351 -0.5729,0.1034 -0.1729,0.0675 -0.322,0.1636 -0.4472,0.2874 -0.1258,0.1239 -0.2225,0.2703 -0.2907,0.4392 -0.0683,0.1689 -0.1034,0.3544 -0.104,0.5571 0.0006,0.2026 0.0357,0.3881 0.104,0.5564 0.0682,0.1682 0.1649,0.3139 0.2907,0.4378 0.1252,0.1232 0.2743,0.2186 0.4472,0.2861 0.1722,0.0676 0.3636,0.1021 0.5729,0.1027 0.2093,-0.0006 0.4008,-0.0351 0.573,-0.1027 0.1729,-0.0675 0.3219,-0.1629 0.4478,-0.2861 0.1251,-0.1239 0.2219,-0.2696 0.2907,-0.4378 0.0683,-0.1683 0.1027,-0.3538 0.1034,-0.5564 -0.0007,-0.2027 -0.0351,-0.3882 -0.1034,-0.5571 -0.0688,-0.1689 -0.1656,-0.3153 -0.2907,-0.4392 -0.1259,-0.1238 -0.2749,-0.2199 -0.4478,-0.2874 -0.1722,-0.0683 -0.3637,-0.1027 -0.573,-0.1034zm0 2.3011c-0.1298,-0.0006 -0.2484,-0.0231 -0.3557,-0.0675 -0.1073,-0.0444 -0.2007,-0.1067 -0.2795,-0.1881 -0.0782,-0.0815 -0.1391,-0.1776 -0.1822,-0.2895 -0.0424,-0.1113 -0.0642,-0.2345 -0.0649,-0.3689 0.0007,-0.1345 0.0225,-0.2584 0.0649,-0.3697 0.0431,-0.1119 0.104,-0.2086 0.1822,-0.2907 0.0788,-0.0815 0.1722,-0.1451 0.2795,-0.1901 0.1073,-0.0444 0.2259,-0.0669 0.3557,-0.0676 0.1298,0.0007 0.2484,0.0232 0.3557,0.0676 0.108,0.045 0.2007,0.1086 0.2795,0.1901 0.0782,0.0821 0.1391,0.1788 0.1822,0.2907 0.0431,0.1113 0.0643,0.2352 0.0649,0.3697 -0.0006,0.1344 -0.0218,0.2576 -0.0649,0.3689 -0.0431,0.1119 -0.104,0.208 -0.1822,0.2895 -0.0788,0.0814 -0.1715,0.1437 -0.2795,0.1881 -0.1073,0.0444 -0.2259,0.0669 -0.3557,0.0675z"/>
  <path id="1234567891011" class="fil3" d="M35.1635 48.4699l0 1.5182c0.0007,0.0841 -0.0007,0.1643 -0.004,0.2411 -0.0033,0.0769 -0.0145,0.1471 -0.0331,0.2107 -0.0185,0.0642 -0.0497,0.1185 -0.094,0.1642 -0.0146,0.0153 -0.0325,0.0298 -0.055,0.0444 -0.0219,0.0146 -0.0477,0.0265 -0.0782,0.0358 -0.0305,0.0099 -0.0656,0.0146 -0.1053,0.0152 -0.0278,0 -0.0543,-0.0026 -0.0795,-0.0073 -0.0252,-0.0046 -0.0477,-0.0106 -0.0676,-0.0165l0 0.4451c0.0358,0.0079 0.0716,0.0139 0.108,0.0179 0.0358,0.004 0.0729,0.0059 0.1106,0.0059 0.0861,-0.0006 0.1623,-0.0092 0.2292,-0.0258 0.0663,-0.0165 0.1245,-0.0384 0.1742,-0.0649 0.049,-0.0265 0.0908,-0.0543 0.1252,-0.0841 0.0729,-0.061 0.1292,-0.1279 0.1689,-0.2007 0.0398,-0.0729 0.0676,-0.1484 0.0841,-0.2266 0.0173,-0.0781 0.0265,-0.1556 0.0298,-0.2325 0.0034,-0.0768 0.004,-0.1497 0.0034,-0.2185l0 -1.1764 0.771 0 0 2.2057 0.5166 0 0 -2.6509 -1.8043 0z"/>
  <polygon id="123456789101112" class="fil3" points="37.2778,48.4699 38.2635,50.3816 37.8939,51.1208 38.4582,51.1208 39.6863,48.4699 39.1219,48.4699 38.5536,49.8053 37.8819,48.4699 "/>
  <path id="12345678910111213" class="fil3" d="M41.9198 50.4213c-0.0782,0.0921 -0.1702,0.1636 -0.2755,0.214 -0.106,0.0503 -0.2206,0.0755 -0.3445,0.0761 -0.0894,0 -0.1775,-0.0125 -0.2643,-0.0377 -0.0867,-0.0252 -0.1682,-0.0623 -0.2444,-0.112 -0.0762,-0.049 -0.1431,-0.1106 -0.2014,-0.1834 -0.0582,-0.0729 -0.104,-0.157 -0.1377,-0.2531 -0.0332,-0.0953 -0.0497,-0.202 -0.0504,-0.3199 0.0007,-0.1232 0.0212,-0.2404 0.0623,-0.3511 0.0411,-0.1106 0.1,-0.2093 0.1768,-0.2954 0.0775,-0.0861 0.1696,-0.1543 0.2776,-0.204 0.1073,-0.049 0.2278,-0.0748 0.3616,-0.0755 0.0246,-0.0007 0.0597,0.002 0.106,0.0073 0.0464,0.0059 0.0994,0.0179 0.159,0.0371 0.0596,0.0192 0.1212,0.049 0.1861,0.0894 0.0643,0.0404 0.1272,0.0954 0.1888,0.1643l0 -0.6041c-0.0808,-0.0431 -0.1596,-0.0769 -0.2351,-0.1007 -0.0762,-0.0239 -0.1491,-0.0398 -0.2186,-0.049 -0.0696,-0.0093 -0.1358,-0.0139 -0.1981,-0.0133 -0.1894,-0.0013 -0.3656,0.0259 -0.5286,0.0808 -0.1636,0.055 -0.3119,0.1451 -0.4451,0.269 -0.0768,0.0702 -0.147,0.1556 -0.2106,0.2556 -0.0643,0.1001 -0.1159,0.2153 -0.1544,0.3458 -0.039,0.1305 -0.0589,0.2756 -0.0602,0.4359 -0.0007,0.1298 0.0139,0.253 0.0424,0.3702 0.0284,0.1173 0.0741,0.2299 0.1364,0.3365 0.0629,0.1067 0.1451,0.2087 0.2464,0.3067 0.0735,0.0709 0.1557,0.1338 0.2471,0.1894 0.0914,0.0557 0.1961,0.0994 0.314,0.1312 0.1179,0.0318 0.2543,0.0484 0.4086,0.049 0.0954,-0.0006 0.1829,-0.0079 0.2617,-0.0218 0.0795,-0.014 0.1517,-0.0325 0.2173,-0.0557 0.0649,-0.0238 0.1238,-0.049 0.1768,-0.0775l0 -0.6041z"/>
 </g>
</svg>
