<?xml version="1.0" encoding="UTF-8"?>
<!DOCTYPE svg PUBLIC "-//W3C//DTD SVG 1.1//EN" "http://www.w3.org/Graphics/SVG/1.1/DTD/svg11.dtd">
<!-- Creator: CorelDRAW -->
<svg xmlns="http://www.w3.org/2000/svg" xml:space="preserve" width="600px" height="120px" style="shape-rendering:geometricPrecision; text-rendering:geometricPrecision; image-rendering:optimizeQuality; fill-rule:evenodd; clip-rule:evenodd"
viewBox="0 0 618.4 101.346"
 xmlns:xlink="http://www.w3.org/1999/xlink">
 <defs>
  <style type="text/css">
   <![CDATA[
    .fil0 {fill:#85b200}
   ]]>
  </style>
 </defs>
 <g id="Layer_x0020_1">
  <metadata id="CorelCorpID_0Corel-Layer"/>
  <path class="fil0" d="M290.741 101.346c-18.6535,0 -33.7798,-15.1275 -33.781,-33.781l0 -0.00100408c0.0012551,-18.6535 15.1275,-33.781 33.781,-33.781l0 33.781 0 0.00100408 0 33.781z"/>
  <path class="fil0" d="M403.473 33.782l33.782 0 0 33.781 0 33.782c-18.6535,0 -33.782,-15.1285 -33.782,-33.782l0 -33.781z"/>
  <polygon class="fil0" points="473.955,67.563 473.955,101.344 440.347,101.344 440.173,101.346 440.173,101.344 440.173,67.564 440.173,67.563 440.173,33.782 473.955,33.782 "/>
  <polygon class="fil0" points="510.794,101.344 477.013,101.344 477.013,67.563 477.013,33.782 510.794,33.782 "/>
  <path class="fil0" d="M515.495 67.5992c17.529,-1.231 31.9988,-15.8499 31.9988,-33.6947l-33.781 0 0 33.7818 0 33.6588 33.781 0c0,-17.8493 -14.4635,-32.4689 -31.9988,-33.6959 -0.452087,-0.0308755 -0.420207,-0.0213367 0,-0.049953z"/>
  <path class="fil0" d="M107.307 101.346c-18.6535,0 -33.781,-15.1275 -33.782,-33.781l0 -0.00100408c0.00100408,-18.6535 15.1285,-33.781 33.782,-33.781l0 33.781 0 0.00100408 0 33.781z"/>
  <path class="fil0" d="M144.01 67.562c0,18.6535 -15.1285,33.782 -33.782,33.782l0 -33.781 -0.00225918 0 0 -33.781c18.6535,0 33.781,15.1262 33.782,33.78l0.00225918 0z"/>
  <path class="fil0" d="M581.696 101.346c-18.6535,0 -33.7798,-15.1275 -33.781,-33.781l0 -0.00100408c0.0012551,-18.6535 15.1275,-33.781 33.781,-33.781l0 33.781 0 0.00100408 0 33.781z"/>
  <path class="fil0" d="M253.983 67.563l0 33.781 -33.782 0 0 -33.781 0 -33.782c18.6535,0 33.782,15.1285 33.782,33.782z"/>
  <polygon class="fil0" points="146.802,33.781 180.583,33.781 180.583,67.563 180.583,101.344 146.802,101.344 146.802,67.563 "/>
  <polygon class="fil0" points="183.501,33.781 217.282,33.781 217.282,67.563 217.282,101.344 183.501,101.344 183.501,67.563 "/>
  <path class="fil0" d="M327.443 33.782c0,-18.6545 -15.1272,-33.782 -33.7808,-33.782l0 33.782 -0.00225918 0 0 33.781 0.00225918 0c0,18.6545 15.1272,33.782 33.7808,33.782l0 -33.782 -0.00100408 0 0 -33.781 0.00100408 0z"/>
  <path class="fil0" d="M618.4 33.782c0,-18.6545 -15.1275,-33.782 -33.781,-33.782l0 33.782 -0.00200816 0 -0.0012551 0 0 33.781 0.0012551 0c0,18.6545 15.1272,33.782 33.782,33.782l0 -33.782 0 -33.781 0.00100408 0z"/>
  <path class="fil0" d="M36.7006 33.782c18.6535,0 33.781,-15.1285 33.781,-33.782l-33.781 0 0 33.782c18.6535,0 33.78,15.1262 33.781,33.78l0.00200816 0c0,18.6535 -15.1272,33.782 -33.7808,33.782l0 -33.781 -0.00225918 0 0 -33.781z"/>
  <polygon class="fil0" points="366.871,66.1054 366.871,33.783 400.652,33.783 400.652,67.563 400.652,67.564 400.652,101.344 367.045,101.344 366.87,101.346 366.87,69.2283 363.953,69.2283 363.953,101.344 330.172,101.344 330.172,67.564 330.172,67.563 330.172,33.783 363.953,33.783 363.953,66.1054 "/>
  <path class="fil0" d="M33.781 0.0190775c-18.6535,0 -33.781,15.1285 -33.781,33.782l32.7137 0c-18.1588,0.564042 -32.7127,15.4668 -32.7137,33.7629l0 0.00100408c0.00100408,18.6535 15.1275,33.781 33.781,33.781l0 -33.781 0 -0.00100408 0 -33.7629 0 -0.0180734 0 -33.7639z"/>
 </g>
</svg>
