<?xml version="1.0" encoding="UTF-8" standalone="no"?>
<svg width="31px" height="41px" viewBox="0 0 31 41" version="1.1" xmlns="http://www.w3.org/2000/svg" xmlns:xlink="http://www.w3.org/1999/xlink" xmlns:sketch="http://www.bohemiancoding.com/sketch/ns">
    <!-- Generator: Sketch 3.3.3 (12081) - http://www.bohemiancoding.com/sketch -->
    <title>small_logo</title>
    <desc>Created with Sketch.</desc>
    <defs></defs>
    <g id="Page-1" stroke="none" stroke-width="1" fill="none" fill-rule="evenodd" sketch:type="MSPage">
        <g id="Layer_x0020_1" sketch:type="MSLayerGroup" stroke="#FFFFFF" stroke-width="0.00698046" fill="#FFFFFF">
            <path d="M27.409208,2.1032875 L16.2088579,2.1032875 L14.9612659,2.11210668 C8.80587364,2.15536264 3.70115827,6.07737541 2.59683422,11.2445833 L13.7971843,11.2445833 L15.0447763,11.2357641 C21.2001685,11.1925082 26.3048839,7.2704954 27.409208,2.1032875 L27.409208,2.1032875 Z M14.9683964,15.4349549 L14.6614797,15.4433541 C7.81727008,15.6314966 2.37580992,20.6084715 2.37534388,26.6705667 C2.37581824,32.832647 7.98618619,37.8457009 14.9437487,37.9028221 L15.0443149,37.9015622 C22.0099556,37.8532668 27.6316724,32.8368425 27.6307403,26.6693068 C27.6302659,20.5017712 22.0099556,15.48615 15.0443149,15.4353552 L14.9684161,15.4349352 L14.9683964,15.4349549 Z M15.0637444,13.3355704 C23.3239081,13.2776157 30.0025674,7.32972545 30.0025674,0.0034904 L14.9423133,0.0034904 L14.9423133,0.0123095808 C6.68214965,0.0702642631 0.0034903,6.01815453 0.0034903,13.3443896 L14.5879623,13.3443896 C6.492365,13.566969 0.00395634691,19.448936 0.0034903,26.6701432 L0.0034903,26.6705631 C0.00396466895,33.9972108 6.6826157,39.9451093 14.9432454,40.0022305 L14.9432454,40.0026505 L14.964592,40.0022305 L15.0637352,40.0034904 L15.0637352,40.0013906 C23.3244167,39.9442758 30.0034903,33.9959582 30.0034903,26.6693106 L30.0025416,26.6693106 C30.0020672,19.3430755 23.3238822,13.3960481 15.0637186,13.3380558 L15.0637186,13.3372159 L15.0637186,13.335536 L15.0637444,13.3355704 Z" id="Shape" sketch:type="MSShapeGroup"></path>
        </g>
    </g>
</svg>