<svg xmlns="http://www.w3.org/2000/svg" xmlns:xlink="http://www.w3.org/1999/xlink" xml:space="preserve" width="9.6015mm" height="9.6015mm" style="shape-rendering:geometricPrecision; text-rendering:geometricPrecision; image-rendering:optimizeQuality; fill-rule:evenodd; clip-rule:evenodd" viewBox="0 0 2.11708 0.879566">
 <defs>
  <style type="text/css">
   <![CDATA[
    .str0 {stroke:#DD137B;stroke-width:0.00698046}
    .fil0 {fill:#DD137B}
   ]]>
  </style>
 </defs>
 <g id="Layer_x0020_1">
  <metadata id="CorelCorpID_0Corel-Layer"/>
  <path class="fil0 str0" d="M0.532732 0.0492938l-0.216294 0 -0.0240927 0.000192375c-0.118869,0.000943553 -0.217448,0.0864954 -0.238774,0.199209l0.216294 0 0.0240927 -0.000192375c0.118869,-0.000943553 0.217448,-0.0864954 0.238774,-0.199209zm-0.240249 0.290807l-0.00592698 0.000183214c-0.132171,0.004104 -0.237253,0.112668 -0.237262,0.244902 9.16071e-006,0.134415 0.108353,0.243766 0.242713,0.245012l0.00194207 -2.74821e-005c0.134516,-0.00105348 0.243079,-0.110478 0.243061,-0.245012 -9.16071e-006,-0.134534 -0.108545,-0.243941 -0.243061,-0.245049l-0.00146571 -9.16071e-006zm0.0018413 -0.0457944c0.159515,-0.00126418 0.288489,-0.131007 0.288489,-0.290816l-0.290834 0 0 0.000192375c-0.159515,0.00126418 -0.288489,0.131007 -0.288489,0.290816l0.281646 0c-0.156337,0.00485518 -0.281637,0.13316 -0.281646,0.290678l0 9.16071e-006c9.16071e-006,0.159818 0.128983,0.289561 0.288507,0.290807l0 9.16071e-006 0.000412232 -9.16071e-006 0.00191459 2.74821e-005 0 -4.58035e-005c0.159525,-0.00124586 0.288507,-0.130998 0.288507,-0.290816l-1.83214e-005 0c-9.16071e-006,-0.159809 -0.128974,-0.289533 -0.288489,-0.290798l0 -1.83214e-005 0 -3.66428e-005z"/>
 </g>
</svg>
