<?xml version="1.0" encoding="UTF-8" standalone="no"?>
<svg width="75px" height="96px" viewBox="0 0 75 96" version="1.1" xmlns="http://www.w3.org/2000/svg" xmlns:xlink="http://www.w3.org/1999/xlink" xmlns:sketch="http://www.bohemiancoding.com/sketch/ns">
    <!-- Generator: Sketch 3.4 (15588) - http://www.bohemiancoding.com/sketch -->
    <title>villa_iw</title>
    <desc>Created with Sketch.</desc>
    <defs></defs>
    <g id="Page-1" stroke="none" stroke-width="1" fill="none" fill-rule="evenodd" sketch:type="MSPage">
        <g id="villa_iw" sketch:type="MSLayerGroup">
            <g id="opened_marker" sketch:type="MSShapeGroup">
                <path d="M38.9367327,72.5860522 L36.7842975,96.1688705 L34.6219511,72.4789603 C16.7674116,70.940876 2.75344353,55.9588162 2.75344353,37.7060606 L2.75344353,37.7060606 C2.75344353,18.4307163 18.381405,2.80275482 37.6567493,2.80275482 C56.9320937,2.80275482 72.5600551,18.4307163 72.5600551,37.7060606 C72.5600551,56.5527627 57.6192164,71.9124482 38.9367327,72.5860522 L38.9367327,72.5860522 Z" id="Shape" fill="#85B100"></path>
                <path d="M37.654999,0.621349862 C58.1344971,0.621349862 74.7399981,17.226584 74.7399981,37.7060606 C74.7399981,58.1853994 58.1344971,74.7906336 37.654999,74.7906336 C17.1755009,74.7906336 0.569999933,58.1853994 0.569999933,37.7060606 C0.569999933,17.226584 17.1755009,0.621349862 37.654999,0.621349862 Z" id="Shape" stroke="#85B100" stroke-width="0.3528"></path>
            </g>
            <g id="villa_scheme" transform="translate(2.272727, 18.939394)" stroke="#EBEFF0" stroke-width="0.7056" sketch:type="MSShapeGroup">
                <path d="M55.8082182,16.6026171 L49.2272533,27.868167 L46.3253437,27.4491957 L47.5797853,16.6432999 L47.2293388,16.6026171 L55.8082182,16.6026171 L55.8082182,16.6026171 Z M56.2168044,16.6026171 L56.521435,16.7805723 L49.9808654,27.9769718 L67.7785124,30.5465565 L48.4797983,30.5465565 L48.3758427,30.7245117 L48.0712121,30.5465565 L45.9657754,30.5465565 L45.9610526,30.5872393 L45.6106061,30.5465565 L44.6289256,30.5465565 L44.281182,30.6060727 L44.2709958,30.5465565 L40.065427,30.5465565 L35.5700741,27.9152665 L35.226285,27.8427432 L35.2504523,27.7281806 L31.0763715,25.2849426 L30.7257626,25.3076702 L30.7185184,25.195917 L0.541184573,20.8389807 L17.2081267,20.9113952 L17.2081267,16.6026171 L11.0347107,16.6026171 L11.0347107,5.57754821 L58.7604683,0.00606060606 L58.7604683,16.6026171 L56.2168044,16.6026171 L56.2168044,16.6026171 Z M23.7220386,16.6026171 L23.7220386,20.9438017 L23.6598718,20.9438017 L25.9147489,22.2636614 L27.4103028,16.6026171 L23.7220386,16.6026171 L23.7220386,16.6026171 Z M27.7752066,16.6026171 L28.1163043,16.6927294 L26.5718139,22.5390104 L26.2316185,22.4491364 L30.7104033,25.0707284 L30.1629527,16.6254388 L30.5150138,16.6026171 L27.7752066,16.6026171 L27.7752066,16.6026171 Z M30.8685542,16.6026171 L31.4298848,25.2620268 L31.2549537,25.2733664 L35.6349031,25.9057337 L37.5974244,16.6026171 L30.8685542,16.6026171 L30.8685542,16.6026171 Z M37.957989,16.6026171 L38.3031916,16.6754386 L36.334718,26.0067714 L43.6754027,27.0666031 L41.8946806,16.6621333 L42.2424242,16.6026171 L37.957989,16.6026171 L37.957989,16.6026171 Z M42.6003541,16.6026171 L44.4093996,27.172576 L45.6267146,27.3483292 L46.8741695,16.6026171 L42.6003541,16.6026171 L42.6003541,16.6026171 Z M49.2272533,27.868167 L47.7665815,30.3686013 L48.0712121,30.5465565 L48.4797983,30.5465565 L49.9808654,27.9769718 L49.2272533,27.868167 L49.2272533,27.868167 Z M45.6267146,27.3483292 L45.2601596,30.5058736 L45.6106061,30.5465565 L45.9657754,30.5465565 L46.3253437,27.4491957 L45.6267146,27.3483292 L45.6267146,27.3483292 Z M25.9147489,22.2636614 L25.8896186,22.3587857 L26.2316185,22.4491364 L25.9147489,22.2636614 L25.9147489,22.2636614 Z M30.7104033,25.0707284 L30.7185184,25.195917 L31.2549537,25.2733664 L31.0763715,25.2849426 L30.7104033,25.0707284 L30.7104033,25.0707284 Z M23.6598718,20.9438017 L17.2081267,20.9438017 L17.2081267,20.9113952 L23.6523416,20.9393939 L23.6598718,20.9438017 L23.6598718,20.9438017 Z M55.8082182,16.6026171 L55.9121738,16.4246619 L56.2168044,16.6026171 L55.8082182,16.6026171 L55.8082182,16.6026171 Z M17.2081267,16.6026171 L17.2081267,8.89338843 L23.7220386,8.89338843 L23.7220386,16.6026171 L17.2081267,16.6026171 L17.2081267,16.6026171 Z M27.4103028,16.6026171 L27.434109,16.5125047 L27.7752066,16.6026171 L27.4103028,16.6026171 L27.4103028,16.6026171 Z M30.5150138,16.6026171 L30.8670749,16.5797954 L30.8685542,16.6026171 L30.5150138,16.6026171 L30.5150138,16.6026171 Z M37.5974244,16.6026171 L37.6127863,16.5297955 L37.957989,16.6026171 L37.5974244,16.6026171 L37.5974244,16.6026171 Z M42.2424242,16.6026171 L42.5901679,16.5431008 L42.6003541,16.6026171 L42.2424242,16.6026171 L42.2424242,16.6026171 Z M46.8741695,16.6026171 L46.8788923,16.5619342 L47.2293388,16.6026171 L46.8741695,16.6026171 L46.8741695,16.6026171 Z M58.7604683,2.68498623 L57.1984848,2.68498623 L57.1984848,14.8400826 L58.7604683,14.8400826 L58.7604683,2.68498623 L58.7604683,2.68498623 Z M11.0347107,8.90647383 L15.5241047,8.90647383 L15.5241047,11.4063361 L11.0347107,11.4063361 L11.0347107,8.90647383 L11.0347107,8.90647383 Z M24.8563361,8.91515152 L46.753719,8.91515152 L46.753719,12.7108815 L24.8563361,12.7108815 L24.8563361,8.91515152 L24.8563361,8.91515152 Z" id="Shape"></path>
            </g>
            <g id="villa_title" transform="translate(21.969697, 54.545455)" fill="#EBEFF0" sketch:type="MSShapeGroup">
                <path d="M7.13057851,0.302892562 L7.13057851,3.95426997 L8.35688705,3.95426997 C8.46363636,3.95523416 8.57038567,3.9469697 8.67713499,3.93140496 C8.7838843,3.91501377 8.88884298,3.88498623 8.99090909,3.84201102 C9.09311295,3.79917355 9.19077135,3.73801653 9.28195592,3.65867769 C9.36501377,3.58292011 9.42988981,3.50179063 9.47451791,3.41501377 C9.52011019,3.32837466 9.55206612,3.24173554 9.56942149,3.15592287 C9.58677686,3.07107438 9.59490358,2.99173554 9.59407713,2.91969697 C9.59490358,2.85482094 9.58856749,2.78278237 9.57493113,2.70344353 C9.56115702,2.62396694 9.53471074,2.54380165 9.49641873,2.46253444 C9.45895317,2.38140496 9.40330579,2.30564738 9.33126722,2.23539945 C9.30027548,2.20523416 9.2637741,2.17520661 9.21997245,2.14504132 C9.1761708,2.11487603 9.12506887,2.08760331 9.06487603,2.06294766 C9.0046832,2.03732782 8.93526171,2.01818182 8.85509642,2.0053719 C8.8815427,1.99173554 8.9161157,1.96900826 8.96088154,1.93608815 C9.00550964,1.90413223 9.05123967,1.85950413 9.0976584,1.80289256 C9.14421488,1.74628099 9.18347107,1.67603306 9.215427,1.59118457 C9.24738292,1.50633609 9.26473829,1.40606061 9.26556474,1.28829201 C9.26556474,1.18526171 9.25192837,1.08663912 9.22548209,0.992699725 C9.19807163,0.898760331 9.15977961,0.812121212 9.10867769,0.733608815 C9.05853994,0.655096419 8.99738292,0.588567493 8.9261708,0.53292011 C8.85137741,0.47630854 8.77286501,0.4315427 8.69077135,0.399724518 C8.6077135,0.367768595 8.52658402,0.345867769 8.4453168,0.331267218 C8.36418733,0.317493113 8.28842975,0.309366391 8.21721763,0.30661157 C8.14614325,0.303856749 8.08498623,0.302066116 8.0338843,0.302892562 L7.13057851,0.302892562 L7.13057851,0.302892562 L7.13057851,0.302892562 Z M7.8422865,0.883195592 L8.05027548,0.883195592 C8.14889807,0.882369146 8.23911846,0.897796143 8.32134986,0.927961433 C8.40344353,0.958953168 8.46997245,1.00730028 8.52024793,1.07575758 C8.57038567,1.14325069 8.59683196,1.23168044 8.59779614,1.34311295 C8.59683196,1.43526171 8.58126722,1.51184573 8.55123967,1.57121212 C8.52024793,1.63044077 8.48181818,1.67796143 8.43443526,1.71170799 C8.38787879,1.74545455 8.33856749,1.77011019 8.28663912,1.78553719 C8.23553719,1.80110193 8.18801653,1.81019284 8.14435262,1.81473829 C8.10137741,1.8184573 8.06763085,1.82024793 8.04490358,1.81928375 L7.8422865,1.81928375 L7.8422865,0.883195592 L7.8422865,0.883195592 L7.8422865,0.883195592 Z M7.8422865,2.36680441 L8.10509642,2.36680441 C8.18264463,2.36487603 8.2637741,2.36859504 8.34862259,2.37589532 C8.43347107,2.38319559 8.51473829,2.40413223 8.5922865,2.43787879 C8.66804408,2.47355372 8.72548209,2.51639118 8.7637741,2.56652893 C8.8030303,2.61666667 8.8285124,2.66694215 8.8422865,2.71804408 C8.85509642,2.76914601 8.86143251,2.81473829 8.86046832,2.85399449 C8.86143251,2.9023416 8.85509642,2.95151515 8.84132231,3.00358127 C8.82768595,3.0546832 8.80482094,3.10399449 8.77203857,3.15137741 C8.73911846,3.19876033 8.69449036,3.2399449 8.63608815,3.27548209 C8.5822314,3.30550964 8.52658402,3.32837466 8.46818182,3.34201102 C8.40977961,3.35661157 8.35316804,3.36584022 8.29848485,3.36942149 C8.24283747,3.3731405 8.19352617,3.37493113 8.14889807,3.37396694 L7.8422865,3.37396694 L7.8422865,2.36680441 L7.8422865,2.36680441 L7.8422865,2.36680441 Z M10.2509642,0.302892562 L10.2509642,4.02548209 L10.7436639,4.02548209 L12.7582645,1.49090909 L12.7582645,3.95426997 L13.4698347,3.95426997 L13.4698347,0.220798898 L12.977135,0.220798898 L10.9626722,2.7553719 L10.9626722,0.302892562 L10.2509642,0.302892562 L10.2509642,0.302892562 Z M14.6523416,0.302892562 L14.6523416,2.39407713 C14.6533058,2.50991736 14.6513774,2.62038567 14.646832,2.7261708 C14.6422865,2.83209366 14.6268595,2.92878788 14.6012397,3.01639118 C14.5757576,3.10482094 14.5327824,3.17961433 14.4717631,3.24256198 C14.4516529,3.26363636 14.4269972,3.28360882 14.3960055,3.30371901 C14.3658402,3.3238292 14.330303,3.34022039 14.288292,3.3530303 C14.246281,3.36666667 14.1979339,3.3731405 14.1432507,3.37396694 C14.1049587,3.37396694 14.0684573,3.37038567 14.0337466,3.36391185 C13.9990358,3.35757576 13.9680441,3.34931129 13.9406336,3.34118457 L13.9406336,3.95426997 C13.9899449,3.96515152 14.0392562,3.97341598 14.0893939,3.97892562 C14.1387052,3.98443526 14.1898072,3.98705234 14.2417355,3.98705234 C14.3603306,3.9862259 14.4652893,3.97438017 14.557438,3.95151515 C14.6487603,3.92878788 14.7289256,3.89862259 14.7973829,3.86212121 C14.864876,3.82561983 14.9224518,3.78732782 14.9698347,3.74628099 C15.0702479,3.66225895 15.1477961,3.57011019 15.2024793,3.46983471 C15.2573003,3.36942149 15.2955923,3.265427 15.3183196,3.1577135 C15.3421488,3.05013774 15.3548209,2.94338843 15.3593664,2.83746556 C15.3640496,2.73168044 15.364876,2.63126722 15.3640496,2.53650138 L15.3640496,0.916115702 L16.4260331,0.916115702 L16.4260331,3.95426997 L17.1376033,3.95426997 L17.1376033,0.302892562 L14.6523416,0.302892562 L14.6523416,0.302892562 L14.6523416,0.302892562 Z M18.3201102,0.302892562 L18.3201102,2.39407713 C18.3210744,2.50991736 18.319146,2.62038567 18.3146006,2.7261708 C18.3100551,2.83209366 18.2946281,2.92878788 18.2690083,3.01639118 C18.2435262,3.10482094 18.200551,3.17961433 18.1395317,3.24256198 C18.1194215,3.26363636 18.0947658,3.28360882 18.0637741,3.30371901 C18.0336088,3.3238292 17.9980716,3.34022039 17.9560606,3.3530303 C17.9140496,3.36666667 17.8657025,3.3731405 17.8110193,3.37396694 C17.7727273,3.37396694 17.7362259,3.37038567 17.7015152,3.36391185 C17.6668044,3.35757576 17.6358127,3.34931129 17.6084022,3.34118457 L17.6084022,3.95426997 C17.6577135,3.96515152 17.7070248,3.97341598 17.7571625,3.97892562 C17.8064738,3.98443526 17.8575758,3.98705234 17.9095041,3.98705234 C18.0280992,3.9862259 18.1330579,3.97438017 18.2252066,3.95151515 C18.3165289,3.92878788 18.3966942,3.89862259 18.4651515,3.86212121 C18.5326446,3.82561983 18.5902204,3.78732782 18.6376033,3.74628099 C18.7380165,3.66225895 18.8155647,3.57011019 18.8702479,3.46983471 C18.9250689,3.36942149 18.9633609,3.265427 18.9860882,3.1577135 C19.0099174,3.05013774 19.0225895,2.94338843 19.027135,2.83746556 C19.0318182,2.73168044 19.0326446,2.63126722 19.0318182,2.53650138 L19.0318182,0.916115702 L20.0938017,0.916115702 L20.0938017,3.95426997 L20.8053719,3.95426997 L20.8053719,0.302892562 L18.3201102,0.302892562 L18.3201102,0.302892562 L18.3201102,0.302892562 Z M24.122865,3.95426997 L24.8892562,3.95426997 L23.3509642,0.22630854 L22.8144628,0.22630854 L21.2323691,3.95426997 L22.00427,3.95426997 L22.3272727,3.18787879 L23.7998623,3.18787879 L24.122865,3.95426997 L24.122865,3.95426997 L24.122865,3.95426997 Z M22.5517906,2.60757576 L23.0772727,1.29380165 L23.5918733,2.60757576 L22.5517906,2.60757576 L22.5517906,2.60757576 L22.5517906,2.60757576 Z M2.08884298,6.70785124 L0.150964187,6.70785124 L0.150964187,10.3592287 L0.862672176,10.3592287 L0.862672176,7.32107438 L2.08884298,7.32107438 L2.08884298,6.70785124 L2.08884298,6.70785124 Z M2.88815427,6.70785124 L2.88815427,8.79903581 C2.88911846,8.91487603 2.88719008,9.02534435 2.88264463,9.13112948 C2.87809917,9.23705234 2.86267218,9.33374656 2.83705234,9.42134986 C2.81157025,9.50977961 2.76859504,9.584573 2.70757576,9.64752066 C2.68746556,9.66859504 2.66280992,9.68856749 2.63181818,9.70867769 C2.60165289,9.72878788 2.5661157,9.74517906 2.52410468,9.75798898 C2.48209366,9.77162534 2.43374656,9.77809917 2.37906336,9.77892562 C2.34077135,9.77892562 2.30426997,9.77534435 2.26955923,9.76887052 C2.23484848,9.76253444 2.20385675,9.75426997 2.17644628,9.74614325 L2.17644628,10.3592287 C2.22575758,10.3701102 2.27506887,10.3783747 2.32520661,10.3838843 C2.37451791,10.3893939 2.42561983,10.392011 2.47754821,10.392011 C2.59614325,10.3911846 2.70110193,10.3793388 2.79325069,10.3564738 C2.884573,10.3337466 2.96473829,10.3035813 3.03319559,10.2670799 C3.10068871,10.2305785 3.15826446,10.1922865 3.20564738,10.1512397 C3.30606061,10.0672176 3.38360882,9.97506887 3.43829201,9.87479339 C3.49311295,9.77438017 3.53140496,9.67038567 3.55413223,9.56267218 C3.57796143,9.45509642 3.59063361,9.34834711 3.59517906,9.24242424 C3.59986226,9.13663912 3.60068871,9.0362259 3.59986226,8.94146006 L3.59986226,7.32107438 L4.66184573,7.32107438 L4.66184573,10.3592287 L5.37341598,10.3592287 L5.37341598,6.70785124 L2.88815427,6.70785124 L2.88815427,6.70785124 L2.88815427,6.70785124 Z M8.69090909,10.3592287 L9.45730028,10.3592287 L7.91900826,6.63126722 L7.38250689,6.63126722 L5.80041322,10.3592287 L6.57231405,10.3592287 L6.8953168,9.59283747 L8.36790634,9.59283747 L8.69090909,10.3592287 L8.69090909,10.3592287 Z M7.11983471,9.01253444 L7.6453168,7.69876033 L8.15991736,9.01253444 L7.11983471,9.01253444 L7.11983471,9.01253444 Z M10.234573,6.70785124 L10.234573,8.29545455 C10.234573,8.46239669 10.2282369,8.60661157 10.2163912,8.72699725 C10.2044077,8.84834711 10.1889807,8.95137741 10.1688705,9.0362259 C10.1487603,9.12203857 10.1268595,9.19407713 10.103168,9.25344353 C10.0666667,9.34559229 10.0192837,9.42947658 9.96267218,9.50523416 C9.90523416,9.58099174 9.83953168,9.64022039 9.76556474,9.68402204 C9.69173554,9.72782369 9.61046832,9.74889807 9.52286501,9.74614325 L9.52286501,11.180303 L10.1798898,11.180303 L10.1798898,10.3592287 L12.4242424,10.3592287 L12.4242424,11.180303 L13.0811295,11.180303 L13.0811295,9.74614325 L12.6979339,9.74614325 L12.6979339,6.70785124 L10.234573,6.70785124 L10.234573,6.70785124 L10.234573,6.70785124 Z M10.9243802,7.32107438 L11.9863636,7.32107438 L11.9863636,9.74614325 L10.5137741,9.74614325 C10.5666667,9.69779614 10.6168044,9.63842975 10.6661157,9.56914601 C10.715427,9.49889807 10.7592287,9.41404959 10.7984848,9.31363636 C10.8203857,9.25619835 10.8413223,9.18415978 10.8604683,9.09738292 C10.8796143,9.00977961 10.8942149,8.90123967 10.9060606,8.7707989 C10.9179063,8.64118457 10.9243802,8.48250689 10.9243802,8.29545455 L10.9243802,7.32107438 L10.9243802,7.32107438 L10.9243802,7.32107438 Z M13.5519284,6.70785124 L13.5519284,10.4304408 L14.0446281,10.4304408 L16.0592287,7.89586777 L16.0592287,10.3592287 L16.7707989,10.3592287 L16.7707989,6.62575758 L16.2780992,6.62575758 L14.2636364,9.16033058 L14.2636364,6.70785124 L13.5519284,6.70785124 L13.5519284,6.70785124 Z M19.376584,6.62575758 C19.088292,6.62672176 18.8246556,6.67410468 18.5874656,6.76818182 C18.3493113,6.86115702 18.1439394,6.99352617 17.9714876,7.16404959 C17.7982094,7.33471074 17.6650138,7.53636364 17.5710744,7.76900826 C17.4769972,8.00165289 17.4286501,8.25716253 17.4278237,8.53636364 C17.4286501,8.815427 17.4769972,9.07093664 17.5710744,9.30275482 C17.6650138,9.53443526 17.7982094,9.73512397 17.9714876,9.90578512 C18.1439394,10.0754821 18.3493113,10.2068871 18.5874656,10.2998623 C18.8246556,10.3929752 19.088292,10.4404959 19.376584,10.4413223 C19.664876,10.4404959 19.9286501,10.3929752 20.1658402,10.2998623 C20.4039945,10.2068871 20.6092287,10.0754821 20.7826446,9.90578512 C20.9549587,9.73512397 21.088292,9.53443526 21.1830579,9.30275482 C21.277135,9.07093664 21.3245179,8.815427 21.3254821,8.53636364 C21.3245179,8.25716253 21.277135,8.00165289 21.1830579,7.76900826 C21.088292,7.53636364 20.9549587,7.33471074 20.7826446,7.16404959 C20.6092287,6.99352617 20.4039945,6.86115702 20.1658402,6.76818182 C19.9286501,6.67410468 19.664876,6.62672176 19.376584,6.62575758 L19.376584,6.62575758 Z M19.376584,9.7953168 C19.1977961,9.79449036 19.0344353,9.76349862 18.8866391,9.7023416 C18.738843,9.64118457 18.6101928,9.5553719 18.5016529,9.44325069 C18.3939394,9.33099174 18.3100551,9.19862259 18.2506887,9.04449036 C18.1922865,8.89118457 18.162259,8.7214876 18.1612948,8.53636364 C18.162259,8.35110193 18.1922865,8.18044077 18.2506887,8.02713499 C18.3100551,7.87300275 18.3939394,7.73980716 18.5016529,7.62672176 C18.6101928,7.51446281 18.738843,7.4268595 18.8866391,7.36487603 C19.0344353,7.30371901 19.1977961,7.27272727 19.376584,7.27176309 C19.5553719,7.27272727 19.7187328,7.30371901 19.8665289,7.36487603 C20.0152893,7.4268595 20.1429752,7.51446281 20.2515152,7.62672176 C20.3592287,7.73980716 20.4431129,7.87300275 20.5024793,8.02713499 C20.5618457,8.18044077 20.5910468,8.35110193 20.5918733,8.53636364 C20.5910468,8.7214876 20.5618457,8.89118457 20.5024793,9.04449036 C20.4431129,9.19862259 20.3592287,9.33099174 20.2515152,9.44325069 C20.1429752,9.5553719 20.0152893,9.64118457 19.8665289,9.7023416 C19.7187328,9.76349862 19.5553719,9.79449036 19.376584,9.7953168 L19.376584,9.7953168 L19.376584,9.7953168 Z M22.3326446,6.70785124 L22.3326446,8.79903581 C22.3336088,8.91487603 22.3316804,9.02534435 22.327135,9.13112948 C22.3225895,9.23705234 22.3071625,9.33374656 22.2815427,9.42134986 C22.2560606,9.50977961 22.2130854,9.584573 22.1520661,9.64752066 C22.1319559,9.66859504 22.1073003,9.68856749 22.0763085,9.70867769 C22.0461433,9.72878788 22.0106061,9.74517906 21.968595,9.75798898 C21.926584,9.77162534 21.8782369,9.77809917 21.8235537,9.77892562 C21.7852617,9.77892562 21.7487603,9.77534435 21.7140496,9.76887052 C21.6793388,9.76253444 21.6483471,9.75426997 21.6209366,9.74614325 L21.6209366,10.3592287 C21.6702479,10.3701102 21.7195592,10.3783747 21.769697,10.3838843 C21.8190083,10.3893939 21.8701102,10.392011 21.9220386,10.392011 C22.0406336,10.3911846 22.1455923,10.3793388 22.237741,10.3564738 C22.3290634,10.3337466 22.4092287,10.3035813 22.477686,10.2670799 C22.5451791,10.2305785 22.6027548,10.1922865 22.6501377,10.1512397 C22.750551,10.0672176 22.8280992,9.97506887 22.8827824,9.87479339 C22.9376033,9.77438017 22.9758953,9.67038567 22.9986226,9.56267218 C23.0224518,9.45509642 23.035124,9.34834711 23.0396694,9.24242424 C23.0443526,9.13663912 23.0451791,9.0362259 23.0443526,8.94146006 L23.0443526,7.32107438 L24.1063361,7.32107438 L24.1063361,10.3592287 L24.8179063,10.3592287 L24.8179063,6.70785124 L22.3326446,6.70785124 L22.3326446,6.70785124 L22.3326446,6.70785124 Z M25.2449036,6.70785124 L26.6026171,9.34104683 L26.0935262,10.3592287 L26.8707989,10.3592287 L28.5623967,6.70785124 L27.7849862,6.70785124 L27.0022039,8.54724518 L26.0769972,6.70785124 L25.2449036,6.70785124 L25.2449036,6.70785124 Z M31.638843,9.39573003 C31.5311295,9.52258953 31.4044077,9.62107438 31.2593664,9.69049587 C31.1133609,9.75977961 30.9555096,9.79449036 30.7848485,9.7953168 C30.661708,9.7953168 30.5403581,9.77809917 30.4207989,9.74338843 C30.3013774,9.70867769 30.1891185,9.65757576 30.0841598,9.58911846 C29.9792011,9.52162534 29.8870523,9.43677686 29.8067493,9.33650138 C29.726584,9.23608815 29.6634986,9.12024793 29.6170799,8.98787879 C29.5713499,8.85661157 29.5486226,8.70964187 29.5476584,8.54724518 C29.5486226,8.37754821 29.5768595,8.2161157 29.6334711,8.06363636 C29.6900826,7.91129477 29.7712121,7.77534435 29.8769972,7.65674931 C29.9837466,7.53815427 30.1106061,7.44421488 30.2593664,7.37575758 C30.4071625,7.30826446 30.5731405,7.27272727 30.757438,7.27176309 C30.7913223,7.2707989 30.8396694,7.27451791 30.9034435,7.28181818 C30.9673554,7.2899449 31.0403581,7.30647383 31.1224518,7.33292011 C31.2045455,7.35936639 31.2893939,7.40041322 31.3787879,7.45606061 C31.4673554,7.51170799 31.5539945,7.58746556 31.638843,7.68236915 L31.638843,6.85027548 C31.5275482,6.79090909 31.4190083,6.74435262 31.3150138,6.71157025 C31.2100551,6.67865014 31.1096419,6.65674931 31.0139118,6.64407713 C30.9180441,6.63126722 30.8268595,6.62493113 30.7410468,6.62575758 C30.4801653,6.62396694 30.2374656,6.66143251 30.0129477,6.73705234 C29.7876033,6.81280992 29.5833333,6.9369146 29.3998623,7.10757576 C29.2940771,7.20426997 29.1973829,7.32190083 29.1097796,7.45964187 C29.0212121,7.59752066 28.9501377,7.75619835 28.8971074,7.93595041 C28.8433884,8.11570248 28.815978,8.31556474 28.8141873,8.53636364 C28.8132231,8.71515152 28.8333333,8.88484848 28.8725895,9.04628099 C28.911708,9.20785124 28.9746556,9.36294766 29.0604683,9.50977961 C29.1471074,9.65674931 29.2603306,9.79724518 29.3998623,9.9322314 C29.5011019,10.0298898 29.6143251,10.1165289 29.7402204,10.1931129 C29.8661157,10.2698347 30.0103306,10.3300275 30.1727273,10.3738292 C30.335124,10.4176309 30.5230028,10.4404959 30.7355372,10.4413223 C30.8669421,10.4404959 30.9874656,10.4304408 31.0960055,10.4112948 C31.2055096,10.392011 31.3049587,10.3665289 31.3953168,10.334573 C31.4847107,10.3017906 31.5658402,10.2670799 31.638843,10.2278237 L31.638843,9.39573003 L31.638843,9.39573003 L31.638843,9.39573003 Z" id="Shape"></path>
            </g>
        </g>
    </g>
</svg>