<?xml version="1.0" encoding="UTF-8" standalone="no"?>
<svg width="42px" height="88px" viewBox="0 0 42 88" version="1.1" xmlns="http://www.w3.org/2000/svg" xmlns:xlink="http://www.w3.org/1999/xlink" xmlns:sketch="http://www.bohemiancoding.com/sketch/ns">
    <!-- Generator: Sketch 3.4.1 (15681) - http://www.bohemiancoding.com/sketch -->
    <title>edelveise</title>
    <desc>Created with Sketch.</desc>
    <defs></defs>
    <g id="Page-1" stroke="none" stroke-width="1" fill="none" fill-rule="evenodd" sketch:type="MSPage">
        <g id="flowers" sketch:type="MSLayerGroup" transform="translate(-38.000000, -3.000000)" fill="#85B200">
            <g id="Page-1" sketch:type="MSShapeGroup">
                <g id="flowers">
                    <path d="M66.099177,26.13 C73.109177,23.717 73.879177,17.761 78.019177,13.719 C78.349177,14.087 78.899177,14.16 79.319177,13.871 C79.759177,13.561 79.859177,12.95 79.559177,12.507 L79.519177,12.463 L79.679177,12.353 L79.519177,12.462 C79.199177,12.057 78.619177,11.967 78.189177,12.267 C77.809177,12.534 77.679177,13.023 77.849177,13.436 C72.799177,15.887 67.139177,14.74 62.599177,20.096 C63.429177,14.125 59.719177,10.317 58.879177,5.141 C59.359177,5.085 59.739177,4.671 59.739177,4.168 C59.739177,3.627 59.309177,3.189 58.769177,3.189 L58.709177,3.19 L58.709177,3 L58.709177,3.19 C58.199177,3.22 57.789177,3.646 57.789177,4.168 C57.789177,4.633 58.109177,5.023 58.549177,5.122 C57.729177,10.23 54.119177,14.008 54.929177,19.871 C50.429177,14.772 44.859177,15.852 39.879177,13.436 C40.049177,13.023 39.919177,12.534 39.539177,12.267 C39.109177,11.968 38.529177,12.057 38.209177,12.462 L38.049177,12.353 L38.209177,12.463 L38.179177,12.507 C37.869177,12.95 37.969177,13.561 38.419177,13.871 C38.829177,14.16 39.379177,14.087 39.709177,13.719 C43.849177,17.761 44.619177,23.717 51.629177,26.13 C44.619177,28.542 43.849177,34.499 39.709177,38.541 C39.379177,38.173 38.829177,38.1 38.419177,38.389 C37.969177,38.699 37.869177,39.309 38.179177,39.752 L38.209177,39.796 L38.049177,39.906 L38.209177,39.798 C38.529177,40.203 39.109177,40.292 39.539177,39.993 C39.919177,39.726 40.049177,39.237 39.879177,38.824 C44.859177,36.408 50.429177,37.488 54.929177,32.389 C54.119177,38.252 57.729177,42.03 58.549177,47.137 C58.109177,47.237 57.789177,47.626 57.789177,48.092 C57.789177,48.613 58.199177,49.04 58.709177,49.069 L58.709177,49.26 L58.709177,49.069 L58.769177,49.071 C59.309177,49.071 59.739177,48.633 59.739177,48.092 C59.739177,47.589 59.359177,47.175 58.879177,47.119 C59.719177,41.942 63.429177,38.135 62.599177,32.162 C67.139177,37.519 72.789177,36.373 77.849177,38.824 C77.679177,39.237 77.809177,39.726 78.189177,39.993 C78.619177,40.292 79.199177,40.203 79.519177,39.798 L79.679177,39.906 L79.519177,39.796 L79.559177,39.752 C79.859177,39.309 79.759177,38.699 79.319177,38.389 C78.899177,38.1 78.349177,38.173 78.019177,38.541 C73.879177,34.499 73.109177,28.542 66.099177,26.13 Z M58.529177,24.365 C59.449177,24.365 60.189177,25.113 60.189177,26.035 C60.189177,26.956 59.449177,27.703 58.529177,27.703 C57.599177,27.703 56.859177,26.956 56.859177,26.035 C56.859177,25.113 57.599177,24.365 58.529177,24.365 Z M62.139177,26.75 C63.059177,26.75 63.809177,27.497 63.809177,28.42 C63.809177,29.341 63.059177,30.088 62.139177,30.088 C61.219177,30.088 60.469177,29.341 60.469177,28.42 C60.469177,27.497 61.219177,26.75 62.139177,26.75 Z M62.139177,22.649 C63.059177,22.649 63.809177,23.397 63.809177,24.319 C63.809177,25.24 63.059177,25.988 62.139177,25.988 C61.219177,25.988 60.469177,25.24 60.469177,24.319 C60.469177,23.397 61.219177,22.649 62.139177,22.649 Z M58.529177,20.55 C59.449177,20.55 60.189177,21.298 60.189177,22.22 C60.189177,23.142 59.449177,23.889 58.529177,23.889 C57.599177,23.889 56.859177,23.142 56.859177,22.22 C56.859177,21.298 57.599177,20.55 58.529177,20.55 Z M54.719177,22.84 C55.639177,22.84 56.389177,23.587 56.389177,24.509 C56.389177,25.43 55.639177,26.178 54.719177,26.178 C53.799177,26.178 53.049177,25.43 53.049177,24.509 C53.049177,23.587 53.799177,22.84 54.719177,22.84 Z M54.999177,26.9 C55.919177,26.9 56.669177,27.647 56.669177,28.569 C56.669177,29.49 55.919177,30.238 54.999177,30.238 C54.079177,30.238 53.329177,29.49 53.329177,28.569 C53.329177,27.647 54.079177,26.9 54.999177,26.9 Z M60.2928925,64.0214072 L58.849177,90.28 L57.4303899,64.4748095 C56.2092068,55.3864801 53.0243481,47.3558748 44.529177,44.612 C41.059177,43.491 41.239177,38.978 45.869177,39.924 C52.9512653,41.3682402 55.8110394,49.0088064 56.9666939,56.0410111 L56.899177,54.813 C56.879177,54.341 57.009177,53.957 57.219177,53.66 C57.559177,53.113 58.149177,52.749 58.849177,52.749 C59.549177,52.749 60.179177,53.135 60.509177,53.708 C60.699177,53.999 60.819177,54.375 60.799177,54.813 L60.7498329,55.7104799 C61.9425455,48.7712112 64.8241304,41.3456413 71.789177,39.924 C76.419177,38.978 76.599177,43.491 73.129177,44.612 C64.7847466,47.310155 61.5666914,55.120328 60.2928925,64.0214072 Z M58.529177,28.657 C59.449177,28.657 60.189177,29.405 60.189177,30.326 C60.189177,31.248 59.449177,31.995 58.529177,31.995 C57.599177,31.995 56.859177,31.248 56.859177,30.326 C56.859177,29.405 57.599177,28.657 58.529177,28.657 Z" id="edelveise"></path>
                </g>
            </g>
        </g>
    </g>
</svg>